<svg width="30" height="26" viewBox="0 0 30 26" fill="none" xmlns="http://www.w3.org/2000/svg">
<path d="M16.8903 12.3768C16.9115 12.4338 16.9445 12.4857 16.9873 12.529L22.5268 18.0663C22.5699 18.109 22.6211 18.1428 22.6773 18.1658C22.7336 18.1888 22.7938 18.2004 22.8546 18.2001C22.9153 18.2004 22.9755 18.1888 23.0318 18.1658C23.088 18.1428 23.1392 18.109 23.1823 18.0663C23.2256 18.0234 23.2599 17.9723 23.2834 17.9161C23.3068 17.8599 23.3189 17.7995 23.3189 17.7386C23.3189 17.6777 23.3068 17.6174 23.2834 17.5612C23.2599 17.5049 23.2256 17.4539 23.1823 17.411L18.4276 12.6628H28.3941C28.5165 12.6628 28.6339 12.6142 28.7205 12.5277C28.8071 12.4412 28.8557 12.3238 28.8557 12.2014C28.8557 12.079 28.8071 11.9617 28.7205 11.8751C28.6339 11.7886 28.5165 11.74 28.3941 11.74H18.4276L23.1823 6.99181C23.2256 6.94891 23.2599 6.89787 23.2834 6.84164C23.3068 6.78541 23.3189 6.7251 23.3189 6.66418C23.3189 6.60327 23.3068 6.54295 23.2834 6.48672C23.2599 6.43049 23.2256 6.37946 23.1823 6.33656C23.1394 6.29331 23.0884 6.25899 23.0321 6.23556C22.9758 6.21213 22.9155 6.20007 22.8546 6.20007C22.7936 6.20007 22.7333 6.21213 22.677 6.23556C22.6208 6.25899 22.5697 6.29331 22.5268 6.33656L16.9873 11.8738C16.9453 11.9177 16.9123 11.9694 16.8903 12.0261C16.8442 12.1384 16.8442 12.2644 16.8903 12.3768V12.3768Z" fill="#393939"/>
<path d="M17.5 14.2188C17.3674 14.2188 17.2402 14.2668 17.1465 14.3523C17.0527 14.4377 17 14.5537 17 14.6745V21.9666H12V4.64795C11.9996 4.55128 11.9655 4.45722 11.9025 4.37939C11.8396 4.30156 11.7512 4.24399 11.65 4.21499L3.72 1.91343H17V9.20549C17 9.32636 17.0527 9.44228 17.1465 9.52775C17.2402 9.61322 17.3674 9.66124 17.5 9.66124C17.6326 9.66124 17.7598 9.61322 17.8536 9.52775C17.9473 9.44228 18 9.32636 18 9.20549V1.45768C18 1.3368 17.9473 1.22088 17.8536 1.13541C17.7598 1.04994 17.6326 1.00192 17.5 1.00192H0.500015H0.455002C0.428409 0.999359 0.401608 0.999359 0.375015 1.00192C0.329299 1.01295 0.285525 1.02983 0.24501 1.05206C0.24501 1.05206 0.215002 1.05206 0.205002 1.05206L0.160004 1.08852H0.13501C0.0993605 1.12586 0.0691173 1.16722 0.0450134 1.21157V1.23892C0.0229464 1.28975 0.0110873 1.34377 0.0100098 1.39843V22.3631C0.0110873 22.4177 0.0229464 22.4718 0.0450134 22.5226C0.0512629 22.5401 0.0596426 22.5569 0.0700073 22.5727C0.0887532 22.6033 0.110512 22.6323 0.13501 22.6593C0.147373 22.6752 0.162585 22.6891 0.180008 22.7003C0.21016 22.7242 0.243823 22.7442 0.280014 22.7596C0.296611 22.7714 0.315176 22.7806 0.335007 22.7869H0.360016L11.36 25.9772C11.4084 25.9917 11.459 25.9994 11.51 26C11.6156 25.9986 11.7183 25.9684 11.805 25.9134C11.8687 25.871 11.9205 25.8154 11.9561 25.7513C11.9917 25.6871 12.0102 25.6162 12.01 25.5442V22.8097H17.51C17.6426 22.8097 17.7698 22.7617 17.8636 22.6762C17.9573 22.5908 18.01 22.4748 18.01 22.354V14.6062C17.9917 14.4959 17.9297 14.3956 17.8357 14.3242C17.7417 14.2528 17.6223 14.2153 17.5 14.2188V14.2188Z" fill="#393939"/>
</svg>
