<svg width="30" height="26" viewBox="0 0 30 26" fill="none" xmlns="http://www.w3.org/2000/svg">
<path d="M28.9654 11.8233C28.9442 11.7663 28.9112 11.7144 28.8684 11.671L23.3289 6.13382C23.2858 6.09105 23.2346 6.05723 23.1784 6.03426C23.1221 6.0113 23.0619 5.99966 23.0011 6.00001C22.9404 5.99966 22.8802 6.0113 22.8239 6.03426C22.7677 6.05723 22.7165 6.09105 22.6734 6.13382C22.6301 6.17672 22.5958 6.22775 22.5723 6.28398C22.5489 6.34021 22.5368 6.40053 22.5368 6.46144C22.5368 6.52236 22.5489 6.58267 22.5723 6.6389C22.5958 6.69513 22.6301 6.74617 22.6734 6.78907L27.4281 11.5372L17.4616 11.5372C17.3392 11.5372 17.2218 11.5858 17.1352 11.6724C17.0486 11.7589 17 11.8763 17 11.9987C17 12.121 17.0486 12.2384 17.1352 12.325C17.2218 12.4115 17.3392 12.4601 17.4616 12.4601L27.4281 12.4601L22.6734 17.2083C22.6301 17.2512 22.5958 17.3022 22.5723 17.3584C22.5489 17.4147 22.5368 17.475 22.5368 17.5359C22.5368 17.5968 22.5489 17.6571 22.5723 17.7133C22.5958 17.7696 22.6301 17.8206 22.6734 17.8635C22.7163 17.9068 22.7674 17.9411 22.8236 17.9645C22.8799 17.9879 22.9402 18 23.0011 18C23.0621 18 23.1224 17.9879 23.1787 17.9645C23.2349 17.9411 23.286 17.9068 23.3289 17.8635L28.8684 12.3263C28.9104 12.2824 28.9434 12.2307 28.9654 12.174C29.0115 12.0617 29.0115 11.9357 28.9654 11.8233V11.8233Z" fill="#393939"/>
<path d="M17.5 14.2188C17.3674 14.2188 17.2402 14.2668 17.1465 14.3523C17.0527 14.4377 17 14.5537 17 14.6745V21.9666H12V4.64795C11.9996 4.55128 11.9655 4.45722 11.9025 4.37939C11.8396 4.30156 11.7512 4.24399 11.65 4.21499L3.72 1.91343H17V9.20549C17 9.32636 17.0527 9.44228 17.1465 9.52775C17.2402 9.61322 17.3674 9.66124 17.5 9.66124C17.6326 9.66124 17.7598 9.61322 17.8536 9.52775C17.9473 9.44228 18 9.32636 18 9.20549V1.45768C18 1.3368 17.9473 1.22088 17.8536 1.13541C17.7598 1.04994 17.6326 1.00192 17.5 1.00192H0.500015H0.455002C0.428409 0.999359 0.401608 0.999359 0.375015 1.00192C0.329299 1.01295 0.285525 1.02983 0.24501 1.05206C0.24501 1.05206 0.215002 1.05206 0.205002 1.05206L0.160004 1.08852H0.13501C0.0993605 1.12586 0.0691173 1.16722 0.0450134 1.21157V1.23892C0.0229464 1.28975 0.0110873 1.34377 0.0100098 1.39843V22.3631C0.0110873 22.4177 0.0229464 22.4718 0.0450134 22.5226C0.0512629 22.5401 0.0596426 22.5569 0.0700073 22.5727C0.0887532 22.6033 0.110512 22.6323 0.13501 22.6593C0.147373 22.6752 0.162585 22.6891 0.180008 22.7003C0.21016 22.7242 0.243823 22.7442 0.280014 22.7596C0.296611 22.7714 0.315176 22.7806 0.335007 22.7869H0.360016L11.36 25.9772C11.4084 25.9917 11.459 25.9994 11.51 26C11.6156 25.9986 11.7183 25.9684 11.805 25.9134C11.8687 25.871 11.9205 25.8154 11.9561 25.7513C11.9917 25.6871 12.0102 25.6162 12.01 25.5442V22.8097H17.51C17.6426 22.8097 17.7698 22.7617 17.8636 22.6762C17.9573 22.5908 18.01 22.4748 18.01 22.354V14.6062C17.9917 14.4959 17.9297 14.3956 17.8357 14.3242C17.7417 14.2528 17.6223 14.2153 17.5 14.2188Z" fill="#393939"/>
</svg>
