<svg width="15" height="27" viewBox="0 0 15 27" fill="none" xmlns="http://www.w3.org/2000/svg">
<path d="M6.75343 0.309339C6.75312 0.309656 6.75275 0.309919 6.75243 0.310289L1.26806 5.82124C0.857205 6.2341 0.858734 6.90187 1.27164 7.31283C1.6845 7.72374 2.35228 7.72216 2.76318 7.3093L6.44531 3.60925L6.44531 25.9453C6.44531 26.5278 6.91749 27 7.5 27C8.0825 27 8.55468 26.5278 8.55468 25.9453L8.55468 3.6093L12.2368 7.30925C12.6477 7.72211 13.3155 7.72369 13.7283 7.31278C14.1413 6.90182 14.1427 6.23399 13.7319 5.82119L8.24756 0.310236C8.24724 0.309919 8.24687 0.309656 8.24656 0.309286C7.83428 -0.103783 7.16434 -0.102463 6.75343 0.309339Z" fill="white"/>
</svg>
