<svg id="Слой_1" data-name="Слой 1" xmlns="http://www.w3.org/2000/svg" viewBox="0 0 320.87 87.64"><defs><style>.cls-1{fill:#4e4e4e;}</style></defs><title>минус</title><path class="cls-1" d="M290.8-1241.1c2.56-10.59,10.46-17,21.57-17.37,1,0,2.09,0,3.13,0q135.79,0,271.6,0c9.72,0,17.19,3.6,21.8,12.38a21.8,21.8,0,0,1,2.21,10.3c0,14.09.06,28.19,0,42.29-.08,13-8.78,22-21.79,22.63-.73,0-1.47,0-2.2,0q-136.43,0-272.85,0c-9.72,0-17.16-3.64-21.81-12.39a18.2,18.2,0,0,1-1.64-5c-.57-1,.21-2.24-.53-3.22v-46.37C291-1238.85,290.23-1240.09,290.8-1241.1Z" transform="translate(-290.27 1258.51)"/><path class="cls-1" d="M290.8-1241.1c.18,1.14.33,2.27-.53,3.23V-1241A.62.62,0,0,1,290.8-1241.1Z" transform="translate(-290.27 1258.51)"/><path class="cls-1" d="M290.27-1191.5c.86,1,.71,2.09.53,3.22l-.28,0-.25-.11Z" transform="translate(-290.27 1258.51)"/></svg>