<svg id="Слой_1" data-name="Слой 1" xmlns="http://www.w3.org/2000/svg" viewBox="0 0 426.03 426.07"><defs><style>.cls-1{fill:#4e4e4e;}</style></defs><title>плюс</title><path class="cls-1" d="M659.49-1138.92H746c8.09,2,11.25,6.17,11.27,15.34.07,28.39,0,56.78,0,85.17q0,26,0,51.94c0,5.64.2,5.83,5.84,5.83h135c3,0,6.1-.09,9,1a12.07,12.07,0,0,1,8.38,10.32v86.46c-2,8.11-6.16,11.25-15.34,11.28-27.3.07-54.59,0-81.88,0H763.86c-6.58,0-6.6,0-6.6,6.76q0,66.7,0,133.42a41.52,41.52,0,0,1-.3,7c-1.15,6.76-6,11.37-12.71,11.4q-41.57.16-83.13,0c-6.71,0-11.52-4.7-12.63-11.48a42.57,42.57,0,0,1-.29-7.05V-865.73c-.05-5.64-.21-5.84-5.84-5.84H507.27c-13.63,0-17.76-4.2-17.76-17.9v-74.81c0-11.57,4.69-16.32,16.41-16.33q67.12-.07,134.25,0c8,0,8,0,8-7.84v-133c0-3.19-.09-6.39,1.11-9.43A12,12,0,0,1,659.49-1138.92Z" transform="translate(-489.51 1138.92)"/></svg>