<svg width="7" height="9" viewBox="0 0 7 9" fill="none" xmlns="http://www.w3.org/2000/svg">
<path d="M6.00031 4.14882L1.99519 0.143779C1.90256 0.0510728 1.7789 0 1.64705 0C1.5152 0 1.39154 0.0510728 1.29891 0.143779L1.00396 0.438655C0.812031 0.6308 0.812031 0.94309 1.00396 1.13494L4.36715 4.49813L1.00022 7.86506C0.907591 7.95776 0.856445 8.08135 0.856445 8.21313C0.856445 8.34505 0.907591 8.46864 1.00022 8.56142L1.29517 8.85622C1.38788 8.94893 1.51146 9 1.64332 9C1.77517 9 1.89883 8.94893 1.99146 8.85622L6.00031 4.84752C6.09316 4.75452 6.14416 4.63035 6.14387 4.49835C6.14416 4.36584 6.09316 4.24175 6.00031 4.14882Z" fill="#4E4E4E"/>
</svg>
