<svg width="20" height="20" viewBox="0 0 20 20" fill="none" xmlns="http://www.w3.org/2000/svg">
<g clip-path="url(#clip0)">
<path d="M17.4784 16.4516C18.3521 13.2432 18.4131 10.2104 17.6605 7.39736C17.9228 7.18216 18.0904 6.85568 18.0904 6.49072V3.98946H15.9934C15.4502 3.20368 14.5617 2.42395 13.3331 1.65731C11.7924 0.695861 10.2753 0.106133 10.2115 0.0814845L10.0005 0L9.78941 0.0814845C9.72558 0.106094 8.20855 0.695861 6.6678 1.65731C5.43921 2.42399 4.55073 3.20368 4.00756 3.98946H1.91057V6.49072C1.91057 6.85568 2.07822 7.18216 2.34049 7.39736C1.58783 10.2104 1.64889 13.2432 2.52264 16.4516C1.90354 16.8585 1.49365 17.5588 1.49365 18.3534V20H18.5074V18.3534C18.5074 17.5588 18.0975 16.8585 17.4784 16.4516ZM7.2748 2.66059C8.39917 1.95723 9.54058 1.45356 10.0005 1.26125C10.4606 1.45356 11.602 1.95727 12.7263 2.66055C13.4348 3.10372 14.015 3.55114 14.4559 3.98942H5.54515C5.98608 3.55118 6.56628 3.10372 7.2748 2.66059ZM3.08303 5.16192H16.9183L16.9188 6.49068C16.9188 6.49068 16.9186 6.49072 16.9181 6.49072H3.08303V5.16192ZM17.335 18.8276H2.66612V18.3534C2.66612 17.7457 3.16053 17.2513 3.76827 17.2513H4.58112V16.0788C4.58112 16.0788 3.68151 16.0803 3.63854 16.0828C2.83287 13.0865 2.78076 10.2664 3.48397 7.66314H16.5171C17.2202 10.2664 17.1681 13.0865 16.3625 16.0828C16.3195 16.0803 15.4199 16.0788 15.4199 16.0788V17.2513H16.2328C16.8405 17.2513 17.3349 17.7457 17.3349 18.3534V18.8276H17.335Z" fill="#4E4E4E"/>
<path d="M13.8132 11.0943L13.7865 10.7391L13.4591 10.5991C13.267 10.517 11.5493 9.81988 10.422 10.6263C10.2559 10.7452 10.1166 10.8868 9.99976 11.0425C9.88293 10.8869 9.74367 10.7452 9.57749 10.6263C8.45023 9.81992 6.73256 10.517 6.54042 10.5991L6.21299 10.7391L6.18627 11.0943C6.17065 11.3027 6.06584 13.1533 7.19315 13.9597C7.5978 14.2491 8.07847 14.3448 8.53741 14.3448C8.84991 14.3448 9.15218 14.3004 9.41355 14.2426V15.996H10.586V14.2426C10.8474 14.3004 11.1496 14.3448 11.4621 14.3448C11.921 14.3448 12.4018 14.2491 12.8064 13.9597C13.9337 13.1533 13.8289 11.3027 13.8132 11.0943ZM7.87522 13.0061C7.49378 12.7332 7.37753 12.0336 7.35448 11.5543C7.83874 11.415 8.52937 11.3181 8.89538 11.58C9.27644 11.8525 9.39285 12.5511 9.41605 13.0302C8.95456 13.1632 8.25616 13.2786 7.87522 13.0061ZM12.1243 13.0061C11.7452 13.2772 11.0521 13.1644 10.5911 13.0324C10.5901 13.0036 10.5889 12.9738 10.5873 12.9431C10.6222 12.4507 10.7587 11.827 11.1041 11.58C11.4856 11.3071 12.1854 11.4231 12.6463 11.5561C12.6218 12.0594 12.4903 12.7443 12.1243 13.0061Z" fill="#4E4E4E"/>
</g>
<defs>
<clipPath id="clip0">
<rect width="20" height="20" fill="white"/>
</clipPath>
</defs>
</svg>
