<svg width="20" height="20" viewBox="0 0 20 20" fill="none" xmlns="http://www.w3.org/2000/svg">
<path d="M16.25 4.375C16.25 2.6525 14.8488 1.25 13.125 1.25C12.9187 1.25 12.7238 1.2675 12.5363 1.30375C11.9525 0.48875 11.0188 0 10 0C8.98125 0 8.0475 0.48875 7.46375 1.30375C7.27625 1.2675 7.08125 1.25 6.875 1.25C5.15125 1.25 3.75 2.6525 3.75 4.375C3.75 5.34125 4.2 6.195 4.89125 6.76875C4.79625 8.16375 4.81125 10.5238 5.66875 12.7275C6.7925 15.6038 5.74 17.7512 5.695 17.8387C5.65 17.9275 5.625 18.025 5.625 18.125C5.625 19.1588 6.46625 20 7.5 20H12.5C13.5337 20 14.375 19.1588 14.375 18.125C14.375 18.0275 14.35 17.93 14.3075 17.8425C14.3025 17.8325 13.8237 16.8612 13.8237 15.375C13.8237 14.4862 13.995 13.595 14.3313 12.7262C15.1888 10.5237 15.2037 8.16375 15.1087 6.76875C15.8 6.195 16.25 5.34125 16.25 4.375ZM13.1675 12.2738C12.7738 13.2875 12.5737 14.3313 12.5737 15.375C12.5737 16.8062 12.9475 17.8438 13.115 18.2375C13.0612 18.5287 12.8062 18.75 12.5 18.75H7.5C7.195 18.75 6.94 18.5287 6.88625 18.2388C7.16375 17.5925 7.9925 15.24 6.8325 12.2738C6.16125 10.5487 6.0675 8.69375 6.11125 7.395C6.3575 7.45625 6.61 7.5 6.875 7.5H7.5V9.375C7.5 10.4087 8.34125 11.25 9.375 11.25C10.4088 11.25 11.25 10.4087 11.25 9.375V7.5H13.125C13.39 7.5 13.6425 7.45625 13.8888 7.395C13.9325 8.6925 13.8388 10.5487 13.1675 12.2738ZM13.125 6.25H10.625C10.28 6.25 10 6.53 10 6.875V9.375C10 9.72 9.71875 10 9.375 10C9.03125 10 8.75 9.72 8.75 9.375V6.875C8.75 6.53 8.47 6.25 8.125 6.25H6.875C5.84125 6.25 5 5.40875 5 4.375C5 3.34125 5.84125 2.5 6.875 2.5C7.11375 2.5 7.3225 2.5375 7.51375 2.61625C7.81875 2.74 8.16625 2.60875 8.31125 2.31375C8.63375 1.6575 9.28125 1.25 10 1.25C10.7188 1.25 11.3663 1.6575 11.69 2.31375C11.8338 2.60875 12.1812 2.73875 12.4875 2.61625C12.6775 2.5375 12.8862 2.5 13.125 2.5C14.1587 2.5 15 3.34125 15 4.375C15 5.40875 14.1587 6.25 13.125 6.25Z" fill="#4E4E4E"/>
</svg>
