<svg width="80" height="80" viewBox="0 0 80 80" fill="none" xmlns="http://www.w3.org/2000/svg">
<path d="M34.1406 58.9062H45.8594C47.1536 58.9062 48.2031 57.8569 48.2031 56.5625C48.2031 55.2681 47.1536 54.2188 45.8594 54.2188H34.1406C32.8462 54.2188 31.7969 55.2681 31.7969 56.5625C31.7969 57.8569 32.8462 58.9062 34.1406 58.9062Z" fill="#4F4F4F"/>
<path d="M34.1406 49.5312H45.8594C47.1536 49.5312 48.2031 48.4819 48.2031 47.1875C48.2031 45.8931 47.1536 44.8438 45.8594 44.8438H34.1406C32.8462 44.8438 31.7969 45.8931 31.7969 47.1875C31.7969 48.4819 32.8462 49.5312 34.1406 49.5312Z" fill="#4F4F4F"/>
<path d="M34.1406 40.1562H45.8594C47.1536 40.1562 48.2031 39.1069 48.2031 37.8125C48.2031 36.5181 47.1536 35.4688 45.8594 35.4688H34.1406C32.8462 35.4688 31.7969 36.5181 31.7969 37.8125C31.7969 39.1069 32.8462 40.1562 34.1406 40.1562Z" fill="#4F4F4F"/>
<path d="M77.6562 54.2188H59.9219V26.0938C59.9219 24.7994 58.8723 23.75 57.5781 23.75H50.5469V14.375C50.5469 13.0806 49.4973 12.0312 48.2031 12.0312H42.3438V2.34375C42.3438 1.04937 41.2942 0 40 0C38.7056 0 37.6562 1.04937 37.6562 2.34375V12.0312H31.7969C30.5025 12.0312 29.4531 13.0806 29.4531 14.375V23.75H22.4219C21.1275 23.75 20.0781 24.7994 20.0781 26.0938V54.2188H2.34375C1.04937 54.2188 0 55.2681 0 56.5625V77.6562C0 78.9506 1.04937 80 2.34375 80H77.6562C78.9505 80 80 78.9506 80 77.6562V56.5625C80 55.2681 78.9505 54.2188 77.6562 54.2188ZM34.1406 16.7188H45.8594V23.75H34.1406V16.7188ZM4.6875 58.9062H20.0781V75.3125H14.7266V71.7969C14.7266 70.5025 13.6772 69.4531 12.3828 69.4531C11.0883 69.4531 10.0391 70.5025 10.0391 71.7969V75.3125H4.6875V58.9062ZM24.7656 28.4375H55.2344V75.3125H48.2031V65.9375C48.2031 64.6431 47.1536 63.5938 45.8594 63.5938H34.1406C32.8462 63.5938 31.7969 64.6431 31.7969 65.9375V75.3125H24.7656V28.4375ZM43.5156 75.3125H36.4844V68.2812H43.5156V75.3125ZM75.3125 75.3125H69.9609V71.7969C69.9609 70.5025 68.9116 69.4531 67.6172 69.4531C66.3227 69.4531 65.2734 70.5025 65.2734 71.7969V75.3125H59.9219V58.9062H75.3125V75.3125Z" fill="#4F4F4F"/>
</svg>
