<svg width="20" height="20" viewBox="0 0 20 20" fill="none" xmlns="http://www.w3.org/2000/svg">
<g clip-path="url(#clip0)">
<path d="M18.789 10.8009C18.789 9.43802 17.691 8.32733 16.3331 8.30536C16.5747 7.92114 16.7151 7.46704 16.7151 6.98074C16.7151 5.60516 15.5969 4.48593 14.2218 4.4841C14.299 4.12476 14.2958 3.75427 14.2102 3.3754C13.8241 1.66794 11.8466 0.421753 11.7627 0.369415L11.1683 0L10.9085 0.649719C10.6913 1.19263 10.0334 1.30493 8.9758 1.42532C8.21942 1.51138 7.43741 1.60034 6.84018 2.01569C5.89017 2.67654 5.72018 3.77029 5.72354 4.48547C4.37344 4.5163 3.28442 5.62332 3.28442 6.98074C3.28442 7.46719 3.4248 7.92114 3.66635 8.30536C2.30847 8.32733 1.21045 9.43802 1.21045 10.8009C1.21045 11.7529 1.74603 12.5818 2.53171 13.0029L4.53549 20H15.464L17.4678 13.0028C18.2533 12.5818 18.789 11.7529 18.789 10.8009ZM7.51004 2.97867C7.8642 2.73239 8.49667 2.66037 9.1084 2.59079C9.96274 2.49359 10.9842 2.37732 11.6108 1.70303C12.162 2.14371 12.8956 2.87537 13.0665 3.63632C13.1326 3.93112 13.1102 4.21066 12.9971 4.4841H6.89603C6.89221 4.02435 6.9856 3.34351 7.51004 2.97867ZM5.78107 5.65704H14.2184C14.9482 5.65704 15.5421 6.25092 15.5421 6.98074C15.5421 7.71057 14.9482 8.30444 14.2184 8.30444H5.78107C5.05124 8.30444 4.45737 7.71057 4.45737 6.98074C4.45737 6.25092 5.05124 5.65704 5.78107 5.65704ZM3.70709 9.47739H16.2924C17.0222 9.47739 17.6161 10.0711 17.6161 10.8009C17.6161 11.5308 17.0222 12.1246 16.2924 12.1246H3.70709C2.97726 12.1246 2.38339 11.5308 2.38339 10.8009C2.38339 10.0711 2.97726 9.47739 3.70709 9.47739ZM10.5862 13.2976H12.7919L12.0005 18.8271H10.5862V13.2976ZM9.41327 18.8271H7.99893L7.20776 13.2976H9.41327V18.8271ZM3.83633 13.2976H6.02277L6.81393 18.8271H5.41974L3.83633 13.2976ZM14.5797 18.8271H13.1855L13.9767 13.2976H16.1633L14.5797 18.8271Z" fill="#4E4E4E"/>
</g>
<defs>
<clipPath id="clip0">
<rect width="20" height="20" fill="white"/>
</clipPath>
</defs>
</svg>
