<svg width="20" height="20" viewBox="0 0 20 20" fill="none" xmlns="http://www.w3.org/2000/svg">
<path d="M18.9946 9.73608C18.2489 9.12183 17.1118 8.90613 15.6462 9.05326C15.6891 8.65758 15.7148 8.25903 15.7148 7.85763C15.7148 7.46337 15.3948 7.14339 15.0005 7.14339H0.715706C0.321445 7.14339 0.00146484 7.46337 0.00146484 7.85763C0.00146484 9.37753 0.315731 10.856 0.932835 12.2488L2.04848 14.7615C2.58702 15.97 2.85843 17.2513 2.85843 18.5712V19.2855C2.85843 19.6797 3.17841 19.9997 3.57267 19.9997H12.1436C12.5378 19.9997 12.8578 19.6797 12.8578 19.2855V18.5712C12.8578 17.8341 12.9521 17.1113 13.1206 16.4028C13.742 16.1285 14.5706 15.9971 15.3891 15.8771C17.3347 15.5928 20.0002 15.2029 20.0002 12.1431C20.0002 11.096 19.6631 10.286 18.9946 9.73608ZM12.3621 14.1801C11.7436 15.5728 11.4293 17.0513 11.4293 18.5712H4.28691C4.28691 17.0513 3.97265 15.5728 3.35554 14.1801L2.23847 11.6674C1.79992 10.6789 1.53708 9.64037 1.45709 8.57187H14.2606C14.1791 9.64037 13.9177 10.6789 13.4778 11.6674L12.3621 14.1801ZM15.1819 14.4643C14.6805 14.5372 14.172 14.6143 13.6835 14.7258L14.7834 12.2502C15.032 11.6888 15.2177 11.1117 15.3676 10.526C16.6261 10.336 17.5932 10.4346 18.086 10.8389C18.4132 11.1074 18.5717 11.5345 18.5717 12.1431C18.5717 13.7944 17.5375 14.1187 15.1819 14.4643Z" fill="#4E4E4E"/>
<path d="M12.7664 2.50869C12.2922 1.66445 12.5893 1.28591 12.6364 1.23305C12.9136 0.968784 12.935 0.53024 12.6779 0.241687C12.4136 -0.0554373 11.9608 -0.08115 11.6694 0.181691C11.6194 0.227402 10.448 1.30019 11.5208 3.20864C12.0051 4.06859 11.6865 4.44571 11.6694 4.46714C11.3751 4.72998 11.3465 5.18138 11.6094 5.47564C11.7508 5.63421 11.9465 5.71563 12.1436 5.71563C12.3122 5.71563 12.4822 5.65563 12.6179 5.53564C12.6679 5.49136 13.8392 4.41714 12.7664 2.50869Z" fill="#4E4E4E"/>
<path d="M7.76644 2.50869C7.29219 1.66445 7.58931 1.28591 7.63645 1.23305C7.91358 0.968784 7.935 0.53024 7.67788 0.241687C7.41504 -0.0554373 6.96221 -0.08115 6.66937 0.181691C6.61937 0.227402 5.44802 1.30019 6.52081 3.20864C7.00506 4.06859 6.68651 4.44571 6.66937 4.46714C6.3751 4.72998 6.34653 5.18138 6.60937 5.47564C6.75079 5.63421 6.9465 5.71563 7.14363 5.71563C7.31219 5.71563 7.48218 5.65563 7.61788 5.53564C7.66788 5.49136 8.83923 4.41714 7.76644 2.50869Z" fill="#4E4E4E"/>
<path d="M2.76645 2.50869C2.29219 1.66445 2.58931 1.28591 2.63645 1.23305C2.91358 0.968784 2.93501 0.53024 2.67788 0.241687C2.41504 -0.0554373 1.96078 -0.08115 1.66937 0.181691C1.61937 0.227402 0.448017 1.30019 1.52081 3.20864C2.00506 4.06859 1.68651 4.44571 1.66937 4.46714C1.3751 4.72998 1.34653 5.18138 1.60937 5.47564C1.75079 5.63421 1.9465 5.71563 2.14363 5.71563C2.31219 5.71563 2.48218 5.65563 2.61788 5.53564C2.66788 5.49136 3.83924 4.41714 2.76645 2.50869Z" fill="#4E4E4E"/>
</svg>
