<svg width="20" height="20" viewBox="0 0 20 20" fill="none" xmlns="http://www.w3.org/2000/svg">
<g clip-path="url(#clip0)">
<path d="M11.7169 0.632264C11.744 0.291835 11.4747 0 11.1328 0H0.585973C0.246286 0 -0.0227368 0.288476 0.00152093 0.627811L1.09527 15.9012C1.11722 16.2078 1.37238 16.4453 1.67972 16.4453H1.71878V18.6328C1.71878 19.3866 2.3321 20 3.08597 20H8.55471C9.30857 20 9.92189 19.3866 9.92189 18.6328V16.4453C10.2275 16.4453 10.4819 16.2103 10.506 15.9057C10.5478 15.3787 11.6726 1.19101 11.7169 0.632264ZM9.38056 15.2734H2.22519L2.10148 13.5457C4.01628 14.2736 7.60131 14.2772 9.5165 13.5593L9.38056 15.2734ZM9.62353 12.2092C8.20232 13.163 3.43796 13.1596 2.00488 12.1969L1.38597 3.55468H10.3097L9.62353 12.2092ZM10.4986 1.17187L10.4026 2.38281H1.30207L1.21535 1.17187H10.4986ZM8.75002 18.6328C8.75002 18.7405 8.6624 18.8281 8.55471 18.8281H3.08597C2.97827 18.8281 2.89066 18.7405 2.89066 18.6328V16.4453H8.75002V18.6328Z" fill="#4E4E4E"/>
<path d="M5.85938 5.89844C4.56703 5.89844 3.51562 6.94984 3.51562 8.24219C3.51562 9.53453 4.56703 10.5859 5.85938 10.5859C7.15172 10.5859 8.20313 9.53453 8.20313 8.24219C8.20313 6.94984 7.15172 5.89844 5.85938 5.89844ZM5.85938 9.41406C5.21321 9.41406 4.6875 8.88836 4.6875 8.24219C4.6875 7.59602 5.21321 7.07031 5.85938 7.07031C6.50555 7.07031 7.03126 7.59602 7.03126 8.24219C7.03126 8.88836 6.50555 9.41406 5.85938 9.41406Z" fill="#4E4E4E"/>
<path d="M18.6718 16.5379C19.5614 15.0668 18.6193 12.3762 16.2163 11.7755C15.7683 11.6636 15.3723 12.0913 15.5183 12.5292C15.7251 13.1497 15.3625 13.8194 14.7207 13.9784L13.2501 14.3425C12.234 14.5941 11.713 15.6858 12.101 16.6185C11.4645 16.8831 11.0156 17.5112 11.0156 18.2424C11.0156 19.2116 11.8042 20.0002 12.7734 20.0002H18.2422C19.2114 20.0002 20 19.2116 20 18.2424C20 17.4213 19.434 16.7301 18.6718 16.5379ZM13.5317 15.48L15.0024 15.1158C15.878 14.899 16.5655 14.1796 16.7169 13.2589C17.3993 13.7139 17.832 14.4876 17.832 15.3457C17.832 15.9736 17.3212 16.4845 16.6932 16.4845H13.6542C13.3732 16.4845 13.1445 16.2558 13.1445 15.9748C13.1445 15.7399 13.3037 15.5365 13.5317 15.48ZM18.2422 18.8282H12.7734C12.4503 18.8282 12.1875 18.5654 12.1875 18.2423C12.1875 17.9192 12.4503 17.6564 12.7734 17.6564H18.2422C18.5652 17.6564 18.8281 17.9192 18.8281 18.2423C18.8281 18.5654 18.5652 18.8282 18.2422 18.8282Z" fill="#4E4E4E"/>
</g>
<defs>
<clipPath id="clip0">
<rect width="20" height="20" fill="white"/>
</clipPath>
</defs>
</svg>
