<svg width="100" height="70" viewBox="0 0 100 70" fill="none" xmlns="http://www.w3.org/2000/svg">
<path d="M75.5253 44.4537C68.5747 44.4537 62.9202 50.1082 62.9202 57.0588C62.9202 64.0094 68.5747 69.6639 75.5253 69.6639C82.477 69.6639 88.1303 64.0094 88.1303 57.0588C88.1303 50.1082 82.4758 44.4537 75.5253 44.4537ZM75.5253 63.3613C72.0495 63.3613 69.2227 60.5346 69.2227 57.0588C69.2227 53.583 72.0495 50.7563 75.5253 50.7563C79.001 50.7563 81.8278 53.583 81.8278 57.0588C81.8278 60.5348 79.001 63.3613 75.5253 63.3613Z" fill="#4F4F4F"/>
<path d="M32.4579 44.4537C25.5073 44.4537 19.8528 50.1082 19.8528 57.0588C19.8528 64.0094 25.5073 69.6639 32.4579 69.6639C39.4084 69.6639 45.0629 64.0094 45.0629 57.0588C45.0629 50.1082 39.4084 44.4537 32.4579 44.4537ZM32.4579 63.3613C28.9821 63.3613 26.1553 60.5346 26.1553 57.0588C26.1553 53.583 28.9821 50.7563 32.4579 50.7563C35.9327 50.7563 38.7604 53.583 38.7604 57.0588C38.7604 60.5348 35.9336 63.3613 32.4579 63.3613Z" fill="#4F4F4F"/>
<path d="M84.0137 8.37402C83.478 7.30996 82.3887 6.63867 81.1975 6.63867H64.6008V12.9412H79.2542L87.835 30.0084L93.4674 27.1764L84.0137 8.37402Z" fill="#4F4F4F"/>
<path d="M66.0713 54.0127H42.2268V60.3152H66.0713V54.0127Z" fill="#4F4F4F"/>
<path d="M23.0041 54.0127H12.0799C10.3393 54.0127 8.92871 55.4234 8.92871 57.1639C8.92871 58.9045 10.3395 60.315 12.0799 60.315H23.0043C24.7449 60.315 26.1555 58.9043 26.1555 57.1639C26.1555 55.4232 24.7447 54.0127 23.0041 54.0127Z" fill="#4F4F4F"/>
<path d="M99.3383 34.7478L93.1399 26.7646C92.5443 25.9956 91.6252 25.546 90.6514 25.546H67.7522V3.48723C67.7522 1.74661 66.3414 0.33606 64.601 0.33606H12.0799C10.3393 0.33606 8.92871 1.7468 8.92871 3.48723C8.92871 5.22766 10.3395 6.6384 12.0799 6.6384H61.4496V28.6972C61.4496 30.4378 62.8604 31.8484 64.6008 31.8484H89.1082L93.6975 37.7601V54.0122H84.9789C83.2383 54.0122 81.8277 55.423 81.8277 57.1634C81.8277 58.904 83.2385 60.3146 84.9789 60.3146H96.8486C98.5893 60.3146 99.9998 58.9038 100 57.1634V36.6806C100 35.981 99.7668 35.3003 99.3383 34.7478Z" fill="#4F4F4F"/>
<path d="M22.7943 38.0463H8.29839C6.55776 38.0463 5.14722 39.457 5.14722 41.1975C5.14722 42.9381 6.55796 44.3486 8.29839 44.3486H22.7941C24.5347 44.3486 25.9453 42.9379 25.9453 41.1975C25.9455 39.457 24.5347 38.0463 22.7943 38.0463Z" fill="#4F4F4F"/>
<path d="M30.042 25.6512H3.15117C1.41074 25.6512 0 27.062 0 28.8026C0 30.5432 1.41074 31.9538 3.15117 31.9538H30.042C31.7826 31.9538 33.1932 30.543 33.1932 28.8026C33.1932 27.0622 31.7826 25.6512 30.042 25.6512Z" fill="#4F4F4F"/>
<path d="M35.1892 13.2562H8.29839C6.55776 13.2562 5.14722 14.667 5.14722 16.4074C5.14722 18.148 6.55796 19.5586 8.29839 19.5586H35.1892C36.9298 19.5586 38.3404 18.1478 38.3404 16.4074C38.3406 14.667 36.9298 13.2562 35.1892 13.2562Z" fill="#4F4F4F"/>
</svg>
