<svg width="20" height="20" viewBox="0 0 20 20" fill="none" xmlns="http://www.w3.org/2000/svg">
<path d="M18.2422 5.89844H15.6787C16.884 4.93088 17.6562 3.45184 17.6562 1.79688C17.6562 1.47324 17.394 1.21094 17.0703 1.21094H14.6875C12.6492 1.21094 10.8774 2.3735 10 4.07028C9.12262 2.3735 7.35077 1.21094 5.3125 1.21094H2.96875C2.64511 1.21094 2.38281 1.47324 2.38281 1.79688C2.38281 3.45184 3.14926 4.93088 4.3457 5.89844H1.75781C0.788574 5.89844 0 6.68701 0 7.65625V10C0 10.3236 0.262299 10.5859 0.585938 10.5859H1.17188V17.0312C1.17188 18.0005 1.96045 18.7891 2.92969 18.7891H17.0703C18.0396 18.7891 18.8281 18.0005 18.8281 17.0312V10.5859H19.4141C19.7377 10.5859 20 10.3236 20 10V7.65625C20 6.68701 19.2114 5.89844 18.2422 5.89844ZM14.6875 2.38235H16.4423C16.1543 4.36752 14.4261 5.89844 12.3438 5.89844H11.9353L13.8406 4.62814C14.11 4.4487 14.1827 4.08478 14.0031 3.81561C13.8237 3.5463 13.4598 3.47366 13.1906 3.65311L10.7706 5.26642C11.2904 3.59772 12.8497 2.38235 14.6875 2.38235ZM10.5859 17.6172H9.41406V7.07031H10.5859V17.6172ZM3.59634 2.38281H5.3125C7.15027 2.38281 8.70956 3.59772 9.22943 5.26642L6.80939 3.65311C6.54022 3.47366 6.1763 3.5463 5.99686 3.81561C5.81741 4.08493 5.89005 4.4487 6.15936 4.62814L8.06473 5.89844H7.65625C5.59357 5.89844 3.88153 4.36783 3.59634 2.38281ZM1.17188 7.65625C1.17188 7.33322 1.43478 7.07031 1.75781 7.07031H8.24219V9.41406H1.17188V7.65625ZM2.34375 17.0312V10.5859H8.24219V17.6172H2.92969C2.60666 17.6172 2.34375 17.3543 2.34375 17.0312ZM17.6562 17.0312C17.6562 17.3543 17.3933 17.6172 17.0703 17.6172H11.7578V10.5859H17.6562V17.0312ZM18.8281 9.41406H11.7578V7.07031H18.2422C18.5652 7.07031 18.8281 7.33322 18.8281 7.65625V9.41406Z" fill="#4E4E4E"/>
</svg>
