<svg width="20" height="20" viewBox="0 0 20 20" fill="none" xmlns="http://www.w3.org/2000/svg">
<path d="M19.4152 14.8857H18.2995V13.61C19.2516 13.3521 19.9542 12.481 19.9542 11.4484C19.9542 10.4266 19.2661 9.563 18.329 9.29522V8.10196H19.3653C19.6882 8.10196 19.9501 7.84011 19.9501 7.51713C19.9501 3.38137 16.5854 0.0166931 12.4497 0.0166931H7.51435C3.37859 0.0167321 0.0139191 3.38137 0.0139191 7.51717C0.0139191 7.84015 0.275769 8.102 0.598754 8.102H1.49874V9.33534C0.626904 9.64191 0 10.4731 0 11.4484C0 12.4237 0.626904 13.2549 1.49874 13.5615V14.8857H0.598754C0.275769 14.8857 0.0139191 15.1476 0.0139191 15.4705C0.0139191 17.9587 2.03823 19.9831 4.52643 19.9831H15.4875C17.9757 19.9831 20 17.9587 20 15.4705C20 15.1475 19.7381 14.8857 19.4152 14.8857ZM18.7846 11.4484C18.7846 12.0384 18.3046 12.5183 17.7147 12.5183H7.79316C7.83777 12.3404 7.86034 12.1557 7.85952 11.9675L7.85367 10.5647C7.85336 10.4977 7.88736 10.4535 7.90767 10.4332C7.92799 10.4128 7.97204 10.3786 8.03907 10.3786H17.7147C18.3046 10.3785 18.7846 10.8585 18.7846 11.4484ZM6.68985 11.9724C6.69102 12.2513 6.58333 12.5138 6.38652 12.7114C6.1897 12.909 5.92769 13.0179 5.64877 13.0179C5.07711 13.0179 4.61002 12.5528 4.60764 11.9811L4.60168 10.5582C4.59852 9.81417 3.99064 9.20886 3.24658 9.20886H2.66841V8.10196H17.1594V9.20886H8.03907C7.676 9.20886 7.33496 9.35055 7.07881 9.6078C6.82269 9.86505 6.68244 10.2066 6.684 10.5696L6.68985 11.9724ZM4.2516 13.688C4.63295 14.0001 5.11976 14.1876 5.64877 14.1876C6.16557 14.1876 6.655 14.0116 7.04898 13.688H17.1299V14.8857H2.66841V13.688H4.2516ZM1.21037 6.93233C1.50638 3.71457 4.22068 1.1864 7.51439 1.1864H12.4497C15.7434 1.1864 18.4577 3.71457 18.7537 6.93233H1.21037ZM1.16967 11.4484C1.16967 10.8585 1.64963 10.3786 2.23953 10.3786H3.24654C3.34834 10.3786 3.43154 10.4614 3.43197 10.5632L3.43793 11.9861C3.43871 12.1696 3.46199 12.3478 3.50523 12.5183H2.23953C1.64963 12.5183 1.16967 12.0384 1.16967 11.4484ZM15.4875 18.8134H4.52647C2.88269 18.8134 1.51219 17.6207 1.23482 16.0553H18.7791C18.5017 17.6207 17.1313 18.8134 15.4875 18.8134Z" fill="#4E4E4E"/>
<path d="M7.36316 3.41491C7.68616 3.41491 7.948 3.15307 7.948 2.83007C7.948 2.50708 7.68616 2.24524 7.36316 2.24524C7.04016 2.24524 6.77832 2.50708 6.77832 2.83007C6.77832 3.15307 7.04016 3.41491 7.36316 3.41491Z" fill="#4E4E4E"/>
<path d="M12.6268 3.41491C12.9498 3.41491 13.2117 3.15307 13.2117 2.83007C13.2117 2.50708 12.9498 2.24524 12.6268 2.24524C12.3038 2.24524 12.042 2.50708 12.042 2.83007C12.042 3.15307 12.3038 3.41491 12.6268 3.41491Z" fill="#4E4E4E"/>
<path d="M9.99499 5.43332C10.318 5.43332 10.5798 5.17148 10.5798 4.84848C10.5798 4.52548 10.318 4.26364 9.99499 4.26364C9.67199 4.26364 9.41016 4.52548 9.41016 4.84848C9.41016 5.17148 9.67199 5.43332 9.99499 5.43332Z" fill="#4E4E4E"/>
</svg>
