<svg width="20" height="20" viewBox="0 0 20 20" fill="none" xmlns="http://www.w3.org/2000/svg">
<g clip-path="url(#clip0)">
<path d="M13.7538 4.75205C12.4917 5.21142 12.8431 7.42853 13.3044 8.69592C13.784 10.0136 14.9224 11.8483 16.1587 11.3983C16.4682 11.2856 16.993 10.9251 17.0291 9.77638C17.0501 9.10799 16.9006 8.29724 16.608 7.49349C16.0228 5.88576 14.88 4.34217 13.7538 4.75205ZM15.7528 10.2834C15.521 10.2071 14.876 9.58752 14.4056 8.29513C13.9337 6.99861 14.029 6.09459 14.1593 5.87127C14.3967 5.96361 15.0364 6.60181 15.5068 7.89431C15.9773 9.1867 15.8814 10.0759 15.7528 10.2834Z" fill="#4E4E4E"/>
<path d="M19.375 9.64664C19.375 8.72828 19.1797 7.70652 18.8103 6.69195C17.9159 4.23484 16.4022 2.67152 14.6875 2.38988V0H10V2.92969C10 3.90027 9.47668 4.70641 8.92262 5.55984C8.30004 6.51883 7.65625 7.51051 7.65625 8.82812V12.9891C6.40605 13.244 5.44266 14.2971 5.32469 15.5912C4.61129 16.008 4.14062 16.8047 4.14062 17.6562C4.14062 18.9486 5.19203 20 6.48438 20H19.375V9.64664ZM11.1719 1.17188H13.5156V2.34375H11.1719V1.17188ZM13.5156 18.8281H6.48438C5.8382 18.8281 5.3125 18.3024 5.3125 17.6562C5.3125 17.1474 5.63703 16.6789 6.10172 16.517L6.51359 16.3736C6.49195 15.9452 6.49941 15.9437 6.48449 15.8383C6.49582 14.8787 7.27996 14.1016 8.24219 14.1016C8.8693 14.1016 9.45355 14.448 9.76691 15.0057L9.96137 15.3517C10.5457 15.2739 10.5359 15.2734 10.5859 15.2734C11.2688 15.2734 11.895 15.6782 12.1812 16.3046L12.4367 16.864C12.8752 16.6602 13.1129 16.4453 13.5156 16.4453C14.1509 16.4453 14.6875 16.9998 14.6875 17.6562C14.6875 18.3024 14.1618 18.8281 13.5156 18.8281ZM18.2031 18.8281H15.5441C15.7442 18.4831 15.8594 18.083 15.8594 17.6562C15.8594 16.3713 14.8209 15.2734 13.5156 15.2734C13.3323 15.2734 13.1507 15.2959 12.9721 15.3404C12.4291 14.5742 11.5411 14.1016 10.5859 14.1016C10.5817 14.1016 10.5774 14.1016 10.5732 14.1016C10.1423 13.5287 9.51965 13.1341 8.82812 12.9901V8.82812C8.82812 7.85754 9.35145 7.05141 9.90551 6.19797C10.4323 5.38648 10.9743 4.55164 11.1286 3.51562H14.125C15.8696 3.51562 17.1094 5.4452 17.7091 7.09281C18.0323 7.98039 18.2031 8.86348 18.2031 9.64664V18.8281Z" fill="#4E4E4E"/>
<path d="M0.625 14.6875C0.625 15.6568 1.41355 16.4453 2.38281 16.4453C3.35207 16.4453 4.14062 15.6568 4.14062 14.6875C4.14062 13.7182 3.35207 12.9297 2.38281 12.9297C1.41355 12.9297 0.625 13.7182 0.625 14.6875ZM2.38281 14.1016C2.7059 14.1016 2.96875 14.3644 2.96875 14.6875C2.96875 15.0106 2.7059 15.2734 2.38281 15.2734C2.05973 15.2734 1.79688 15.0106 1.79688 14.6875C1.79688 14.3644 2.05973 14.1016 2.38281 14.1016Z" fill="#4E4E4E"/>
<path d="M4.14062 11.7578C5.43297 11.7578 6.48438 10.7064 6.48438 9.41406C6.48438 8.12172 5.43297 7.07031 4.14062 7.07031C2.84828 7.07031 1.79688 8.12172 1.79688 9.41406C1.79688 10.7064 2.84828 11.7578 4.14062 11.7578ZM4.14062 8.24219C4.7868 8.24219 5.3125 8.76789 5.3125 9.41406C5.3125 10.0602 4.7868 10.5859 4.14062 10.5859C3.49445 10.5859 2.96875 10.0602 2.96875 9.41406C2.96875 8.76789 3.49445 8.24219 4.14062 8.24219Z" fill="#4E4E4E"/>
</g>
<defs>
<clipPath id="clip0">
<rect width="20" height="20" fill="white"/>
</clipPath>
</defs>
</svg>
