<svg width="80" height="80" viewBox="0 0 80 80" fill="none" xmlns="http://www.w3.org/2000/svg">
<path d="M72.9688 28.9062H57.6505C59.0517 26.1881 59.8438 23.1067 59.8438 19.8438C59.8438 8.90187 50.9419 0 40 0C29.0581 0 20.1562 8.90187 20.1562 19.8438C20.1562 23.1067 20.9483 26.1881 22.3495 28.9062H7.03125C3.15422 28.9062 0 32.0605 0 35.9375V72.9688C0 75.2917 1.13312 77.3544 2.87484 78.6353C2.91937 78.6708 2.96625 78.7017 3.01281 78.7334C4.15281 79.5306 5.53781 80 7.03125 80H72.9688C74.4617 80 75.8464 79.5309 76.9863 78.7342C77.0331 78.7022 77.0805 78.6709 77.1253 78.6353C78.8669 77.3542 80 75.2917 80 72.9688V35.9375C80 32.0605 76.8458 28.9062 72.9688 28.9062ZM4.6875 72.9688V35.9375C4.6875 35.7906 4.70281 35.6473 4.72875 35.5078L28.8544 54.2691L4.74438 73.4759C4.70813 73.3125 4.6875 73.1431 4.6875 72.9688ZM32.6572 57.2328L35.6686 59.588C36.9438 60.5852 38.4719 61.0838 40.0002 61.0838C41.5284 61.0838 43.0566 60.5852 44.3317 59.588L47.343 57.2328L70.038 75.3125H9.96203L32.6572 57.2328ZM51.1456 54.2691L75.2712 35.5078C75.2972 35.6473 75.3125 35.7906 75.3125 35.9375V72.9688C75.3125 73.1431 75.2919 73.3125 75.2556 73.4759L51.1456 54.2691ZM40 4.6875C48.3572 4.6875 55.1562 11.4866 55.1562 19.8438C55.1562 28.2009 48.3572 35 40 35C31.6428 35 24.8438 28.2009 24.8438 19.8438C24.8438 11.4866 31.6428 4.6875 40 4.6875ZM40 39.6875C45.6089 39.6875 50.6811 37.3478 54.2936 33.5938H70.0967L45.9123 52.4008L41.4439 55.8955C40.5938 56.5605 39.4062 56.5603 38.5561 55.8955L34.0825 52.3967L9.90312 33.5938H25.7063C29.3189 37.3478 34.3911 39.6875 40 39.6875Z" fill="#4F4F4F"/>
<path d="M40 29.8438C41.2944 29.8438 42.3438 28.7944 42.3438 27.5V20C42.3438 18.7056 41.2944 17.6562 40 17.6562C38.7056 17.6562 37.6562 18.7056 37.6562 20V27.5C37.6562 28.7944 38.7056 29.8438 40 29.8438Z" fill="#4F4F4F"/>
<path d="M40 14.8439C41.2944 14.8439 42.3438 13.7945 42.3438 12.5001C42.3438 11.2057 41.2944 10.1564 40 10.1564C38.7056 10.1564 37.6562 11.2057 37.6562 12.5001C37.6562 13.7945 38.7056 14.8439 40 14.8439Z" fill="#4F4F4F"/>
</svg>
