<svg width="20" height="20" viewBox="0 0 20 20" fill="none" xmlns="http://www.w3.org/2000/svg">
<path d="M10.4159 7.25722C9.91488 6.90452 9.32434 7.11616 8.69902 7.34023C8.24898 7.50148 7.73895 7.68429 7.22656 7.68429C6.71418 7.68429 6.2041 7.50148 5.7541 7.34023C5.12883 7.11612 4.53824 6.90456 4.03719 7.25722C3.56969 7.58632 3.51562 8.22425 3.51562 8.67546C3.51562 11.0214 5.18035 12.9299 7.22656 12.9299C9.27277 12.9299 10.9375 11.0214 10.9375 8.67546C10.9375 8.22425 10.8834 7.58632 10.4159 7.25722ZM7.22656 11.758C5.82652 11.758 4.6875 10.3752 4.6875 8.67546C4.6875 8.44632 4.70824 8.31609 4.72574 8.24691C4.87559 8.27026 5.1493 8.36831 5.35875 8.44339C5.87191 8.6273 6.51051 8.85612 7.22656 8.85612C7.94262 8.85612 8.58121 8.6273 9.09437 8.44339C9.30383 8.36831 9.57754 8.27023 9.72738 8.24691C9.74488 8.31609 9.76562 8.44628 9.76562 8.67546C9.76562 10.3752 8.6266 11.758 7.22656 11.758Z" fill="#4E4E4E"/>
<path d="M19.7093 11.8498C19.8967 11.363 20 10.8322 20 10.2768C20 9.84168 19.9461 9.22379 19.4797 8.88289C18.9586 8.50203 18.2984 8.71227 17.5995 8.93488C17.0834 9.0993 16.4984 9.28563 15.8985 9.28563C15.2986 9.28563 14.7136 9.09926 14.1974 8.93488C13.881 8.8341 13.5725 8.73602 13.2813 8.69398V5.08141L14.3723 3.22676C14.4252 3.13672 14.4531 3.03418 14.4531 2.92969V0.585938C14.4531 0.262344 14.1908 0 13.8672 0H0.585938C0.262344 0 0 0.262344 0 0.585938V2.92969C0 3.03418 0.0279297 3.13672 0.0808984 3.22676L1.17188 5.08145V14.9186L0.0808984 16.7732L0.0813672 16.7735C0.03 16.8606 0 16.9618 0 17.0703V19.4141C0 19.7377 0.262344 20 0.585938 20H13.8672C14.0879 20 14.2799 19.8779 14.3798 19.6976C14.8498 19.8925 15.3622 20 15.8984 20C18.16 20 20 18.0915 20 15.7456C20 15.2407 19.902 14.8532 19.7093 14.5842C19.8967 14.0974 20 13.5666 20 13.0112C20 12.5063 19.902 12.1188 19.7093 11.8498ZM15.8984 16.0938C14.3634 16.0938 13.1012 14.8449 12.9793 13.2622C13.7236 14.0451 14.7572 14.5312 15.8984 14.5312C17.0396 14.5312 18.0733 14.0451 18.8176 13.2622C18.6957 14.8449 17.4335 16.0938 15.8984 16.0938ZM11.8589 16.4844H1.61043L2.26289 15.3752C2.31582 15.2852 2.34375 15.1826 2.34375 15.0781V4.92188C2.34375 4.81738 2.31582 4.71484 2.26285 4.6248L1.61043 3.51562H12.8427L12.1903 4.6248C12.1373 4.71484 12.1094 4.81738 12.1094 4.92188V9.08395C11.8339 9.43363 11.7969 9.9175 11.7969 10.2768C11.7969 10.8322 11.9002 11.363 12.0876 11.8498C11.8948 12.1188 11.7969 12.5063 11.7969 13.0112C11.7969 13.5666 11.9002 14.0974 12.0876 14.5842C11.8948 14.8532 11.7969 15.2407 11.7969 15.7456C11.7969 15.9975 11.8182 16.2443 11.8589 16.4844ZM15.8984 10.4575C16.6805 10.4575 17.3873 10.2324 17.9552 10.0515C18.237 9.96172 18.6128 9.84203 18.7765 9.84203H18.7798C18.7986 9.89715 18.8281 10.0239 18.8281 10.2768C18.8281 11.9766 17.5139 13.3594 15.8984 13.3594C14.283 13.3594 12.9688 11.9766 12.9688 10.2768C12.9688 10.0239 12.9982 9.89715 13.0171 9.84203C13.1804 9.84121 13.558 9.96113 13.8417 10.0515C14.4096 10.2324 15.1164 10.4575 15.8984 10.4575ZM13.2812 1.17188V2.34375H1.17188V1.17188H13.2812ZM1.17188 18.8281V17.6562H12.2345C12.4484 18.0959 12.7336 18.492 13.0744 18.8281H1.17188ZM15.8984 18.8281C14.3634 18.8281 13.1012 17.5793 12.9793 15.9966C13.7236 16.7795 14.7572 17.2656 15.8984 17.2656C17.0396 17.2656 18.0733 16.7795 18.8176 15.9966C18.6957 17.5793 17.4335 18.8281 15.8984 18.8281Z" fill="#4E4E4E"/>
</svg>
