<svg width="20" height="20" viewBox="0 0 20 20" fill="none" xmlns="http://www.w3.org/2000/svg">
<path d="M7.03125 7.14426V3.51562C7.35484 3.51562 7.61719 3.25328 7.61719 2.92969V0.585938C7.61719 0.262344 7.35484 0 7.03125 0H3.51562C3.19203 0 2.92969 0.262344 2.92969 0.585938V2.92969C2.92969 3.25328 3.19203 3.51562 3.51562 3.51562V7.14555C3.51562 8.03668 3.22836 8.89211 2.68492 9.61941C1.46008 11.2586 0 13.6785 0 15.8984C0 18.7394 1.33762 19.8288 1.39457 19.8738C1.49805 19.9555 1.62598 20 1.75781 20C2.7707 20 3.26855 19.8271 3.70781 19.6746C4.11047 19.5348 4.4582 19.4141 5.27344 19.4141C6.08867 19.4141 6.43641 19.5348 6.83906 19.6746C7.27832 19.8271 7.77617 20 8.78906 20C8.9209 20 9.04883 19.9555 9.1523 19.8738C9.20926 19.8288 10.5469 18.7394 10.5469 15.8984C10.5469 13.6754 9.08742 11.257 7.86313 9.61965C7.31891 8.89184 7.03125 8.03586 7.03125 7.14426ZM4.10156 1.17188H6.44531V2.34375H4.10156V1.17188ZM8.54898 18.8243C7.90078 18.8028 7.58414 18.6928 7.2234 18.5675C6.78418 18.4151 6.28633 18.2422 5.27344 18.2422C4.26055 18.2422 3.7627 18.4151 3.32344 18.5676C2.96273 18.6929 2.64605 18.8028 1.99785 18.8243C1.73535 18.5139 1.17188 17.6444 1.17188 15.8984C1.17188 13.9003 2.70801 11.5462 3.62367 10.3209C4.31965 9.38945 4.6875 8.29144 4.6875 7.14555V3.51562H5.85938V7.14426C5.85938 8.29078 6.22773 9.38941 6.92461 10.3214C7.83973 11.5453 9.375 13.8973 9.375 15.8984C9.375 17.6444 8.81152 18.5139 8.54898 18.8243Z" fill="#4E4E4E"/>
<path d="M2.9292 14.7266C2.9292 16.0189 3.98061 17.0703 5.27295 17.0703C6.56529 17.0703 7.6167 16.0189 7.6167 14.7266C7.6167 13.4342 6.56529 12.3828 5.27295 12.3828C3.98061 12.3828 2.9292 13.4342 2.9292 14.7266ZM6.44482 14.7266C6.44482 15.3727 5.91912 15.8984 5.27295 15.8984C4.62678 15.8984 4.10107 15.3727 4.10107 14.7266C4.10107 14.0804 4.62678 13.5547 5.27295 13.5547C5.91912 13.5547 6.44482 14.0804 6.44482 14.7266Z" fill="#4E4E4E"/>
<path d="M18.8281 7.13203V5.27344C18.8281 4.94984 18.5658 4.6875 18.2422 4.6875H17.5875L17.0658 0.513242C17.0291 0.220039 16.7798 0 16.4844 0C16.0726 0 12.7765 0 12.3828 0C10.7674 0 9.45312 1.31426 9.45312 2.92969C9.45312 4.54512 10.7674 5.85938 12.3828 5.85938H12.9688V7.13203C12.2868 7.37391 11.7969 8.0252 11.7969 8.78906V18.2422C11.7969 19.2114 12.5854 20 13.5547 20H18.2422C19.2114 20 20 19.2114 20 18.2422V8.78906C20 8.0252 19.5101 7.37391 18.8281 7.13203ZM17.6562 7.03125H14.1406V5.85938H17.6562V7.03125ZM16.4066 4.6875H15.3903L15.8298 1.17188H15.9671L16.4066 4.6875ZM10.625 2.92969C10.625 1.96043 11.4136 1.17188 12.3828 1.17188H14.6488L14.2093 4.6875C13.5822 4.6875 13.0224 4.6875 12.3828 4.6875C11.4136 4.6875 10.625 3.89895 10.625 2.92969ZM18.8281 18.2422C18.8281 18.5653 18.5653 18.8281 18.2422 18.8281H13.5547C13.2316 18.8281 12.9688 18.5653 12.9688 18.2422V8.78906C12.9688 8.46598 13.2316 8.20312 13.5547 8.20312H18.2422C18.5653 8.20312 18.8281 8.46598 18.8281 8.78906V18.2422Z" fill="#4E4E4E"/>
</svg>
