<svg width="20" height="20" viewBox="0 0 20 20" fill="none" xmlns="http://www.w3.org/2000/svg">
<path d="M17.8184 11.1835L17.27 7.10938H11.5577L11.0093 11.1835C10.6349 13.1113 11.9316 14.9406 13.8279 15.2631V18.8281H11.4842V20H17.3436V18.8281H14.9998V15.2631C16.8977 14.9403 18.1926 13.1096 17.8184 11.1835ZM16.2452 8.28125L16.403 9.45312H12.4248L12.5825 8.28125H16.2452ZM12.1623 11.3942L12.166 11.3759L12.267 10.625H16.5608L16.6594 11.3574L16.6655 11.3942C16.9499 12.8165 15.8615 14.1406 14.4139 14.1406C12.9634 14.1406 11.8785 12.8136 12.1623 11.3942Z" fill="#4E4E4E"/>
<path d="M4.45312 0V5.1088L3.3107 6.25122C2.53601 7.02591 2.10938 8.05603 2.10938 9.15146V20H10.3125V9.15146C10.3125 8.05603 9.88586 7.02591 9.11118 6.25122L7.96875 5.1088V0L4.45312 0ZM5.625 1.17188H6.79688V4.76562H5.625V1.17188ZM3.28125 15.3125H6.79688V16.4844H3.28125V15.3125ZM6.79688 15.3125H3.28125V10.625H6.79688V15.3125ZM9.14062 9.15146V18.8281H3.28125V17.6562H7.96875V9.45312H3.28125V9.15146C3.28125 8.36899 3.58597 7.63321 4.1394 7.07993L5.28183 5.9375H7.14005L8.28247 7.07993C8.83591 7.63321 9.14062 8.36899 9.14062 9.15146Z" fill="#4E4E4E"/>
</svg>
