<svg width="20" height="20" viewBox="0 0 20 20" fill="none" xmlns="http://www.w3.org/2000/svg">
<g clip-path="url(#clip0)">
<path d="M3.80795 13.2865C4.1391 14.6821 4.94696 15.941 6.08332 16.831C6.16676 16.8962 6.26532 16.9277 6.36385 16.9277C6.4988 16.9277 6.63197 16.8678 6.72163 16.7533C6.8761 16.5558 6.8415 16.2703 6.64437 16.1154C5.66959 15.3515 4.97623 14.2724 4.69213 13.077C4.63443 12.8324 4.39205 12.681 4.14527 12.7396C3.90114 12.7974 3.75025 13.0424 3.80795 13.2865Z" fill="#4E4E4E"/>
<path d="M19.8182 1.90972C19.7037 1.82449 19.5598 1.79654 19.4196 1.83557L9.81456 4.57956C9.69989 4.35972 9.5527 4.19311 9.42772 4.05546C9.42052 4.04758 9.41583 4.04102 9.4088 4.03331L19.6611 1.34816C19.8609 1.29532 20.0002 1.11422 20.0002 0.907371L19.9993 0.453711C19.9993 0.311212 19.9319 0.177151 19.8182 0.0914984C19.7037 0.0058459 19.5598 -0.0212561 19.4196 0.0173515L0.329808 5.47103C0.0910035 5.53985 -0.0492791 5.78799 0.0164304 6.02812C0.0714866 6.2301 0.25434 6.3628 0.455005 6.3628C0.493186 6.3628 0.531368 6.3579 0.570401 6.34814L3.61613 5.55046C3.57382 5.74845 3.46298 5.87496 3.30033 6.05385C3.18088 6.1854 3.03975 6.34171 2.92734 6.54714L0.329808 7.28917C0.0910035 7.35799 -0.0492791 7.60613 0.0164304 7.84625C0.0714866 8.04824 0.25434 8.18093 0.455005 8.18093C0.493186 8.18093 0.531368 8.17603 0.570401 8.16628L2.7565 7.59372C2.82515 8.11484 3.09012 8.43423 3.30033 8.66566C3.50986 8.89692 3.6368 9.03631 3.6368 9.36124C3.6368 9.68659 3.50986 9.82598 3.30033 10.0572C3.11965 10.2562 2.88907 10.5106 2.78433 10.9091H2.27314C2.02189 10.9091 1.81858 11.1124 1.81858 11.3636V11.8182C1.81858 15.0827 3.74512 17.8987 6.51702 19.2104C6.42451 19.2936 6.364 19.4111 6.364 19.5454C6.364 19.7967 6.56731 20 6.81856 20H13.1821C13.4334 20 13.6367 19.7967 13.6367 19.5454C13.6367 19.4111 13.5761 19.2936 13.4836 19.2104C16.2556 17.8988 18.1821 15.0827 18.1821 11.8182V11.3636C18.1821 11.1124 17.9788 10.9091 17.7275 10.9091H9.2308C9.28428 10.832 9.34765 10.7564 9.42772 10.6681C9.6692 10.4021 10.0004 10.0377 10.0004 9.36124C10.0004 8.68518 9.6692 8.32075 9.42772 8.05488C9.21819 7.82362 9.09124 7.68424 9.09124 7.35931C9.09124 7.03528 9.21819 6.89589 9.42772 6.66552C9.62276 6.4508 9.8674 6.16265 9.95765 5.70771L19.6611 3.16634C19.8609 3.1135 20.0002 2.93239 20.0002 2.72555L19.9993 2.27189C19.9993 2.12943 19.9319 1.99537 19.8182 1.90972ZM8.45588 4.28289C8.55329 4.4317 8.65829 4.56086 8.75477 4.66713C8.8114 4.72944 8.86071 4.78517 8.90443 4.83959L8.1448 5.05658C8.1004 4.79975 8.01241 4.59431 7.90187 4.42799L8.45588 4.28289ZM7.60954 6.66552C7.71514 6.54927 7.83513 6.40784 7.93984 6.23624L8.79031 6.01346C8.77778 6.02735 8.76794 6.03932 8.75473 6.05385C8.51324 6.31976 8.18209 6.68372 8.18209 7.35931C8.18209 8.03537 8.51324 8.3998 8.75473 8.66566C8.96426 8.89692 9.0912 9.03631 9.0912 9.36124C9.0912 9.68659 8.96426 9.82598 8.75473 10.0572C8.57405 10.2562 8.34347 10.5106 8.23872 10.9091H7.41258C7.46606 10.832 7.52943 10.7564 7.6095 10.6681C7.85099 10.4021 8.18213 10.0377 8.18213 9.36124C8.18213 8.68518 7.85099 8.32075 7.6095 8.05488C7.39997 7.82362 7.27303 7.68424 7.27303 7.35931C7.27307 7.03528 7.40005 6.89589 7.60954 6.66552ZM6.94678 4.67813C7.13722 4.88753 7.253 5.02965 7.26731 5.30727L6.33792 5.57275C6.3464 5.50163 6.364 5.43988 6.364 5.36045C6.364 5.16102 6.33004 4.9985 6.28521 4.85135L6.94678 4.67813ZM6.54008 6.6028C6.43921 6.80368 6.364 7.04525 6.364 7.35931C6.364 8.03537 6.69515 8.3998 6.93664 8.66566C7.14617 8.89692 7.27311 9.03631 7.27311 9.36124C7.27311 9.68659 7.14617 9.82598 6.93664 10.0572C6.75596 10.2562 6.52538 10.5106 6.42063 10.9091H5.59449C5.64797 10.832 5.71134 10.7564 5.79141 10.6681C6.0329 10.4021 6.36404 10.0377 6.36404 9.36124C6.36404 8.68518 6.0329 8.32075 5.79141 8.05488C5.58188 7.82362 5.45494 7.68424 5.45494 7.35931C5.45494 7.12298 5.52384 6.98491 5.64171 6.83806L6.54008 6.6028ZM4.53828 5.30893L5.40768 5.08121C5.43631 5.16025 5.45489 5.24757 5.45489 5.36045C5.45489 5.59453 5.38671 5.73221 5.27068 5.87765L4.36152 6.13733C4.46737 5.93322 4.54578 5.68418 4.54578 5.36049C4.54583 5.34179 4.53879 5.3273 4.53828 5.30893ZM4.57557 7.11735C4.5647 7.19721 4.54583 7.26884 4.54583 7.35931C4.54583 8.03537 4.87697 8.3998 5.11846 8.66566C5.32799 8.89692 5.45494 9.03631 5.45494 9.36124C5.45494 9.68659 5.32799 9.82598 5.11846 10.0572C4.93778 10.2562 4.7072 10.5106 4.60246 10.9091H3.77632C3.8298 10.832 3.89316 10.7564 3.97323 10.6681C4.21472 10.4021 4.54587 10.0377 4.54587 9.36124C4.54587 8.68518 4.21472 8.32075 3.97323 8.05488C3.76464 7.8246 3.63825 7.68492 3.63714 7.3631L4.57557 7.11735ZM17.273 11.8182C17.273 15.8283 14.0104 19.0909 10.0003 19.0909C5.99024 19.0909 2.72769 15.8283 2.72769 11.8182H17.273Z" fill="#4E4E4E"/>
</g>
<defs>
<clipPath id="clip0">
<rect width="20" height="20" fill="white"/>
</clipPath>
</defs>
</svg>
