<svg width="20" height="20" viewBox="0 0 20 20" fill="none" xmlns="http://www.w3.org/2000/svg">
<g clip-path="url(#clip0)">
<path d="M17.4784 16.4516C18.3521 13.2432 18.4131 10.2104 17.6605 7.39736C17.9228 7.18216 18.0904 6.85568 18.0904 6.49072V3.98946H15.9934C15.4502 3.20368 14.5617 2.42395 13.3331 1.65731C11.7924 0.695861 10.2753 0.106133 10.2115 0.0814845L10.0005 0L9.78941 0.0814845C9.72558 0.106094 8.20855 0.695861 6.6678 1.65731C5.43921 2.42399 4.55073 3.20368 4.00756 3.98946H1.91057V6.49072C1.91057 6.85568 2.07822 7.18216 2.34049 7.39736C1.58783 10.2104 1.64889 13.2432 2.52264 16.4516C1.90354 16.8585 1.49365 17.5588 1.49365 18.3534V20H18.5074V18.3534C18.5074 17.5588 18.0975 16.8585 17.4784 16.4516ZM7.2748 2.66059C8.39917 1.95723 9.54058 1.45356 10.0005 1.26125C10.4606 1.45356 11.602 1.95727 12.7263 2.66055C13.4348 3.10372 14.015 3.55114 14.4559 3.98942H5.54515C5.98608 3.55118 6.56628 3.10372 7.2748 2.66059ZM3.08303 5.16192H16.9183L16.9188 6.49068C16.9188 6.49068 16.9186 6.49072 16.9181 6.49072H3.08303V5.16192ZM17.335 18.8276H2.66612V18.3534C2.66612 17.7457 3.16053 17.2513 3.76827 17.2513H4.58112V16.0788C4.58112 16.0788 3.68151 16.0803 3.63854 16.0828C2.83287 13.0865 2.78076 10.2664 3.48397 7.66314H16.5171C17.2202 10.2664 17.1681 13.0865 16.3625 16.0828C16.3195 16.0803 15.4199 16.0788 15.4199 16.0788V17.2513H16.2328C16.8405 17.2513 17.3349 17.7457 17.3349 18.3534V18.8276H17.335Z" fill="#4E4E4E"/>
<path d="M13.813 11.0943L13.7863 10.7391L13.4589 10.5991C13.2667 10.517 11.5491 9.81988 10.4218 10.6263C10.2556 10.7452 10.1164 10.8868 9.99952 11.0425C9.88268 10.8869 9.74342 10.7452 9.57725 10.6263C8.44998 9.81992 6.73232 10.517 6.54017 10.5991L6.21275 10.7391L6.18603 11.0943C6.17041 11.3027 6.0656 13.1533 7.19291 13.9597C7.59756 14.2491 8.07822 14.3448 8.53717 14.3448C8.84967 14.3448 9.15194 14.3004 9.4133 14.2426V15.996H10.5858V14.2426C10.8471 14.3004 11.1494 14.3448 11.4619 14.3448C11.9207 14.3448 12.4016 14.2491 12.8062 13.9597C13.9335 13.1533 13.8286 11.3027 13.813 11.0943ZM7.87498 13.0061C7.49353 12.7332 7.37728 12.0336 7.35424 11.5543C7.8385 11.415 8.52912 11.3181 8.89514 11.58C9.27619 11.8525 9.3926 12.5511 9.41581 13.0302C8.95432 13.1632 8.25592 13.2786 7.87498 13.0061ZM12.124 13.0061C11.745 13.2772 11.0519 13.1644 10.5908 13.0324C10.5899 13.0036 10.5887 12.9738 10.5871 12.9431C10.622 12.4507 10.7585 11.827 11.1039 11.58C11.4854 11.3071 12.1851 11.4231 12.6461 11.5561C12.6215 12.0594 12.49 12.7443 12.124 13.0061Z" fill="#4E4E4E"/>
</g>
<defs>
<clipPath id="clip0">
<rect width="20" height="20" fill="white"/>
</clipPath>
</defs>
</svg>
