<svg width="20" height="20" viewBox="0 0 20 20" fill="none" xmlns="http://www.w3.org/2000/svg">
<path d="M10.625 6.43031L9.45312 2.8366V0H1.17188V2.8366L0 6.43031V20H10.625V6.43031ZM2.34375 1.17188H8.28125V2.34375H2.34375V1.17188ZM2.18305 3.51562H8.44199L9.23172 5.9375H1.39328L2.18305 3.51562ZM9.45312 18.8281H1.17188V17.6562H9.45312V18.8281ZM9.45312 17.6562H5.3125H1.17188V7.10938H9.45312V17.6562Z" fill="#4E4E4E"/>
<path d="M5.3125 15.3125C6.93191 15.3125 8.28125 14.0026 8.28125 12.3828C8.28125 10.9441 7.22289 9.77574 5.89844 9.51109V8.28125H4.72656V9.51109C3.40297 9.77555 2.34375 10.9433 2.34375 12.3828C2.34375 14.0022 3.69273 15.3125 5.3125 15.3125ZM5.3125 10.625C6.28652 10.625 7.10938 11.43 7.10938 12.3828C7.10938 13.3357 6.28652 14.1406 5.3125 14.1406C4.33848 14.1406 3.51562 13.3357 3.51562 12.3828C3.51562 11.43 4.33848 10.625 5.3125 10.625Z" fill="#4E4E4E"/>
<path d="M15.9096 10.6128C15.5781 10.0733 15.2129 9.6968 15.1409 9.62477L14.3114 10.4526C14.5265 10.6694 15.0064 11.252 15.2137 11.8544C13.277 12.1812 11.7969 13.8701 11.7969 15.8984C11.7969 18.16 13.6368 20 15.8984 20C18.16 20 20 18.16 20 15.8984C20 14.577 19.3717 13.3998 18.3983 12.6491C19.3479 12.164 20 11.1766 20 10.0391V9.45312H18.2422C17.2913 9.45312 16.4452 9.90875 15.9096 10.6128ZM18.8281 15.8984C18.8281 17.5139 17.5139 18.8281 15.8984 18.8281C14.283 18.8281 12.9688 17.5139 12.9688 15.8984C12.9688 14.283 14.283 12.9688 15.8984 12.9688C17.5139 12.9688 18.8281 14.283 18.8281 15.8984ZM17.0703 11.7969H16.5848C16.8266 11.1148 17.4782 10.6246 18.2422 10.6246H18.7277C18.4859 11.3067 17.8343 11.7969 17.0703 11.7969Z" fill="#4E4E4E"/>
</svg>
