<svg width="20" height="20" viewBox="0 0 20 20" fill="none" xmlns="http://www.w3.org/2000/svg">
<g clip-path="url(#clip0)">
<path d="M18.8696 13.0753C18.8153 13.007 18.7581 12.9488 18.7062 12.897L15.3513 9.55314V2.4607H8.20297V0.0388193H0V10.5071C6.34705 16.8717 5.86105 16.3844 5.88669 16.4101C5.88821 16.4117 6.30508 16.8276 6.30508 16.8276L6.33148 16.8011C7.03079 17.3303 7.88437 17.6167 8.78891 17.6167C9.6228 17.6167 10.426 17.3634 11.1011 16.9024L13.4534 19.2495L13.4799 19.223C14.1791 19.7521 15.0327 20.0384 15.9372 20.0384C17.1362 20.0384 18.2721 19.5153 19.0544 18.6028C20.3831 17.0481 20.3024 14.6755 18.8696 13.0753ZM17.5983 13.4472L13.4525 17.5932L11.9649 16.1088C13.231 14.5536 13.1323 12.2294 11.7213 10.6535C11.6672 10.5851 11.61 10.5271 11.5579 10.4752L9.39545 8.31993H14.1794V10.0396L17.5983 13.4472ZM1.17188 7.06992V5.97617H7.0311V7.61772L10.45 11.0255L6.30417 15.1713L3.91342 12.7857C4.41055 12.1662 4.68735 11.3918 4.68735 10.5856C4.68735 8.64707 3.11035 7.06992 1.17188 7.06992ZM1.17188 4.8043V3.63242H7.0311V4.8043H1.17188ZM14.1794 7.14805H8.21976L8.20297 7.13142V5.97617H14.1794V7.14805ZM14.1794 3.63242V4.8043H8.20297V3.63242H14.1794ZM7.0311 1.2107V2.4607H1.17188V1.2107H7.0311ZM1.17188 10.0402V8.2418C2.46414 8.2418 3.51562 9.29313 3.51562 10.5854C3.51562 11.0796 3.35892 11.5557 3.07617 11.9503L1.17188 10.0402ZM7.17178 15.9609L11.2102 11.9224C11.8921 13.041 11.8385 14.4563 11.0158 15.4189C10.457 16.0708 9.64539 16.4448 8.78891 16.4448C8.19992 16.4448 7.64236 16.2756 7.17178 15.9609ZM18.1641 17.8408C17.6053 18.4927 16.7937 18.8667 15.9372 18.8667C15.3484 18.8667 14.7906 18.6974 14.3201 18.3827L18.3585 14.3443C19.0404 15.4627 18.987 16.8781 18.1641 17.8408Z" fill="#4E4E4E"/>
</g>
<defs>
<clipPath id="clip0">
<rect width="20" height="20" fill="white"/>
</clipPath>
</defs>
</svg>
