<svg width="20" height="20" viewBox="0 0 20 20" fill="none" xmlns="http://www.w3.org/2000/svg">
<path d="M18.9943 9.73608C18.2486 9.12183 17.1116 8.90613 15.646 9.05326C15.6888 8.65758 15.7145 8.25903 15.7145 7.85763C15.7145 7.46337 15.3945 7.14339 15.0003 7.14339H0.715462C0.321201 7.14339 0.0012207 7.46337 0.0012207 7.85763C0.0012207 9.37753 0.315487 10.856 0.932591 12.2488L2.04824 14.7615C2.58677 15.97 2.85818 17.2513 2.85818 18.5712V19.2855C2.85818 19.6797 3.17816 19.9997 3.57243 19.9997H12.1433C12.5376 19.9997 12.8576 19.6797 12.8576 19.2855V18.5712C12.8576 17.8341 12.9518 17.1113 13.1204 16.4028C13.7418 16.1285 14.5703 15.9971 15.3888 15.8771C17.3344 15.5928 20 15.2029 20 12.1431C20 11.096 19.6628 10.286 18.9943 9.73608ZM12.3619 14.1801C11.7433 15.5728 11.4291 17.0513 11.4291 18.5712H4.28667C4.28667 17.0513 3.9724 15.5728 3.3553 14.1801L2.23822 11.6674C1.79968 10.6789 1.53684 9.64037 1.45684 8.57187H14.2603C14.1789 9.64037 13.9175 10.6789 13.4775 11.6674L12.3619 14.1801ZM15.1817 14.4643C14.6803 14.5372 14.1718 14.6143 13.6832 14.7258L14.7832 12.2502C15.0317 11.6888 15.2174 11.1117 15.3674 10.526C16.6259 10.336 17.593 10.4346 18.0858 10.8389C18.4129 11.1074 18.5715 11.5345 18.5715 12.1431C18.5715 13.7944 17.5373 14.1187 15.1817 14.4643Z" fill="#4E4E4E"/>
<path d="M12.7662 2.50869C12.2919 1.66445 12.5891 1.28591 12.6362 1.23305C12.9133 0.968784 12.9348 0.53024 12.6776 0.241687C12.4134 -0.0554373 11.9605 -0.08115 11.6691 0.181691C11.6191 0.227402 10.4478 1.30019 11.5206 3.20864C12.0048 4.06859 11.6863 4.44571 11.6691 4.46714C11.3749 4.72998 11.3463 5.18138 11.6091 5.47564C11.7505 5.63421 11.9463 5.71563 12.1434 5.71563C12.3119 5.71563 12.4819 5.65563 12.6176 5.53564C12.6676 5.49136 13.839 4.41714 12.7662 2.50869Z" fill="#4E4E4E"/>
<path d="M7.76644 2.50869C7.29219 1.66445 7.58931 1.28591 7.63645 1.23305C7.91358 0.968784 7.935 0.53024 7.67788 0.241687C7.41504 -0.0554373 6.96221 -0.08115 6.66937 0.181691C6.61937 0.227402 5.44802 1.30019 6.52081 3.20864C7.00506 4.06859 6.68651 4.44571 6.66937 4.46714C6.3751 4.72998 6.34653 5.18138 6.60937 5.47564C6.75079 5.63421 6.9465 5.71563 7.14363 5.71563C7.31219 5.71563 7.48218 5.65563 7.61788 5.53564C7.66788 5.49136 8.83923 4.41714 7.76644 2.50869Z" fill="#4E4E4E"/>
<path d="M2.76669 2.50869C2.29243 1.66445 2.58956 1.28591 2.6367 1.23305C2.91383 0.968784 2.93525 0.53024 2.67813 0.241687C2.41528 -0.0554373 1.96103 -0.08115 1.66962 0.181691C1.61962 0.227402 0.448262 1.30019 1.52105 3.20864C2.00531 4.06859 1.68676 4.44571 1.66962 4.46714C1.37535 4.72998 1.34678 5.18138 1.60962 5.47564C1.75104 5.63421 1.94674 5.71563 2.14387 5.71563C2.31243 5.71563 2.48242 5.65563 2.61813 5.53564C2.66813 5.49136 3.83948 4.41714 2.76669 2.50869Z" fill="#4E4E4E"/>
</svg>
