<svg width="12" height="8" viewBox="0 0 12 8" fill="none" xmlns="http://www.w3.org/2000/svg">
<path d="M5.53176 0.666667L0.191706 6.00682C0.068097 6.13033 0 6.29521 0 6.47101C0 6.64681 0.068097 6.81169 0.191706 6.9352L0.584873 7.32847C0.841066 7.58437 1.25745 7.58437 1.51326 7.32847L5.99751 2.84421L10.4867 7.33344C10.6104 7.45695 10.7751 7.52515 10.9508 7.52515C11.1267 7.52515 11.2915 7.45695 11.4152 7.33344L11.8083 6.94018C11.9319 6.81657 12 6.65179 12 6.47598C12 6.30018 11.9319 6.1353 11.8083 6.01179L6.46336 0.666667C6.33936 0.542863 6.1738 0.474864 5.99781 0.475254C5.82112 0.474864 5.65566 0.542863 5.53176 0.666667Z" fill="#2A2A2A"/>
</svg>
