<svg width="26" height="26" viewBox="0 0 26 26" fill="none" xmlns="http://www.w3.org/2000/svg">
<g clip-path="url(#clip0)">
<path d="M23.7148 6.14453H19.312L18.7444 3.30672C18.6025 2.59711 17.9742 2.08203 17.2505 2.08203H8.74946C8.02582 2.08203 7.39751 2.59711 7.25563 3.30672L6.68804 6.14453H2.28516C1.02512 6.14453 0 7.16965 0 8.42969V21.6328C0 22.8928 1.02512 23.918 2.28516 23.918H23.7148C24.9749 23.918 26 22.8928 26 21.6328V8.42969C26 7.16965 24.9749 6.14453 23.7148 6.14453ZM8.74946 3.60547H17.2505L17.7584 6.14453H8.24164L8.74946 3.60547ZM24.4766 21.6328C24.4766 22.0528 24.1349 22.3945 23.7148 22.3945H2.28516C1.86514 22.3945 1.52344 22.0528 1.52344 21.6328V8.42969C1.52344 8.00968 1.86514 7.66797 2.28516 7.66797H23.7148C24.1349 7.66797 24.4766 8.00968 24.4766 8.42969V21.6328Z" fill="#931515"/>
<path d="M13 9.39453C9.89188 9.39453 7.36328 11.9231 7.36328 15.0312C7.36328 18.1394 9.89188 20.668 13 20.668C16.1081 20.668 18.6367 18.1394 18.6367 15.0312C18.6367 11.9231 16.1081 9.39453 13 9.39453ZM13 19.1445C10.7319 19.1445 8.88672 17.2993 8.88672 15.0312C8.88672 12.7632 10.7319 10.918 13 10.918C15.2681 10.918 17.1133 12.7632 17.1133 15.0312C17.1133 17.2993 15.2681 19.1445 13 19.1445Z" fill="#931515"/>
<path d="M6.5 9.39453H4.0625C3.64183 9.39453 3.30078 9.73558 3.30078 10.1562C3.30078 10.5769 3.64183 10.918 4.0625 10.918H6.5C6.92067 10.918 7.26172 10.5769 7.26172 10.1562C7.26172 9.73558 6.92067 9.39453 6.5 9.39453Z" fill="#931515"/>
</g>
<defs>
<clipPath id="clip0">
<rect width="26" height="26" fill="white"/>
</clipPath>
</defs>
</svg>
