<svg width="50" height="50" viewBox="0 0 50 50" fill="none" xmlns="http://www.w3.org/2000/svg">
<g clip-path="url(#clip0)">
<path d="M48.9567 3.32516L30.6742 16.5425L27.6742 18.7164C26.0849 19.8905 23.9156 19.8905 22.3263 18.7164L19.3263 16.5425L1.02197 3.34687C2.04008 1.92309 3.68467 1.08046 5.43505 1.08596H44.5655C46.303 1.08749 47.935 1.91973 48.9567 3.32516Z" fill="#FFD54F"/>
<path d="M1.02182 3.34961L19.3262 16.5452L1.58707 34.2843C0.568457 33.2632 -0.00250009 31.8789 4.74646e-05 30.4365V6.52355C-0.00474193 5.38388 0.353036 4.27233 1.02182 3.34961Z" fill="#FFC107"/>
<path d="M49.9999 6.52182V30.4349C50.0024 31.8773 49.4315 33.2615 48.4129 34.2827L30.6738 16.5436L48.9564 3.32617C49.6351 4.25328 50.0006 5.37267 49.9999 6.52182Z" fill="#FFC107"/>
<path d="M32.6087 40.2176C31.1652 40.2176 30.4348 39.1307 30.4348 36.9568C30.4703 33.9194 28.0369 31.4284 24.9995 31.3928C21.9621 31.3573 19.4711 33.7907 19.4356 36.8281C19.4 39.8655 21.8334 42.3565 24.8708 42.392C26.4987 42.4111 28.0514 41.708 29.1109 40.472C29.8326 41.7089 31.1776 42.447 32.6087 42.3915C36.9565 42.3915 36.9565 38.3003 36.9565 36.9568C36.9566 30.3534 31.6036 25.0002 25.0002 25C18.3969 24.9998 13.0437 30.3529 13.0435 36.9564C13.0434 43.5597 18.3964 48.913 24.9997 48.9132C28.1021 48.9133 31.0832 47.7073 33.313 45.5504C33.7447 45.1301 33.7538 44.4397 33.3337 44.008C32.9134 43.5763 32.223 43.5672 31.7913 43.9873C27.9026 47.738 21.7096 47.6261 17.9589 43.7375C14.2082 39.8488 14.3201 33.6558 18.2088 29.9051C22.0975 26.1543 28.2905 26.2662 32.0412 30.1549C33.8024 31.981 34.7854 34.4199 34.7826 36.9569C34.7826 39.3938 34.2348 40.2176 32.6087 40.2176ZM25 40.2176C23.1991 40.2176 21.7392 38.7577 21.7392 36.9568C21.7392 35.1559 23.1991 33.6959 25 33.6959C26.801 33.6959 28.2609 35.1559 28.2609 36.9568C28.2609 38.7577 26.801 40.2176 25 40.2176Z" fill="#455A64"/>
<path d="M30.6739 16.543L27.6739 18.7168C26.0846 19.891 23.9153 19.891 22.326 18.7168L19.326 16.543L1.58691 34.2821C2.60808 35.3007 3.99231 35.8717 5.43474 35.869H10.9238C11.5119 28.0956 18.2901 22.2707 26.0636 22.8588C33.0193 23.385 38.5476 28.9133 39.0738 35.869H44.5651C46.0076 35.8716 47.3918 35.3007 48.413 34.2821L30.6739 16.543Z" fill="#FFA000"/>
</g>
<defs>
<clipPath id="clip0">
<rect width="50" height="50" fill="white"/>
</clipPath>
</defs>
</svg>
