<svg width="24" height="25" viewBox="0 0 24 25" fill="none" xmlns="http://www.w3.org/2000/svg">
<path d="M22.5 3.43945H16.5V6.43945H21V19.9395H7.5V13.986H4.5V21.4395C4.5 22.269 5.1705 22.9395 6 22.9395H22.5C23.328 22.9395 24 22.269 24 21.4395V4.93945C24 4.11145 23.328 3.43945 22.5 3.43945Z" fill="white"/>
<path d="M9.75 4.93962H7.5V2.68962C7.5 2.40612 7.3395 2.14662 7.0845 2.01912C6.831 1.89162 6.525 1.91862 6.3 2.08962L0.3 6.58962C0.111 6.73062 0 6.95412 0 7.18962C0 7.42512 0.111 7.64862 0.3 7.78962L6.3 12.2896C6.5265 12.4606 6.8325 12.4876 7.086 12.3601C7.3395 12.2326 7.5 11.9731 7.5 11.6896V9.43962H10.365C12.939 9.43962 15.252 10.8706 16.4025 13.1731L16.5795 13.5256C16.7085 13.7836 16.971 13.9396 17.25 13.9396C17.307 13.9396 17.3655 13.9336 17.4225 13.9201C17.76 13.8406 18 13.5376 18 13.1896C18 8.64012 14.2995 4.93962 9.75 4.93962Z" fill="white"/>
</svg>
