<svg width="103" height="84" viewBox="0 0 103 84" fill="none" xmlns="http://www.w3.org/2000/svg">
<path fill-rule="evenodd" clip-rule="evenodd" d="M89.1299 0H88.1299V70.28H89.1299V0Z" fill="white"/>
<path fill-rule="evenodd" clip-rule="evenodd" d="M81.4299 3.06004V70.3H82.4299V3.20004L81.4299 3.04004V3.06004Z" fill="white"/>
<path fill-rule="evenodd" clip-rule="evenodd" d="M75.7 2.75998V70.28H76.7V2.72998H75.7V2.75998Z" fill="white"/>
<path fill-rule="evenodd" clip-rule="evenodd" d="M72.1001 3.24005V70.2401H73.1001V3.06006L72.1001 3.26006V3.24005Z" fill="white"/>
<path fill-rule="evenodd" clip-rule="evenodd" d="M96.53 81.67H97.52V0H96.53V81.67Z" fill="white"/>
<path fill-rule="evenodd" clip-rule="evenodd" d="M37.6799 9.34009V81.6601H38.6799V10.0601C38.3099 9.82009 37.9699 9.59009 37.6799 9.39009V9.34009Z" fill="white"/>
<path fill-rule="evenodd" clip-rule="evenodd" d="M23.04 3.33994V70.2799H24.04V3.18994L23.04 3.33994Z" fill="white"/>
<path fill-rule="evenodd" clip-rule="evenodd" d="M15.6599 0H14.6599V70.28H15.6599V0Z" fill="white"/>
<path fill-rule="evenodd" clip-rule="evenodd" d="M11.23 70.28H12.23V0H11.23V70.28Z" fill="white"/>
<path fill-rule="evenodd" clip-rule="evenodd" d="M25.8501 2.99011V70.2801H30.0201V3.06012C28.6336 2.91941 27.2365 2.91941 25.8501 3.06012V2.99011Z" fill="white"/>
<path fill-rule="evenodd" clip-rule="evenodd" d="M21.6801 0.649994V0H17.52V3.77C18.7819 2.57327 20.1779 1.52632 21.6801 0.649994V0.649994Z" fill="white"/>
<path fill-rule="evenodd" clip-rule="evenodd" d="M17.52 70.2801H21.6801V3.58008C20.1101 3.89008 18.68 4.25008 17.52 4.58008V70.2701V70.2801Z" fill="white"/>
<path fill-rule="evenodd" clip-rule="evenodd" d="M84.7 70.28H87.26V0H84.7V70.28Z" fill="white"/>
<path fill-rule="evenodd" clip-rule="evenodd" d="M67.8301 8.06007V70.3301H70.3901V7.89007C69.5366 7.77356 68.6689 7.81423 67.8301 8.01007V8.06007Z" fill="white"/>
<path fill-rule="evenodd" clip-rule="evenodd" d="M67.8301 4.87997V4.96997C68.6986 4.97447 69.5616 5.1093 70.3901 5.36996V3.71997C69.5 4.01979 68.6423 4.40841 67.8301 4.87997V4.87997Z" fill="white"/>
<path fill-rule="evenodd" clip-rule="evenodd" d="M64.29 10.2299V70.28H66.85V8.44995L66.78 8.49995C66.63 8.61995 65.66 9.36995 64.29 10.2299V10.2299Z" fill="white"/>
<path fill-rule="evenodd" clip-rule="evenodd" d="M31.3201 7.74001V81.64H33.8801V7.36002C33.0095 7.30428 32.1369 7.43379 31.3201 7.74001Z" fill="white"/>
<path fill-rule="evenodd" clip-rule="evenodd" d="M31.3201 3.13013V7.06012C32.0069 6.3495 32.9047 5.87954 33.8801 5.72012V3.87012C33.0641 3.51288 32.2026 3.27057 31.3201 3.15012V3.13013Z" fill="white"/>
<path fill-rule="evenodd" clip-rule="evenodd" d="M94.9699 0H92.4199V70.28H94.9699V0Z" fill="white"/>
<path fill-rule="evenodd" clip-rule="evenodd" d="M7.37012 70.28H9.93012V0H7.37012V70.28Z" fill="white"/>
<path fill-rule="evenodd" clip-rule="evenodd" d="M101.55 0V81.65H102.52V0H101.55Z" fill="white"/>
<path fill-rule="evenodd" clip-rule="evenodd" d="M99.3999 81.65H100.36V0H99.3999V81.65Z" fill="white"/>
<path fill-rule="evenodd" clip-rule="evenodd" d="M2.81006 81.65H3.78006V0H2.81006V81.65Z" fill="white"/>
<path fill-rule="evenodd" clip-rule="evenodd" d="M0.659912 81.65H1.61991V0H0.659912V81.65Z" fill="white"/>
<path fill-rule="evenodd" clip-rule="evenodd" d="M51.2 60.3201L51.73 71.5101L52.2599 60.2501L51.78 60.0601L51.2499 60.3101L51.2 60.3201ZM50.84 52.7401L51.08 57.8601L51.73 58.1301L52.3799 57.8601L52.6299 52.6301L51.73 52.3901L50.84 52.7401ZM50.3799 43.0201L50.7 49.8601L51.7 50.2801L52.7 49.8601L53.03 42.9501L51.7 42.5001L50.3199 43.0201H50.3799ZM49.77 30.2201L50.1899 38.9901L51.7599 39.7201C52.3599 39.5001 52.7599 39.3001 53.2599 39.0801L53.7 30.1401L51.7 29.4901L49.7 30.2201H49.77ZM48.9999 12.7101L49.5099 24.9901C50.2103 25.3921 50.9599 25.7013 51.74 25.9101C52.4934 25.6579 53.2285 25.3538 53.9399 25.0001L54.5699 12.6401C53.685 13.094 52.7046 13.3306 51.71 13.3301C50.7717 13.3278 49.8458 13.116 48.9999 12.7101V12.7101ZM51.89 59.9201C53.46 60.6201 54.46 61.6401 52.74 64.5401C53.1801 64.2887 53.5577 63.9409 53.8444 63.5229C54.1311 63.1049 54.3195 62.6274 54.3955 62.1262C54.4715 61.6251 54.4331 61.1132 54.2832 60.629C54.1333 60.1447 53.8758 59.7007 53.53 59.3301C52.95 59.5501 52.4 59.7001 51.89 59.9201ZM49.3799 53.8101C48.978 53.8903 48.6021 54.0684 48.2856 54.3288C47.969 54.5891 47.7216 54.9235 47.5653 55.3024C47.409 55.6813 47.3487 56.0929 47.3896 56.5007C47.4305 56.9085 47.5715 57.2998 47.8 57.6401C48.2871 58.3343 48.9904 58.8476 49.8 59.1001C50.2154 58.7083 50.7199 58.4234 51.27 58.2701C47.27 56.6801 48.52 54.7601 49.4 53.8101H49.3799ZM52.46 29.3001C56.35 30.6201 59.86 31.7301 60.11 34.3601C60.87 30.6001 58.7599 29.0001 55.9399 27.8701C54.7999 28.3501 53.73 28.8701 52.46 29.3001ZM46.78 15.1301C43.48 15.8501 40.47 19.9701 43.15 23.9201C44.2649 25.3813 45.7253 26.5427 47.4 27.3001C48.4 26.9601 49.95 26.4701 50.91 26.1701C42.08 22.4901 44.81 17.2301 46.78 15.1701V15.1301ZM56.7 15.1301C60 15.8501 63.01 19.9701 60.33 23.9201C56.15 29.8601 43.81 29.3501 43.33 34.3601C42.49 30.2801 45.06 28.7401 48.24 27.5901C62.16 23.9901 58.92 17.5201 56.68 15.1301H56.7ZM52.29 42.3301C55.42 43.3901 58.29 44.2801 58.46 46.3901C59.07 43.3901 57.39 42.1101 55.15 41.2101L52.29 42.3301ZM47.78 31.0001C45.13 31.5801 42.72 34.8701 44.87 38.0001C45.8172 39.2261 47.059 40.1927 48.48 40.8101L51.48 39.9401C43.98 36.9401 46.22 32.6601 47.83 30.9401L47.78 31.0001ZM55.78 31.0001C58.43 31.5801 60.8399 34.8701 58.6899 38.0001C55.3499 42.7501 45.46 42.3401 45.09 46.3501C44.42 43.0901 46.48 41.8501 49.03 40.9301C60.17 38.0501 57.58 32.8701 55.78 30.9301V31.0001ZM52.2499 52.2601C54.6199 53.0601 56.76 53.7401 56.91 55.3401C57.37 53.1001 56.15 52.1201 54.49 51.4301L52.2499 52.2601V52.2601ZM48.74 43.5701C48.1748 43.6818 47.6459 43.9314 47.2003 44.2965C46.7547 44.6617 46.4061 45.1312 46.1855 45.6635C45.9649 46.1957 45.8791 46.7741 45.9357 47.3475C45.9923 47.9208 46.1895 48.4713 46.5099 48.9501C47.2288 49.8825 48.1712 50.6185 49.2499 51.0901L51.4 50.3901C45.82 48.1301 47.52 44.8701 48.74 43.5701ZM54.8799 43.5701C55.4451 43.6818 55.974 43.9314 56.4196 44.2965C56.8652 44.6617 57.2138 45.1312 57.4344 45.6635C57.655 46.1957 57.7408 46.7741 57.6842 47.3475C57.6276 47.9208 57.4304 48.4713 57.11 48.9501C54.55 52.5901 46.99 52.2801 46.71 55.3401C46.2 52.8501 47.77 51.9101 49.71 51.2001C58.23 48.9901 56.25 45.0301 54.87 43.5701H54.8799ZM53.9999 53.8101C54.4019 53.8903 54.7778 54.0684 55.0944 54.3288C55.4109 54.5891 55.6583 54.9235 55.8146 55.3024C55.9709 55.6813 56.0313 56.0929 55.9904 56.5007C55.9494 56.9085 55.8084 57.2998 55.58 57.6401C54 60.3201 47.36 58.9901 50.64 64.5401C47.9 62.6701 48.87 59.3801 50.8 58.7301C56.39 57.0701 54.9699 54.8501 53.9999 53.8101V53.8101ZM65.9999 7.5001C65.9999 7.5001 60.83 11.6201 57.06 11.8401C56.6113 11.8681 56.1609 11.8379 55.72 11.7501C56.3876 11.1649 56.9222 10.4436 57.2878 9.63467C57.6535 8.82572 57.8418 7.94786 57.84 7.0601C57.84 6.5337 57.7728 6.00946 57.64 5.5001C59.14 5.2501 61.55 4.3601 64.71 1.5801L63.5699 4.15009C63.5699 4.15009 69.57 -2.8999 82.85 2.3401C82.85 2.3401 69.85 -1.50991 63.08 7.46009C63.08 7.46009 66.77 5.2401 70.49 6.7501C68.9529 6.40059 67.34 6.67 65.9999 7.5001V7.5001ZM53.7 2.8901C53.57 2.9501 53.1999 3.0701 53.1899 3.2201C53.1799 3.3701 53.59 3.35009 53.72 3.32009C53.85 3.29009 53.98 3.25009 54.05 3.32009C54.12 3.39009 54.11 3.52009 54.05 3.57009C53.99 3.62009 53.62 3.44009 53.42 3.46009C53.42 3.54009 53.42 3.63009 53.42 3.71009C53.42 3.79009 53.2899 3.7101 53.1899 3.7801C53.0899 3.8501 52.98 3.9201 52.86 4.0501C52.74 4.1801 52.26 4.2601 52.29 4.7001C52.3443 4.74226 52.4112 4.76515 52.48 4.76515C52.5488 4.76515 52.6156 4.74226 52.67 4.7001C52.789 4.63971 52.9027 4.56946 53.0099 4.49009C53.1304 4.39765 53.2781 4.34754 53.43 4.34754C53.5819 4.34754 53.7295 4.39765 53.85 4.49009C53.85 4.55009 54.0399 4.72011 54.1299 4.63011C54.2199 4.54011 54.05 4.44009 54.03 4.35009C53.96 4.03009 54.3 4.44011 54.35 4.52011C54.4 4.60011 54.68 4.81011 54.85 4.52011C55.02 4.23011 54.93 4.1201 55.23 4.1901C55.53 4.2601 55.68 4.4901 55.36 4.5501C55.22 4.5501 54.8 4.4301 54.83 4.6401C54.86 4.8501 55.16 4.8501 55.29 4.9401C55.42 5.0301 55.29 5.3701 55.11 5.3601C54.9387 5.33683 54.7709 5.29319 54.61 5.2301C54.43 5.1801 54.34 5.10009 54.17 5.04009C54 4.98009 53.7 4.5501 53.31 4.5901C53.11 4.5901 52.99 4.78011 52.83 4.88011C52.67 4.98011 52.5 4.9801 52.35 5.0601C52.1929 5.1336 52.0531 5.2392 51.9394 5.37011C51.8257 5.50102 51.7407 5.65431 51.6899 5.82009C51.5199 6.49009 51.81 7.5101 52.64 7.4701C52.98 7.4701 53.41 7.34011 53.64 7.63011C53.7462 7.77418 53.8243 7.93703 53.87 8.1101C53.87 8.2601 54.02 8.4401 54.05 8.5801C54.08 8.7201 53.99 8.9201 53.99 9.0901C53.9841 9.3004 54.0145 9.51014 54.08 9.71009C54.19 10.1101 54.1699 10.5501 54.6899 10.0901C54.8199 9.9701 54.9999 9.96009 55.1299 9.82009C55.2599 9.68009 55.13 9.57009 55.34 9.32009C55.55 9.07009 55.54 8.5701 55.6 8.4201C55.77 8.0501 56.4099 7.35009 56.0699 6.96009C55.8811 6.78615 55.7253 6.57949 55.61 6.35009C55.5645 6.21376 55.511 6.08021 55.45 5.9501C55.39 5.8501 55.26 5.7001 55.33 5.6201C55.62 5.3801 55.71 6.7001 56.21 6.6201C56.71 6.5401 56.01 6.22009 55.97 5.90009C55.93 5.58009 56.13 5.73009 56.28 5.90009C56.3727 6.26962 56.4197 6.64913 56.42 7.0301C56.42 7.63552 56.3008 8.23501 56.0692 8.79437C55.8376 9.35372 55.498 9.86197 55.0699 10.2901C54.6418 10.7182 54.1336 11.0577 53.5742 11.2893C53.0149 11.521 52.4154 11.6402 51.81 11.6401C50.9865 11.642 50.1779 11.4208 49.47 11.0001L49.39 10.8301C49.29 10.6701 49.1799 10.4801 49.3199 10.3301C49.4599 10.1801 49.4599 10.2501 49.5099 10.1801C49.5599 10.1101 49.57 10.0101 49.61 9.93009C49.65 9.85009 50.02 9.9301 50.08 9.6701C50.14 9.4101 50.08 9.1901 50.14 8.9701C50.1966 8.87421 50.2221 8.76316 50.2132 8.65217C50.2042 8.54118 50.1612 8.43567 50.09 8.35009C49.79 8.01009 49.27 7.97009 48.98 7.60009C48.69 7.23009 48.31 6.7501 47.98 6.9801C47.85 7.0601 47.88 7.1401 47.85 7.2601C47.82 7.3801 47.72 7.37009 47.67 7.49009C47.6234 7.71734 47.6664 7.95378 47.79 8.15009C47.8609 8.38065 47.9512 8.60479 48.06 8.82009C48.2157 8.99635 48.3377 9.19974 48.42 9.4201C48.51 9.7301 48.57 10.0601 48.67 10.3701L48.59 10.2901C48.1619 9.86197 47.8223 9.35372 47.5907 8.79437C47.3591 8.23501 47.2399 7.63552 47.24 7.0301C47.2401 6.7789 47.2601 6.52812 47.3 6.2801C47.3037 6.33003 47.3037 6.38016 47.3 6.43009C47.3 6.57009 47.48 7.1301 47.67 7.0901C47.67 6.9701 47.57 6.8201 47.53 6.7001C47.4948 6.56569 47.4948 6.4245 47.53 6.29009C47.58 6.11009 47.61 6.10009 47.53 5.93009L47.46 5.79009C47.46 5.71009 47.51 5.6301 47.53 5.5501C47.6276 5.51958 47.7281 5.49946 47.83 5.49009C47.95 5.49009 48.05 5.4901 48.16 5.4201C48.2579 5.37194 48.3444 5.30324 48.4134 5.21868C48.4824 5.13413 48.5324 5.0357 48.56 4.93009C48.64 4.71009 48.66 4.56009 48.9 4.49009C49.14 4.42009 49.08 4.4901 49.17 4.4101C49.26 4.3301 49.1699 4.2301 49.2599 4.1201C49.3499 4.0101 49.4599 4.2001 49.5699 4.1201C49.6799 4.0401 49.7 4.0201 49.7 3.9101C49.7079 3.803 49.6859 3.69579 49.6364 3.60044C49.587 3.5051 49.5121 3.42536 49.42 3.3701C49.26 3.2801 49.1299 3.37009 48.9999 3.46009C48.9058 3.55282 48.7979 3.63042 48.68 3.6901C49.1897 3.19512 49.8052 2.82239 50.48 2.60009V2.60009C50.55 2.68009 50.32 2.7501 50.31 2.8301C50.3 2.9101 50.44 3.0601 50.49 3.1201C50.5291 3.15739 50.5809 3.1782 50.6349 3.1782C50.689 3.1782 50.7409 3.15739 50.78 3.1201C50.87 3.0701 50.92 2.9801 51.02 2.9401C51.1283 2.9042 51.2384 2.87415 51.35 2.85009C51.565 2.7893 51.7704 2.69841 51.96 2.5801C52.0657 2.51492 52.166 2.44135 52.2599 2.3601C52.8044 2.39685 53.3371 2.53595 53.83 2.77011L53.7 2.8901ZM51.7599 2.2201C52.3971 2.21887 53.0281 2.3437 53.6168 2.58741C54.2055 2.83112 54.7401 3.18888 55.1899 3.6401C55.6412 4.08991 55.999 4.62455 56.2427 5.21322C56.4864 5.80189 56.6112 6.43297 56.61 7.07009C56.6112 7.70722 56.4864 8.33829 56.2427 8.92697C55.999 9.51564 55.6412 10.0503 55.1899 10.5001C54.7401 10.9513 54.2055 11.3091 53.6168 11.5528C53.0281 11.7965 52.3971 11.9213 51.7599 11.9201C51.1228 11.9213 50.4917 11.7965 49.9031 11.5528C49.3144 11.3091 48.7798 10.9513 48.33 10.5001C47.8787 10.0503 47.521 9.51564 47.2773 8.92697C47.0336 8.33829 46.9087 7.70722 46.91 7.07009C46.9087 6.43297 47.0336 5.80189 47.2773 5.21322C47.521 4.62455 47.8787 4.08991 48.33 3.6401C48.7798 3.18888 49.3144 2.83112 49.9031 2.58741C50.4917 2.3437 51.1228 2.21887 51.7599 2.2201V2.2201ZM37.27 7.5001C37.27 7.5001 42.45 11.6201 46.27 11.8401C46.7186 11.8681 47.1691 11.8379 47.61 11.7501C46.9424 11.1649 46.4078 10.4436 46.0421 9.63467C45.6764 8.82572 45.4882 7.94786 45.49 7.0601C45.4915 6.53442 45.5553 6.01078 45.68 5.5001C44.18 5.2501 41.78 4.3601 38.62 1.5801L39.7599 4.15009C39.7599 4.15009 33.76 -2.8999 20.48 2.3401C20.48 2.3401 33.4799 -1.50991 40.2499 7.46009C40.2499 7.46009 36.56 5.2401 32.84 6.7501C34.3739 6.40333 35.9826 6.67265 37.3199 7.5001H37.27Z" fill="white"/>
<path fill-rule="evenodd" clip-rule="evenodd" d="M40.1299 70.2399H42.1599V24.95H40.1299V70.2399Z" fill="white"/>
<path fill-rule="evenodd" clip-rule="evenodd" d="M44.01 70.2399H44.94V51.45H44.01V70.2399Z" fill="white"/>
<path fill-rule="evenodd" clip-rule="evenodd" d="M61.0801 70.2399H63.1201V24.95H61.0801V70.2399Z" fill="white"/>
<path fill-rule="evenodd" clip-rule="evenodd" d="M58.51 70.2399H59.43V51.45H58.51V70.2399Z" fill="white"/>
<path d="M18.0499 81.0601V75.1601L14.8299 81.0601H12.7799L9.56989 75.1601V81.0601H7.42993V73.0601H10.6199L13.8199 78.9801L17.1299 73.0601H20.2199V81.0601H18.0499Z" fill="white"/>
<path d="M26.51 74.9201V81.0601H24.3701V74.8901H21.03V73.0601H29.94V74.9201H26.51Z" fill="white"/>
<path d="M46.3799 81.0601H40.1499V73.0601H46.0899C48.3199 73.0601 49.3199 73.89 49.3199 76.17V77.86C49.3199 80.06 48.6099 81.0601 46.3799 81.0601ZM47.1099 76.14C47.1099 75.14 46.7799 74.8901 46.0299 74.8901H42.2899V79.2001H46.0299C46.8199 79.2001 47.1099 78.68 47.1099 77.83V76.14Z" fill="white"/>
<path d="M57.17 80.8299C56.5407 81.1027 55.8537 81.2161 55.17 81.1599H53.03C50.82 81.1599 50.28 80.3899 50.28 78.2899C50.28 76.1899 50.77 75.4099 53.03 75.4099H55.17C57.3 75.4099 57.92 75.9999 57.92 78.2899V78.5899H52.13C52.13 79.5899 52.29 79.8799 53.03 79.8799H55.17C55.74 79.8799 56.11 79.8099 56.11 79.2199H57.92C57.9603 79.5318 57.9112 79.8486 57.7784 80.1336C57.6457 80.4187 57.4347 80.6601 57.17 80.8299V80.8299ZM55.17 76.6899H53.03C52.35 76.6899 52.17 76.8399 52.15 77.5899H56.1C56.09 76.7399 55.78 76.6899 55.16 76.6899H55.17Z" fill="white"/>
<path d="M58.9399 81.0601V73.0601H60.78V81.0601H58.9399Z" fill="white"/>
<path d="M61.8601 74.4701V73.0601H63.7001V74.4701H61.8601ZM61.8601 81.0901V75.4701H63.7001V81.0601L61.8601 81.0901Z" fill="white"/>
<path d="M69.1801 81.0599H66.9901L64.0701 75.4399H65.9501L68.0801 79.3399L70.2201 75.4399H72.0801L69.1801 81.0599Z" fill="white"/>
<path d="M79.17 80.8299C78.5407 81.1027 77.8537 81.2161 77.17 81.1599H75.03C72.82 81.1599 72.28 80.3899 72.28 78.2899C72.28 76.1899 72.77 75.4099 75.03 75.4099H77.17C79.3 75.4099 79.92 75.9999 79.92 78.2899V78.5899H74.13C74.13 79.5899 74.29 79.8799 75.03 79.8799H77.17C77.74 79.8799 78.11 79.8099 78.11 79.2199H79.92C79.9603 79.5318 79.9112 79.8486 79.7784 80.1336C79.6457 80.4187 79.4347 80.6601 79.17 80.8299V80.8299ZM77.17 76.6899H75.03C74.35 76.6899 74.17 76.8399 74.15 77.5899H78.09C78.08 76.7399 77.78 76.6899 77.16 76.6899H77.17Z" fill="white"/>
<path d="M86.1499 77.9199V77.6499C86.1499 77.2599 86.1499 76.82 85.6599 76.82H83.3999C82.8499 76.82 82.7199 77.2599 82.7199 77.7199V81.0599H80.8799V75.4399H82.6599V76.2699H82.7399C82.8417 75.9833 83.0374 75.7395 83.2951 75.5779C83.5528 75.4164 83.8576 75.3466 84.1599 75.38H86.4099C87.6999 75.38 87.7999 76.38 87.7999 77.45V77.8899L86.1499 77.9199Z" fill="white"/>
<path d="M93.16 81.0599C92.35 82.7099 91.6399 83.5099 89.2499 83.5099V81.7799C90.2499 81.7799 90.67 81.6699 90.96 81.0599L88.1899 75.4399H90.1299L92.0699 79.3399L93.9999 75.4399H95.9399L93.16 81.0599Z" fill="white"/>
</svg>
