<?xml version="1.0" encoding="UTF-8"?>
<svg xmlns="http://www.w3.org/2000/svg" xmlns:xlink="http://www.w3.org/1999/xlink" width="74pt" height="61pt" viewBox="0 0 74 61" version="1.1">
<g id="surface1">
<path style=" stroke:none;fill-rule:evenodd;fill:rgb(0%,0%,0%);fill-opacity:1;" d="M 63.328125 0 L 62.613281 0 L 62.613281 52.640625 L 63.328125 52.640625 Z M 63.328125 0 "/>
<path style=" stroke:none;fill-rule:evenodd;fill:rgb(0%,0%,0%);fill-opacity:1;" d="M 57.824219 2.296875 L 57.824219 52.675781 L 58.535156 52.675781 L 58.535156 2.394531 L 57.824219 2.285156 Z M 57.824219 2.296875 "/>
<path style=" stroke:none;fill-rule:evenodd;fill:rgb(0%,0%,0%);fill-opacity:1;" d="M 53.714844 2.085938 L 53.714844 52.640625 L 54.4375 52.640625 L 54.4375 2.085938 Z M 53.714844 2.085938 "/>
<path style=" stroke:none;fill-rule:evenodd;fill:rgb(0%,0%,0%);fill-opacity:1;" d="M 51.148438 2.429688 L 51.148438 52.617188 L 51.855469 52.617188 L 51.855469 2.296875 C 51.613281 2.316406 51.378906 2.371094 51.148438 2.433594 Z M 51.148438 2.429688 "/>
<path style=" stroke:none;fill-rule:evenodd;fill:rgb(0%,0%,0%);fill-opacity:1;" d="M 68.621094 52.640625 L 69.335938 52.640625 L 69.335938 0 L 68.621094 0 Z M 68.621094 52.640625 "/>
<path style=" stroke:none;fill-rule:evenodd;fill:rgb(0%,0%,0%);fill-opacity:1;" d="M 26.507812 7 L 26.507812 52.640625 L 27.222656 52.640625 L 27.222656 7.503906 Z M 26.507812 7 "/>
<path style=" stroke:none;fill-rule:evenodd;fill:rgb(0%,0%,0%);fill-opacity:1;" d="M 16.027344 2.5 L 16.027344 52.640625 L 16.742188 52.640625 L 16.742188 2.394531 Z M 16.027344 2.5 "/>
<path style=" stroke:none;fill-rule:evenodd;fill:rgb(0%,0%,0%);fill-opacity:1;" d="M 10.730469 0 L 10.027344 0 L 10.027344 52.640625 L 10.730469 52.640625 Z M 10.730469 0 "/>
<path style=" stroke:none;fill-rule:evenodd;fill:rgb(0%,0%,0%);fill-opacity:1;" d="M 7.574219 52.640625 L 8.277344 52.640625 L 8.277344 0 L 7.574219 0 Z M 7.574219 52.640625 "/>
<path style=" stroke:none;fill-rule:evenodd;fill:rgb(0%,0%,0%);fill-opacity:1;" d="M 18.039062 2.242188 L 18.039062 52.640625 L 21.023438 52.640625 L 21.023438 2.246094 C 20.027344 2.164062 19.027344 2.164062 18.039062 2.246094 Z M 18.039062 2.242188 "/>
<path style=" stroke:none;fill-rule:evenodd;fill:rgb(0%,0%,0%);fill-opacity:1;" d="M 15.046875 0.484375 L 15.046875 0 L 12.070312 0 L 12.070312 2.828125 C 12.988281 1.929688 13.980469 1.152344 15.046875 0.484375 Z M 15.046875 0.484375 "/>
<path style=" stroke:none;fill-rule:evenodd;fill:rgb(0%,0%,0%);fill-opacity:1;" d="M 12.070312 52.640625 L 15.046875 52.640625 L 15.046875 2.695312 C 13.929688 2.914062 12.90625 3.1875 12.070312 3.4375 Z M 12.070312 52.640625 "/>
<path style=" stroke:none;fill-rule:evenodd;fill:rgb(0%,0%,0%);fill-opacity:1;" d="M 60.148438 52.640625 L 61.988281 52.640625 L 61.988281 0 L 60.148438 0 Z M 60.148438 52.640625 "/>
<path style=" stroke:none;fill-rule:evenodd;fill:rgb(0%,0%,0%);fill-opacity:1;" d="M 48.0625 5.996094 L 48.0625 52.640625 L 49.890625 52.640625 L 49.890625 5.917969 C 49.28125 5.835938 48.664062 5.859375 48.0625 5.996094 Z M 48.0625 5.996094 "/>
<path style=" stroke:none;fill-rule:evenodd;fill:rgb(0%,0%,0%);fill-opacity:1;" d="M 48.0625 3.652344 L 48.0625 3.730469 C 48.6875 3.730469 49.300781 3.832031 49.890625 4.035156 L 49.890625 2.789062 C 49.269531 3.011719 48.644531 3.300781 48.0625 3.652344 Z M 48.0625 3.652344 "/>
<path style=" stroke:none;fill-rule:evenodd;fill:rgb(0%,0%,0%);fill-opacity:1;" d="M 45.558594 7.667969 L 45.558594 52.617188 L 47.386719 52.617188 L 47.386719 6.332031 L 47.335938 6.378906 C 46.757812 6.84375 46.167969 7.277344 45.558594 7.679688 Z M 45.558594 7.667969 "/>
<path style=" stroke:none;fill-rule:evenodd;fill:rgb(0%,0%,0%);fill-opacity:1;" d="M 21.957031 5.835938 L 21.957031 61.164062 L 23.789062 61.164062 L 23.789062 5.515625 C 23.15625 5.476562 22.53125 5.59375 21.957031 5.835938 Z M 21.957031 5.835938 "/>
<path style=" stroke:none;fill-rule:evenodd;fill:rgb(0%,0%,0%);fill-opacity:1;" d="M 21.957031 2.34375 L 21.957031 5.296875 C 22.449219 4.777344 23.09375 4.433594 23.789062 4.324219 L 23.789062 2.933594 C 23.203125 2.648438 22.582031 2.449219 21.957031 2.34375 Z M 21.957031 2.34375 "/>
<path style=" stroke:none;fill-rule:evenodd;fill:rgb(0%,0%,0%);fill-opacity:1;" d="M 67.511719 0 L 65.679688 0 L 65.679688 52.640625 L 67.511719 52.640625 Z M 67.511719 0 "/>
<path style=" stroke:none;fill-rule:evenodd;fill:rgb(0%,0%,0%);fill-opacity:1;" d="M 4.808594 52.640625 L 6.632812 52.640625 L 6.632812 0 L 4.808594 0 Z M 4.808594 52.640625 "/>
<path style=" stroke:none;fill-rule:evenodd;fill:rgb(0%,0%,0%);fill-opacity:1;" d="M 72.226562 0 L 72.226562 61.164062 L 72.910156 61.164062 L 72.910156 0 Z M 72.226562 0 "/>
<path style=" stroke:none;fill-rule:evenodd;fill:rgb(0%,0%,0%);fill-opacity:1;" d="M 70.679688 61.164062 L 71.375 61.164062 L 71.375 0 L 70.679688 0 Z M 70.679688 61.164062 "/>
<path style=" stroke:none;fill-rule:evenodd;fill:rgb(0%,0%,0%);fill-opacity:1;" d="M 1.546875 61.164062 L 2.234375 61.164062 L 2.234375 0 L 1.546875 0 Z M 1.546875 61.164062 "/>
<path style=" stroke:none;fill-rule:evenodd;fill:rgb(0%,0%,0%);fill-opacity:1;" d="M 0 61.164062 L 0.691406 61.164062 L 0.691406 0 L 0 0 Z M 0 61.164062 "/>
<path style=" stroke:none;fill-rule:evenodd;fill:rgb(0%,0%,0%);fill-opacity:1;" d="M 36.160156 45.183594 L 36.53125 53.566406 L 36.914062 45.144531 L 36.53125 45.007812 Z M 35.894531 39.535156 L 36.066406 43.375 L 36.53125 43.578125 L 36.996094 43.371094 L 37.183594 39.453125 L 36.53125 39.277344 Z M 35.570312 32.253906 L 35.789062 37.386719 L 36.511719 37.703125 L 37.230469 37.378906 L 37.46875 32.199219 L 36.511719 31.875 L 35.519531 32.253906 Z M 35.125 22.664062 L 35.429688 29.234375 L 36.550781 29.792969 C 36.976562 29.617188 37.269531 29.472656 37.628906 29.304688 L 37.9375 22.605469 L 36.511719 22.125 L 35.082031 22.664062 Z M 34.585938 9.558594 L 34.945312 18.757812 C 35.441406 19.054688 35.976562 19.289062 36.539062 19.445312 C 37.082031 19.257812 37.609375 19.03125 38.113281 18.757812 L 38.566406 9.492188 C 37.933594 9.847656 37.234375 10.023438 36.519531 10.015625 C 35.84375 10.015625 35.179688 9.855469 34.585938 9.53125 Z M 36.640625 44.917969 C 37.773438 45.433594 38.480469 46.207031 37.253906 48.375 C 37.527344 48.214844 37.773438 47.992188 37.957031 47.734375 C 38.152344 47.480469 38.300781 47.175781 38.378906 46.867188 C 38.46875 46.542969 38.480469 46.21875 38.449219 45.886719 C 38.410156 45.558594 38.308594 45.242188 38.152344 44.957031 C 38.054688 44.792969 37.945312 44.632812 37.824219 44.476562 C 37.402344 44.605469 37.015625 44.714844 36.640625 44.890625 Z M 34.855469 40.289062 C 34.617188 40.328125 34.398438 40.421875 34.203125 40.558594 C 34.003906 40.695312 33.828125 40.863281 33.695312 41.078125 C 33.570312 41.273438 33.472656 41.511719 33.429688 41.746094 C 33.371094 41.984375 33.371094 42.238281 33.421875 42.476562 C 33.46875 42.730469 33.558594 42.957031 33.6875 43.15625 C 34.042969 43.675781 34.546875 44.054688 35.125 44.25 C 35.417969 43.953125 35.785156 43.746094 36.171875 43.621094 C 33.3125 42.4375 34.210938 40.988281 34.84375 40.289062 Z M 37.054688 21.925781 C 39.84375 22.914062 42.347656 23.738281 42.527344 25.671875 C 43.074219 22.855469 41.566406 21.664062 39.546875 20.816406 C 38.757812 21.238281 37.964844 21.632812 37.054688 21.957031 Z M 32.972656 11.3125 C 30.609375 11.847656 28.449219 14.925781 30.371094 17.898438 C 31.164062 18.992188 32.210938 19.867188 33.417969 20.429688 C 34.125 20.175781 35.234375 19.808594 35.925781 19.582031 C 29.601562 16.816406 31.550781 12.832031 32.972656 11.34375 Z M 40.070312 11.3125 C 42.441406 11.847656 44.585938 14.925781 42.667969 17.898438 C 39.675781 22.332031 30.835938 21.964844 30.5 25.707031 C 29.898438 22.648438 31.738281 21.511719 34.011719 20.636719 C 43.980469 17.9375 41.65625 13.085938 40.054688 11.3125 Z M 36.914062 31.683594 C 39.152344 32.480469 41.210938 33.132812 41.328125 34.71875 C 41.765625 32.472656 40.566406 31.519531 38.957031 30.835938 Z M 33.675781 23.1875 C 31.777344 23.621094 30.046875 26.09375 31.589844 28.433594 C 32.269531 29.363281 33.160156 30.089844 34.179688 30.550781 L 36.320312 29.894531 C 30.957031 27.648438 32.558594 24.449219 33.707031 23.15625 Z M 39.398438 23.1875 C 41.292969 23.621094 43.023438 26.09375 41.488281 28.433594 C 39.09375 31.992188 32.023438 31.695312 31.75 34.6875 C 31.273438 32.246094 32.746094 31.328125 34.570312 30.632812 C 42.546875 28.472656 40.6875 24.59375 39.398438 23.15625 Z M 36.867188 39.121094 C 38.578125 39.722656 40.101562 40.230469 40.210938 41.433594 C 40.546875 39.75 39.667969 39.011719 38.476562 38.488281 Z M 34.363281 32.613281 C 33.707031 32.75 33.140625 33.152344 32.769531 33.734375 C 32.398438 34.304688 32.253906 35.015625 32.390625 35.703125 C 32.449219 36.035156 32.585938 36.355469 32.769531 36.648438 C 33.28125 37.347656 33.957031 37.898438 34.734375 38.242188 L 36.269531 37.722656 C 32.273438 36.054688 33.488281 33.613281 34.363281 32.648438 Z M 38.757812 32.613281 C 39.410156 32.75 39.984375 33.152344 40.351562 33.734375 C 40.726562 34.3125 40.847656 35.015625 40.734375 35.703125 C 40.667969 36.035156 40.539062 36.355469 40.351562 36.648438 C 38.527344 39.367188 33.113281 39.136719 32.914062 41.433594 C 32.546875 39.5625 33.667969 38.863281 35.054688 38.320312 C 41.160156 36.675781 39.746094 33.695312 38.746094 32.613281 Z M 38.132812 40.289062 C 38.367188 40.332031 38.585938 40.429688 38.785156 40.574219 C 38.976562 40.703125 39.144531 40.894531 39.28125 41.097656 C 39.410156 41.316406 39.496094 41.550781 39.539062 41.789062 C 39.578125 42.035156 39.578125 42.289062 39.527344 42.535156 C 39.480469 42.773438 39.390625 43 39.261719 43.207031 C 38.132812 45.207031 33.371094 44.210938 35.726562 48.375 C 33.757812 46.96875 34.457031 44.507812 35.835938 44.015625 C 39.84375 42.753906 38.824219 41.085938 38.132812 40.289062 Z M 46.714844 5.59375 C 46.714844 5.59375 43.015625 8.675781 40.320312 8.84375 C 39.996094 8.871094 39.675781 8.84375 39.359375 8.78125 C 39.847656 8.347656 40.242188 7.816406 40.519531 7.199219 C 40.792969 6.597656 40.941406 5.9375 40.945312 5.265625 C 40.945312 4.875 40.902344 4.472656 40.796875 4.097656 C 41.875 3.910156 43.609375 3.238281 45.871094 1.164062 L 45.054688 3.070312 C 45.054688 3.070312 49.347656 -2.167969 58.851562 1.730469 C 58.851562 1.730469 49.546875 -1.152344 44.703125 5.5625 C 44.703125 5.5625 47.339844 3.898438 50 5.023438 C 48.902344 4.765625 47.753906 4.972656 46.785156 5.59375 Z M 37.921875 2.128906 C 37.824219 2.175781 37.558594 2.265625 37.550781 2.375 C 37.539062 2.492188 37.835938 2.480469 37.925781 2.46875 C 38.003906 2.449219 38.085938 2.449219 38.164062 2.46875 C 38.25 2.46875 38.203125 2.609375 38.164062 2.640625 C 38.121094 2.679688 37.863281 2.550781 37.714844 2.5625 L 37.714844 2.75 C 37.714844 2.804688 37.625 2.75 37.550781 2.804688 C 37.476562 2.863281 37.398438 2.90625 37.3125 3.003906 C 37.230469 3.101562 36.882812 3.160156 36.914062 3.496094 C 36.945312 3.527344 36.992188 3.542969 37.042969 3.542969 C 37.085938 3.542969 37.140625 3.527344 37.183594 3.496094 C 37.261719 3.453125 37.339844 3.386719 37.417969 3.335938 C 37.507812 3.261719 37.609375 3.230469 37.71875 3.230469 C 37.828125 3.230469 37.933594 3.261719 38.023438 3.335938 C 38.023438 3.335938 38.152344 3.503906 38.21875 3.4375 C 38.289062 3.375 38.164062 3.296875 38.152344 3.238281 C 38.09375 2.992188 38.347656 3.296875 38.378906 3.355469 C 38.417969 3.414062 38.617188 3.582031 38.738281 3.386719 C 38.855469 3.199219 38.796875 3.082031 39.011719 3.140625 C 39.222656 3.199219 39.332031 3.367188 39.105469 3.40625 C 39.011719 3.40625 38.695312 3.320312 38.726562 3.484375 C 38.746094 3.640625 38.957031 3.632812 39.054688 3.703125 C 39.144531 3.78125 39.054688 4.019531 38.921875 4.019531 C 38.796875 4 38.6875 3.960938 38.566406 3.917969 C 38.4375 3.917969 38.371094 3.832031 38.25 3.78125 C 38.132812 3.734375 37.914062 3.40625 37.644531 3.4375 C 37.496094 3.4375 37.402344 3.585938 37.292969 3.652344 C 37.183594 3.722656 37.054688 3.734375 36.945312 3.792969 C 36.835938 3.839844 36.734375 3.925781 36.648438 4.019531 C 36.570312 4.125 36.511719 4.234375 36.480469 4.359375 C 36.359375 4.871094 36.558594 5.625 37.191406 5.59375 C 37.4375 5.59375 37.753906 5.496094 37.914062 5.710938 C 37.976562 5.835938 38.03125 5.949219 38.070312 6.085938 C 38.070312 6.195312 38.179688 6.324219 38.203125 6.4375 C 38.199219 6.558594 38.183594 6.683594 38.152344 6.8125 C 38.144531 6.96875 38.164062 7.121094 38.21875 7.277344 C 38.308594 7.582031 38.289062 7.90625 38.65625 7.5625 C 38.746094 7.472656 38.882812 7.464844 38.972656 7.355469 C 39.070312 7.253906 38.972656 7.167969 39.125 6.980469 C 39.273438 6.792969 39.269531 6.429688 39.3125 6.308594 C 39.429688 6.027344 39.886719 5.503906 39.644531 5.210938 C 39.507812 5.089844 39.390625 4.933594 39.320312 4.757812 C 39.320312 4.65625 39.25 4.566406 39.203125 4.46875 C 39.164062 4.363281 39.070312 4.273438 39.121094 4.214844 C 39.328125 4.035156 39.382812 5.019531 39.746094 4.972656 C 40.101562 4.90625 39.597656 4.660156 39.570312 4.429688 C 39.546875 4.1875 39.6875 4.3125 39.796875 4.429688 C 39.863281 4.699219 39.894531 4.984375 39.894531 5.277344 C 39.894531 5.722656 39.816406 6.175781 39.644531 6.597656 C 39.476562 7.011719 39.242188 7.394531 38.933594 7.71875 C 38.628906 8.035156 38.269531 8.292969 37.875 8.480469 C 37.476562 8.65625 37.042969 8.753906 36.609375 8.753906 C 36.03125 8.765625 35.441406 8.597656 34.9375 8.289062 L 34.875 8.144531 C 34.808594 8.027344 34.734375 7.886719 34.828125 7.78125 C 34.925781 7.660156 34.925781 7.726562 34.972656 7.667969 C 34.992188 7.609375 35.023438 7.542969 35.035156 7.484375 C 35.035156 7.433594 35.332031 7.484375 35.363281 7.285156 C 35.417969 7.089844 35.363281 6.929688 35.417969 6.765625 C 35.460938 6.6875 35.480469 6.609375 35.480469 6.535156 C 35.480469 6.449219 35.460938 6.363281 35.417969 6.292969 C 35.195312 6.035156 34.828125 6.007812 34.621094 5.738281 C 34.417969 5.464844 34.144531 5.097656 33.898438 5.277344 C 33.808594 5.335938 33.828125 5.394531 33.808594 5.476562 C 33.789062 5.554688 33.71875 5.5625 33.6875 5.652344 C 33.660156 5.738281 33.65625 5.828125 33.679688 5.910156 C 33.6875 5.988281 33.71875 6.074219 33.765625 6.144531 C 33.816406 6.3125 33.882812 6.488281 33.964844 6.644531 C 34.066406 6.78125 34.160156 6.929688 34.222656 7.089844 C 34.28125 7.324219 34.328125 7.574219 34.398438 7.839844 L 34.339844 7.78125 C 34.011719 7.472656 33.757812 7.078125 33.578125 6.648438 C 33.402344 6.222656 33.308594 5.761719 33.308594 5.296875 C 33.308594 5.109375 33.320312 4.925781 33.351562 4.738281 L 33.351562 4.855469 C 33.351562 4.945312 33.480469 5.378906 33.617188 5.34375 C 33.597656 5.246094 33.558594 5.148438 33.511719 5.058594 C 33.480469 4.953125 33.480469 4.84375 33.511719 4.738281 C 33.511719 4.617188 33.578125 4.597656 33.511719 4.46875 L 33.46875 4.363281 C 33.460938 4.339844 33.46875 4.304688 33.472656 4.273438 C 33.480469 4.242188 33.492188 4.214844 33.511719 4.195312 L 33.726562 4.144531 C 33.804688 4.144531 33.886719 4.125 33.964844 4.085938 C 34.035156 4.058594 34.09375 4 34.144531 3.941406 C 34.195312 3.878906 34.230469 3.808594 34.25 3.722656 C 34.3125 3.566406 34.320312 3.445312 34.492188 3.398438 C 34.539062 3.40625 34.566406 3.398438 34.597656 3.386719 C 34.636719 3.378906 34.660156 3.367188 34.6875 3.335938 C 34.757812 3.277344 34.6875 3.199219 34.757812 3.113281 C 34.816406 3.015625 34.894531 3.1875 34.976562 3.113281 C 35.046875 3.050781 35.0625 3.035156 35.0625 2.960938 C 35.066406 2.882812 35.046875 2.804688 35.023438 2.734375 C 34.976562 2.660156 34.925781 2.597656 34.867188 2.550781 C 34.757812 2.492188 34.65625 2.550781 34.566406 2.621094 C 34.492188 2.695312 34.429688 2.75 34.332031 2.796875 C 34.707031 2.429688 35.140625 2.144531 35.625 1.976562 C 35.675781 2.046875 35.511719 2.097656 35.507812 2.164062 C 35.492188 2.214844 35.589844 2.324219 35.628906 2.363281 C 35.65625 2.394531 35.695312 2.410156 35.734375 2.410156 C 35.777344 2.410156 35.808594 2.394531 35.835938 2.363281 C 35.902344 2.316406 35.9375 2.246094 36.011719 2.226562 L 36.25 2.167969 C 36.402344 2.117188 36.546875 2.046875 36.6875 1.957031 C 36.757812 1.917969 36.835938 1.859375 36.902344 1.792969 C 37.292969 1.8125 37.679688 1.921875 38.042969 2.085938 Z M 36.527344 1.644531 C 37.449219 1.644531 38.328125 2.019531 38.976562 2.707031 C 39.636719 3.378906 39.992188 4.304688 39.996094 5.265625 C 39.996094 5.742188 39.914062 6.214844 39.738281 6.648438 C 39.558594 7.097656 39.300781 7.503906 38.976562 7.828125 C 38.65625 8.171875 38.273438 8.445312 37.863281 8.632812 C 37.429688 8.804688 36.976562 8.902344 36.527344 8.902344 C 36.066406 8.910156 35.617188 8.8125 35.191406 8.632812 C 34.769531 8.445312 34.382812 8.171875 34.066406 7.828125 C 33.738281 7.511719 33.480469 7.117188 33.3125 6.675781 C 33.125 6.242188 33.042969 5.769531 33.035156 5.296875 C 33.027344 4.816406 33.121094 4.34375 33.300781 3.90625 C 33.46875 3.464844 33.71875 3.0625 34.046875 2.738281 C 34.371094 2.394531 34.757812 2.117188 35.191406 1.9375 C 35.617188 1.761719 36.066406 1.671875 36.527344 1.671875 Z M 26.15625 5.59375 C 26.15625 5.59375 29.867188 8.675781 32.558594 8.84375 C 32.882812 8.871094 33.203125 8.84375 33.527344 8.78125 C 33.054688 8.332031 32.6875 7.789062 32.441406 7.1875 C 32.191406 6.578125 32.074219 5.925781 32.085938 5.265625 C 32.085938 4.875 32.132812 4.472656 32.214844 4.097656 C 31.152344 3.910156 29.433594 3.238281 27.171875 1.164062 L 27.984375 3.070312 C 27.984375 3.070312 23.6875 -2.167969 14.1875 1.730469 C 14.1875 1.730469 23.492188 -1.152344 28.332031 5.5625 C 28.332031 5.5625 25.691406 3.898438 23.035156 5.023438 C 24.132812 4.773438 25.285156 4.972656 26.242188 5.59375 Z M 26.15625 5.59375 "/>
<path style=" stroke:none;fill-rule:evenodd;fill:rgb(0%,0%,0%);fill-opacity:1;" d="M 28.253906 52.617188 L 29.707031 52.617188 L 29.707031 18.695312 L 28.253906 18.695312 Z M 28.253906 52.617188 "/>
<path style=" stroke:none;fill-rule:evenodd;fill:rgb(0%,0%,0%);fill-opacity:1;" d="M 31.035156 52.617188 L 31.695312 52.617188 L 31.695312 38.546875 L 31.035156 38.546875 Z M 31.035156 52.617188 "/>
<path style=" stroke:none;fill-rule:evenodd;fill:rgb(0%,0%,0%);fill-opacity:1;" d="M 43.242188 52.617188 L 44.707031 52.617188 L 44.707031 18.695312 L 43.242188 18.695312 Z M 43.242188 52.617188 "/>
<path style=" stroke:none;fill-rule:evenodd;fill:rgb(0%,0%,0%);fill-opacity:1;" d="M 41.417969 52.617188 L 42.074219 52.617188 L 42.074219 38.546875 L 41.417969 38.546875 Z M 41.417969 52.617188 "/>
<path style=" stroke:none;fill-rule:nonzero;fill:rgb(0%,0%,0%);fill-opacity:1;" d="M 11.375 60.386719 L 11.375 56.566406 L 9.40625 60.386719 L 8.125 60.386719 L 6.144531 56.566406 L 6.144531 60.386719 L 4.8125 60.386719 L 4.8125 55.1875 L 6.792969 55.1875 L 8.738281 59.011719 L 10.78125 55.1875 L 12.683594 55.1875 L 12.683594 60.386719 Z M 11.375 60.386719 "/>
<path style=" stroke:none;fill-rule:nonzero;fill:rgb(0%,0%,0%);fill-opacity:1;" d="M 17.242188 56.390625 L 17.242188 60.386719 L 15.925781 60.386719 L 15.925781 56.390625 L 13.867188 56.390625 L 13.867188 55.1875 L 19.363281 55.1875 L 19.363281 56.390625 Z M 17.242188 56.390625 "/>
<path style=" stroke:none;fill-rule:nonzero;fill:rgb(0%,0%,0%);fill-opacity:1;" d="M 31.601562 61.207031 L 31.601562 60.386719 L 27.636719 60.386719 L 27.636719 61.207031 L 26.3125 61.207031 L 26.3125 59.175781 L 26.640625 59.175781 C 26.984375 58.839844 27.351562 58.527344 27.351562 56.929688 L 27.351562 55.1875 L 32.460938 55.1875 L 32.460938 59.175781 L 32.9375 59.175781 L 32.9375 61.207031 Z M 31.132812 56.390625 L 28.667969 56.390625 L 28.667969 56.988281 C 28.667969 58.476562 28.363281 58.957031 28.113281 59.226562 L 31.132812 59.226562 Z M 31.132812 56.390625 "/>
<path style=" stroke:none;fill-rule:nonzero;fill:rgb(0%,0%,0%);fill-opacity:1;" d="M 36.527344 60.429688 L 35.03125 60.429688 C 33.597656 60.429688 33.292969 59.984375 33.292969 58.410156 C 33.292969 56.84375 33.578125 56.390625 35.03125 56.390625 L 36.527344 56.390625 C 37.957031 56.390625 38.261719 56.742188 38.261719 58.410156 C 38.261719 60.089844 37.957031 60.429688 36.527344 60.429688 Z M 36.527344 57.375 L 35.03125 57.375 C 34.488281 57.375 34.417969 57.550781 34.417969 58.410156 C 34.417969 59.273438 34.488281 59.421875 35.03125 59.421875 L 36.527344 59.421875 C 37.050781 59.421875 37.105469 59.273438 37.105469 58.410156 C 37.105469 57.554688 37.105469 57.375 36.539062 57.375 Z M 36.527344 57.375 "/>
<path style=" stroke:none;fill-rule:nonzero;fill:rgb(0%,0%,0%);fill-opacity:1;" d="M 43.160156 60.160156 C 42.773438 60.394531 42.308594 60.488281 41.863281 60.429688 L 40.4375 60.429688 C 39.082031 60.429688 38.773438 59.964844 38.773438 58.410156 C 38.773438 57.078125 39.011719 56.390625 40.4375 56.390625 L 41.863281 56.390625 C 42.882812 56.390625 43.554688 56.515625 43.554688 57.886719 L 42.40625 57.886719 C 42.4375 57.746094 42.398438 57.589844 42.3125 57.464844 C 42.179688 57.375 42.023438 57.335938 41.863281 57.347656 L 40.4375 57.347656 C 40.023438 57.347656 39.914062 57.484375 39.914062 58.386719 C 39.914062 59.285156 39.996094 59.394531 40.4375 59.394531 L 41.863281 59.394531 C 42.390625 59.394531 42.40625 59.265625 42.40625 58.765625 L 43.554688 58.765625 C 43.554688 59.53125 43.4375 59.925781 43.160156 60.160156 Z M 43.160156 60.160156 "/>
<path style=" stroke:none;fill-rule:nonzero;fill:rgb(0%,0%,0%);fill-opacity:1;" d="M 46.804688 57.335938 L 46.804688 60.375 L 45.667969 60.375 L 45.667969 57.335938 L 43.980469 57.335938 L 43.980469 56.421875 L 48.488281 56.421875 L 48.488281 57.335938 Z M 46.804688 57.335938 "/>
<path style=" stroke:none;fill-rule:nonzero;fill:rgb(0%,0%,0%);fill-opacity:1;" d="M 52.238281 60.375 L 52.289062 59.789062 L 52.238281 59.789062 C 52.160156 60.335938 51.664062 60.429688 51.21875 60.429688 L 50.011719 60.429688 C 49.21875 60.429688 48.761719 60.203125 48.761719 59.203125 C 48.761719 58.199219 49.191406 57.957031 50.011719 57.957031 L 51.25 57.957031 C 51.605469 57.957031 52.0625 57.957031 52.199219 58.410156 L 52.238281 58.410156 L 52.238281 57.78125 C 52.238281 57.414062 52.238281 57.179688 51.726562 57.179688 L 50.46875 57.179688 C 50.199219 57.179688 50 57.246094 50 57.613281 L 48.871094 57.613281 C 48.871094 56.382812 49.664062 56.390625 50.46875 56.390625 L 51.707031 56.390625 C 52.871094 56.390625 53.367188 56.554688 53.367188 57.886719 L 53.367188 60.347656 Z M 51.644531 58.742188 L 50.410156 58.742188 C 50.167969 58.742188 49.914062 58.800781 49.914062 59.164062 C 49.914062 59.523438 50.207031 59.589844 50.449219 59.589844 L 51.644531 59.589844 C 52.121094 59.589844 52.261719 59.523438 52.261719 59.109375 C 52.261719 58.695312 51.992188 58.742188 51.644531 58.742188 Z M 51.644531 58.742188 "/>
<path style=" stroke:none;fill-rule:nonzero;fill:rgb(0%,0%,0%);fill-opacity:1;" d="M 57.476562 60.375 L 54.199219 60.375 L 54.199219 56.421875 L 57.289062 56.421875 C 58.148438 56.421875 58.785156 56.496094 58.785156 57.425781 C 58.785156 57.859375 58.683594 58.242188 58.15625 58.300781 C 58.695312 58.300781 58.871094 58.703125 58.871094 59.164062 C 58.890625 60.261719 58.339844 60.375 57.476562 60.375 Z M 57.191406 57.265625 L 55.335938 57.265625 L 55.335938 58.015625 L 57.191406 58.015625 C 57.566406 58.015625 57.632812 57.925781 57.632812 57.628906 C 57.632812 57.324219 57.523438 57.265625 57.191406 57.265625 Z M 57.257812 58.714844 L 55.335938 58.714844 L 55.335938 59.542969 L 57.246094 59.542969 C 57.527344 59.542969 57.722656 59.492188 57.722656 59.125 C 57.722656 58.761719 57.585938 58.714844 57.257812 58.714844 Z M 57.257812 58.714844 "/>
<path style=" stroke:none;fill-rule:nonzero;fill:rgb(0%,0%,0%);fill-opacity:1;" d="M 63.980469 60.429688 C 63.265625 60.429688 62.859375 60.238281 62.859375 59.285156 L 62.859375 59.15625 C 62.859375 58.878906 62.800781 58.78125 62.394531 58.78125 L 60.683594 58.78125 L 60.683594 60.375 L 59.515625 60.375 L 59.515625 56.421875 L 60.65625 56.421875 L 60.65625 57.875 L 62.378906 57.875 C 62.761719 57.875 62.8125 57.828125 62.8125 57.550781 C 62.8125 56.480469 63.121094 56.390625 63.902344 56.390625 C 64.027344 56.398438 64.15625 56.410156 64.285156 56.441406 L 64.285156 57.195312 C 64.046875 57.195312 63.960938 57.257812 63.960938 57.453125 C 63.960938 58.003906 63.882812 58.203125 63.34375 58.289062 C 63.898438 58.289062 64.066406 58.585938 64.066406 59.203125 C 64.066406 59.394531 64.117188 59.582031 64.4375 59.582031 L 64.4375 60.375 C 64.285156 60.429688 64.136719 60.445312 63.980469 60.429688 Z M 63.980469 60.429688 "/>
<path style=" stroke:none;fill-rule:nonzero;fill:rgb(0%,0%,0%);fill-opacity:1;" d="M 68.277344 60.375 L 68.328125 59.789062 L 68.277344 59.789062 C 68.199219 60.335938 67.710938 60.429688 67.257812 60.429688 L 66.050781 60.429688 C 65.257812 60.429688 64.792969 60.203125 64.792969 59.203125 C 64.792969 58.199219 65.234375 57.957031 66.050781 57.957031 L 67.289062 57.957031 C 67.652344 57.957031 68.105469 57.957031 68.234375 58.410156 L 68.277344 58.410156 L 68.277344 57.78125 C 68.277344 57.414062 68.277344 57.179688 67.773438 57.179688 L 66.53125 57.179688 C 66.265625 57.179688 66.058594 57.246094 66.058594 57.613281 L 64.929688 57.613281 C 64.929688 56.382812 65.730469 56.390625 66.53125 56.390625 L 67.773438 56.390625 C 68.9375 56.390625 69.425781 56.554688 69.425781 57.886719 L 69.425781 60.347656 Z M 67.664062 58.742188 L 66.425781 58.742188 C 66.1875 58.742188 65.929688 58.800781 65.929688 59.164062 C 65.929688 59.523438 66.21875 59.589844 66.472656 59.589844 L 67.664062 59.589844 C 68.128906 59.589844 68.277344 59.523438 68.277344 59.109375 C 68.277344 58.695312 68.03125 58.742188 67.652344 58.742188 Z M 67.664062 58.742188 "/>
</g>
</svg>
