<svg width="26" height="25" viewBox="0 0 26 25" fill="none" xmlns="http://www.w3.org/2000/svg">
<g clip-path="url(#clip0)">
<path d="M23.4565 10.0545H22.0434V4.34799C22.0434 2.99941 20.9025 1.90234 19.5 1.90234H13.5795C11.6967 1.90234 10.0204 3.11802 9.50385 4.85859L6.99089 13.3154H5.08695V2.71758C5.08695 2.26724 4.70716 1.90234 4.23911 1.90234C3.77106 1.90234 3.39132 2.26724 3.39132 2.71758V19.8371H0.847842C0.379792 19.8371 0 20.202 0 20.6523C0 21.1026 0.379792 21.4675 0.847842 21.4675H4.23916C4.70721 21.4675 5.087 21.1026 5.087 20.6523V18.2067H6.78264V19.8371C6.78264 21.6352 8.30384 23.098 10.174 23.098C11.7509 23.098 13.0757 22.0565 13.4537 20.6523H19.329C19.7069 22.0565 21.0319 23.098 22.6087 23.098C24.4788 23.098 26.0001 21.6353 26.0001 19.8371V12.5002C26 11.1515 24.859 10.0545 23.4565 10.0545ZM10.1739 21.4675C9.23887 21.4675 8.47827 20.7362 8.47827 19.8371C8.47827 18.9381 9.23887 18.2067 10.1739 18.2067C11.1089 18.2067 11.8695 18.9381 11.8695 19.8371C11.8695 20.7362 11.1089 21.4675 10.1739 21.4675ZM20.3478 10.5322L18.6522 12.1626V7.60883C18.6522 7.15849 18.2724 6.79359 17.8043 6.79359C17.3363 6.79359 16.9565 7.15849 16.9565 7.60883V13.3154H8.75447L8.95861 12.6283L11.8695 10.7624V11.6849C11.8695 12.1353 12.2493 12.5002 12.7174 12.5002C13.1854 12.5002 13.5652 12.1353 13.5652 11.6849C13.5652 10.2743 13.5652 9.01781 13.5652 7.60888C13.5652 7.15853 13.1854 6.79364 12.7174 6.79364C12.2493 6.79364 11.8695 7.15853 11.8695 7.60888V8.80306L9.67787 10.2079L11.1343 5.30629C11.4445 4.26206 12.4497 3.53281 13.5795 3.53281H19.5C19.9675 3.53281 20.3478 3.89853 20.3478 4.34804V10.5322ZM22.6086 21.4675C21.6736 21.4675 20.913 20.7362 20.913 19.8371C20.913 18.9381 21.6736 18.2067 22.6086 18.2067C23.5437 18.2067 24.3043 18.9381 24.3043 19.8371C24.3043 20.7362 23.5437 21.4675 22.6086 21.4675Z" fill="white"/>
</g>
<defs>
<clipPath id="clip0">
<rect width="26" height="25" fill="white"/>
</clipPath>
</defs>
</svg>
