<svg width="26" height="25" viewBox="0 0 26 25" fill="none" xmlns="http://www.w3.org/2000/svg">
<g clip-path="url(#clip0)">
<path d="M14.6006 10.9624C14.43 10.7983 14.1944 10.714 13.9539 10.7358L7.63425 11.2874C7.32063 11.3155 7.04925 11.5155 6.94363 11.7999C6.83638 12.0858 6.9095 12.4046 7.13213 12.6186L8.85625 14.2765L0.238877 22.5624C-0.077998 22.8671 -0.077998 23.3624 0.238877 23.6671L1.38775 24.7718C1.70463 25.078 2.21813 25.078 2.53663 24.7718L11.154 16.4858L12.8781 18.1436C13.1008 18.3577 13.4323 18.428 13.7296 18.3265C13.8434 18.2858 13.9441 18.2233 14.027 18.1436C14.1586 18.0171 14.2448 17.8483 14.261 17.6608L14.8363 11.5843C14.859 11.353 14.7713 11.1265 14.6006 10.9624Z" fill="white"/>
<path d="M24.375 0H1.625C0.728 0 0 0.7 0 1.5625V17.1875H3.25V3.125H22.75V21.875H8.125V25H24.375C25.2736 25 26 24.3016 26 23.4375V1.5625C26 0.7 25.2736 0 24.375 0Z" fill="white"/>
</g>
<defs>
<clipPath id="clip0">
<rect width="26" height="25" fill="white"/>
</clipPath>
</defs>
</svg>
