<svg width="30" height="30" viewBox="0 0 30 30" fill="none" xmlns="http://www.w3.org/2000/svg">
<path d="M29.4864 5.36591C29.2133 2.80746 27.1928 0.786438 24.6341 0.513611C18.2176 -0.171204 11.7824 -0.171204 5.36613 0.513611C2.80746 0.786667 0.786667 2.80746 0.513611 5.36591C-0.171204 11.7822 -0.171204 18.2176 0.513611 24.6339C0.786667 27.1925 2.80746 29.2133 5.36591 29.4864C11.7822 30.1712 18.2176 30.1712 24.6341 29.4864C27.1928 29.2133 29.2133 27.1925 29.4864 24.6339C30.1712 18.2176 30.1712 11.7824 29.4864 5.36591Z" fill="url(#paint0_radial)"/>
<path d="M27.8547 6.45104C27.6125 4.18076 25.8194 2.38747 23.5489 2.14509C17.8553 1.53764 12.1447 1.53764 6.451 2.14509C4.18072 2.38747 2.38743 4.18076 2.14504 6.45104C1.53759 12.1447 1.53759 17.8553 2.14504 23.5487C2.38743 25.8193 4.18072 27.6125 6.451 27.8547C12.1447 28.4624 17.8553 28.4624 23.5487 27.8547C25.8192 27.6125 27.6125 25.8193 27.8547 23.5487C28.4623 17.8553 28.4623 12.1447 27.8547 6.45104Z" fill="url(#paint1_linear)"/>
<path d="M0.449463 24.012C0.470062 24.2193 0.491348 24.4267 0.51355 24.6341C0.786606 27.1925 2.8074 29.2133 5.36607 29.4864C11.7823 30.1712 18.2178 30.1712 24.634 29.4864C27.1927 29.2133 29.2133 27.1925 29.4863 24.6341C29.5085 24.4267 29.5298 24.2193 29.5506 24.012H0.449463Z" fill="url(#paint2_linear)"/>
<path d="M29.4864 24.6339C29.8544 21.1862 30.0243 17.7331 29.9968 14.2804L23.1395 7.42308C22.2828 6.44507 21.0315 5.83464 19.5611 5.78177C16.5374 5.67283 13.504 5.67832 10.4798 5.78223C7.96805 5.86875 6.21161 7.55698 5.76117 10.0383C5.68175 10.4764 5.63414 10.9202 5.57166 11.3615V18.6358C5.60622 18.8715 5.65703 19.1061 5.67282 19.3432C5.77353 20.8525 6.3938 22.1452 7.38692 23.0198L14.3651 29.9977C17.7896 30.0217 21.2144 29.8514 24.6341 29.4864C27.1928 29.2133 29.2133 27.1925 29.4864 24.6339Z" fill="url(#paint3_linear)"/>
<path d="M29.4864 24.6341C29.2136 27.1923 27.1923 29.2136 24.6341 29.4864C21.2148 29.8513 17.7894 30.0218 14.3653 29.9977L7.39771 23.0301C8.20543 23.7371 9.25829 24.1677 10.4801 24.2137C13.5036 24.3272 16.5376 24.3242 19.5612 24.2153C22.2959 24.1164 24.2748 22.0924 24.3601 19.3577C24.4512 16.4541 24.4512 13.543 24.3601 10.6394C24.3212 9.37778 23.8783 8.2677 23.1441 7.4277L29.997 14.2807C30.0241 17.7329 29.8542 21.1865 29.4864 24.6341Z" fill="url(#paint4_linear)"/>
<path d="M18.5399 11.7515C17.6614 10.795 16.401 10.1948 15 10.1948C12.3463 10.1948 10.1948 12.3463 10.1948 15C10.1948 16.401 10.795 17.6614 11.7514 18.5399L22.8689 29.6574C23.4574 29.6061 24.0458 29.5491 24.6338 29.4864C27.1925 29.2133 29.2133 27.1925 29.4864 24.6339C29.5491 24.0459 29.6061 23.4574 29.6573 22.8689L18.5399 11.7515Z" fill="url(#paint5_linear)"/>
<path d="M29.9419 18.2316L20.9944 9.28435C20.7857 9.01038 20.4568 8.83253 20.0858 8.83253C19.4545 8.83253 18.9425 9.34431 18.9425 9.9758C18.9425 10.3468 19.1203 10.6757 19.3943 10.8845L29.7819 21.2723C29.8524 20.259 29.9057 19.2453 29.9419 18.2316Z" fill="url(#paint6_linear)"/>
<path d="M5.57166 11.3615C5.63414 10.9202 5.68175 10.4764 5.76117 10.0383C6.21138 7.55698 7.96805 5.86875 10.4798 5.78223C13.504 5.67832 16.5374 5.67283 19.5611 5.78177C22.2949 5.88019 24.2747 7.90442 24.3601 10.6391C24.451 13.5429 24.451 16.4538 24.3601 19.3577C24.2747 22.0923 22.2956 24.1164 19.5614 24.215C16.5376 24.3242 13.5036 24.3269 10.48 24.2134C7.7458 24.1106 5.8557 22.0818 5.67282 19.343C5.65703 19.1061 5.60622 18.8713 5.57166 18.6355C5.57166 16.2108 5.57166 13.786 5.57166 11.3615ZM15.0025 22.5943C16.3863 22.5943 17.7715 22.6357 19.1535 22.5847C21.3203 22.5043 22.6531 21.2112 22.7037 19.0464C22.7664 16.349 22.7664 13.648 22.7037 10.9504C22.6531 8.78608 21.3194 7.46268 19.1535 7.41668C16.4044 7.35854 13.6523 7.359 10.9032 7.41668C8.7538 7.46177 7.41713 8.75838 7.35876 10.8989C7.28461 13.6304 7.28461 16.3666 7.35876 19.0981C7.41713 21.2384 8.7538 22.505 10.9035 22.5847C12.2681 22.6355 13.6361 22.5943 15.0025 22.5943Z" fill="url(#paint7_linear)"/>
<path d="M5.57166 11.3615C5.63414 10.9202 5.68175 10.4764 5.76117 10.0383C6.21138 7.55698 7.96805 5.86875 10.4798 5.78223C13.504 5.67832 16.5374 5.67283 19.5611 5.78177C22.2949 5.88019 24.2747 7.90442 24.3601 10.6391C24.451 13.5429 24.451 16.4538 24.3601 19.3577C24.2747 22.0923 22.2956 24.1164 19.5614 24.215C16.5376 24.3242 13.5036 24.3269 10.48 24.2134C7.7458 24.1106 5.8557 22.0818 5.67282 19.343C5.65703 19.1061 5.60622 18.8713 5.57166 18.6355C5.57166 16.2108 5.57166 13.786 5.57166 11.3615ZM15.0025 22.5943C16.3863 22.5943 17.7715 22.6357 19.1535 22.5847C21.3203 22.5043 22.6531 21.2112 22.7037 19.0464C22.7664 16.349 22.7664 13.648 22.7037 10.9504C22.6531 8.78608 21.3194 7.46268 19.1535 7.41668C16.4044 7.35854 13.6523 7.359 10.9032 7.41668C8.7538 7.46177 7.41713 8.75838 7.35876 10.8989C7.28461 13.6304 7.28461 16.3666 7.35876 19.0981C7.41713 21.2384 8.7538 22.505 10.9035 22.5847C12.2681 22.6355 13.6361 22.5943 15.0025 22.5943Z" fill="white"/>
<path d="M15 10.1951C12.3463 10.1951 10.1948 12.3464 10.1948 15C10.1948 17.6539 12.3463 19.8052 15 19.8052C17.6539 19.8052 19.8051 17.6539 19.8051 15C19.8051 12.3464 17.6539 10.1951 15 10.1951ZM15 18.1508C13.2598 18.1508 11.8492 16.7402 11.8492 15C11.8492 13.2598 13.2598 11.8492 15 11.8492C16.7402 11.8492 18.1508 13.2598 18.1508 15C18.1508 16.7402 16.7402 18.1508 15 18.1508Z" fill="white"/>
<path d="M21.2288 9.9758C21.2288 10.6071 20.717 11.1188 20.0858 11.1188C19.4545 11.1188 18.9425 10.6071 18.9425 9.9758C18.9425 9.34431 19.4545 8.83253 20.0858 8.83253C20.717 8.83253 21.2288 9.34431 21.2288 9.9758Z" fill="white"/>
<defs>
<radialGradient id="paint0_radial" cx="0" cy="0" r="1" gradientUnits="userSpaceOnUse" gradientTransform="translate(6.14983 26.2176) scale(33.0847)">
<stop stop-color="#FAE100"/>
<stop offset="0.0544" stop-color="#FADC04"/>
<stop offset="0.1167" stop-color="#FBCE0E"/>
<stop offset="0.1829" stop-color="#FCB720"/>
<stop offset="0.2514" stop-color="#FE9838"/>
<stop offset="0.3054" stop-color="#FF7950"/>
<stop offset="0.4922" stop-color="#FF1C74"/>
<stop offset="1" stop-color="#6C1CD1"/>
</radialGradient>
<linearGradient id="paint1_linear" x1="11.5062" y1="13.0348" x2="-39.3174" y2="-15.5535" gradientUnits="userSpaceOnUse">
<stop stop-color="#A1B5D8" stop-opacity="0"/>
<stop offset="0.3094" stop-color="#90A2BD" stop-opacity="0.309804"/>
<stop offset="0.7554" stop-color="#7C8B9C" stop-opacity="0.756863"/>
<stop offset="1" stop-color="#748290"/>
</linearGradient>
<linearGradient id="paint2_linear" x1="15" y1="26.4824" x2="15" y2="31.1586" gradientUnits="userSpaceOnUse">
<stop stop-color="#FAE100" stop-opacity="0"/>
<stop offset="0.3068" stop-color="#FCA800" stop-opacity="0.305882"/>
<stop offset="0.6275" stop-color="#FE7300" stop-opacity="0.627451"/>
<stop offset="0.8685" stop-color="#FF5200" stop-opacity="0.866667"/>
<stop offset="1" stop-color="#FF4500"/>
</linearGradient>
<linearGradient id="paint3_linear" x1="13.2933" y1="13.2508" x2="5.86878" y2="5.82632" gradientUnits="userSpaceOnUse">
<stop stop-color="#833AB4" stop-opacity="0"/>
<stop offset="1" stop-color="#833AB4"/>
</linearGradient>
<linearGradient id="paint4_linear" x1="20.5605" y1="27.4387" x2="16.8548" y2="9.96903" gradientUnits="userSpaceOnUse">
<stop stop-color="#833AB4" stop-opacity="0"/>
<stop offset="1" stop-color="#833AB4"/>
</linearGradient>
<linearGradient id="paint5_linear" x1="21.9706" y1="21.9706" x2="7.08636" y2="7.08636" gradientUnits="userSpaceOnUse">
<stop stop-color="#833AB4" stop-opacity="0"/>
<stop offset="1" stop-color="#833AB4"/>
</linearGradient>
<linearGradient id="paint6_linear" x1="23.0746" y1="12.9646" x2="18.1527" y2="8.0427" gradientUnits="userSpaceOnUse">
<stop stop-color="#833AB4" stop-opacity="0"/>
<stop offset="1" stop-color="#833AB4"/>
</linearGradient>
<linearGradient id="paint7_linear" x1="20.9565" y1="9.08492" x2="8.82084" y2="21.2206" gradientUnits="userSpaceOnUse">
<stop stop-color="#833AB4"/>
<stop offset="0.0922" stop-color="#9C3495"/>
<stop offset="0.2927" stop-color="#DC2546"/>
<stop offset="0.392" stop-color="#FD1D1D"/>
<stop offset="0.5589" stop-color="#FC6831"/>
<stop offset="0.6887" stop-color="#FC9B40"/>
<stop offset="0.7521" stop-color="#FCAF45"/>
<stop offset="0.7806" stop-color="#FDB750"/>
<stop offset="0.8656" stop-color="#FECB6A"/>
<stop offset="0.9415" stop-color="#FFD87A"/>
<stop offset="1" stop-color="#FFDC80"/>
</linearGradient>
</defs>
</svg>
