<svg width="50" height="50" viewBox="0 0 50 50" fill="none" xmlns="http://www.w3.org/2000/svg">
<g clip-path="url(#clip0)">
<path d="M49.144 8.94318C48.6889 4.67911 45.3213 1.31073 41.0568 0.856018C30.3627 -0.285339 19.6373 -0.285339 8.94356 0.856018C4.67911 1.31111 1.31111 4.67911 0.856018 8.94318C-0.285339 19.6369 -0.285339 30.3627 0.856018 41.0564C1.31111 45.3209 4.67911 48.6889 8.94318 49.144C19.6369 50.2853 30.3627 50.2853 41.0568 49.144C45.3213 48.6889 48.6889 45.3209 49.144 41.0564C50.2853 30.3627 50.2853 19.6373 49.144 8.94318Z" fill="url(#paint0_radial)"/>
<path d="M46.4246 10.7523C46.021 6.96851 43.0326 3.9797 39.2484 3.57572C29.7589 2.5633 20.2413 2.5633 10.7518 3.57572C6.96802 3.9797 3.97921 6.96851 3.57523 10.7523C2.56281 20.2418 2.56281 29.7594 3.57523 39.2485C3.97921 43.0327 6.96802 46.0215 10.7518 46.4251C20.2413 47.4379 29.7589 47.4379 39.248 46.4251C43.0322 46.0215 46.021 43.0327 46.4246 39.2485C47.4374 29.7594 47.4374 20.2418 46.4246 10.7523Z" fill="url(#paint1_linear)"/>
<path d="M0.749268 40.0195C0.7836 40.3651 0.819077 40.7108 0.856079 41.0564C1.31117 45.3204 4.67917 48.6884 8.94362 49.1435C19.6374 50.2849 30.3631 50.2849 41.0569 49.1435C45.3213 48.6884 48.6889 45.3204 49.144 41.0564C49.181 40.7108 49.2165 40.3651 49.2512 40.0195H0.749268Z" fill="url(#paint2_linear)"/>
<path d="M49.144 41.0567C49.7574 35.3106 50.0405 29.5554 49.9947 23.8009L38.5658 12.3721C37.138 10.7421 35.0525 9.72471 32.6019 9.63659C27.5623 9.45501 22.5067 9.46416 17.4664 9.63735C13.2801 9.78155 10.3527 12.5953 9.60199 16.7308C9.46962 17.4609 9.39027 18.2006 9.28613 18.9361V31.0599C9.34373 31.4528 9.42842 31.8438 9.45474 32.239C9.62259 34.7545 10.6564 36.909 12.3116 38.3666L23.9418 49.9965C29.6494 50.0365 35.3573 49.7527 41.0568 49.1443C45.3213 48.6892 48.6889 45.3212 49.144 41.0567Z" fill="url(#paint3_linear)"/>
<path d="M49.1439 41.0563C48.6891 45.32 45.3204 48.6887 41.0567 49.1434C35.3579 49.7515 29.6488 50.0357 23.942 49.9956L12.3293 38.3829C13.6756 39.5613 15.4303 40.2788 17.4666 40.3555C22.5058 40.5447 27.5626 40.5398 32.6018 40.3582C37.1596 40.1934 40.4578 36.82 40.6001 32.2622C40.7519 27.4229 40.7519 22.571 40.6001 17.7317C40.5352 15.629 39.7971 13.7789 38.5733 12.3789L49.9949 23.8005C50.0399 29.5542 49.7569 35.3102 49.1439 41.0563Z" fill="url(#paint4_linear)"/>
<path d="M30.8998 19.5866C29.4358 17.9924 27.335 16.9922 25 16.9922C20.5773 16.9922 16.9915 20.578 16.9915 25.0008C16.9915 27.3357 17.9917 29.4365 19.5858 30.9006L38.115 49.4297C39.0957 49.3443 40.0765 49.2493 41.0565 49.1447C45.3209 48.6897 48.6889 45.3217 49.144 41.0572C49.2485 40.0772 49.3435 39.0965 49.429 38.1157L30.8998 19.5866Z" fill="url(#paint5_linear)"/>
<path d="M49.9031 30.3858L34.9907 15.4737C34.6428 15.0171 34.0946 14.7207 33.4762 14.7207C32.4241 14.7207 31.5708 15.5737 31.5708 16.6261C31.5708 17.2445 31.8672 17.7927 32.3238 18.1406L49.6365 35.4536C49.754 33.7648 49.8428 32.0753 49.9031 30.3858Z" fill="url(#paint6_linear)"/>
<path d="M9.28613 18.9361C9.39027 18.2006 9.46962 17.4609 9.60199 16.7308C10.3523 12.5953 13.2801 9.78155 17.4664 9.63735C22.5067 9.46416 27.5623 9.45501 32.6019 9.63659C37.1582 9.80062 40.4579 13.1743 40.6002 17.7321C40.7517 22.5718 40.7517 27.4234 40.6002 32.2631C40.4579 36.8209 37.1594 40.1942 32.6023 40.3586C27.5627 40.5406 22.506 40.5452 17.4668 40.356C12.9097 40.1847 9.75954 36.8033 9.45474 32.2387C9.42842 31.8438 9.34373 31.4525 9.28613 31.0595C9.28613 27.0183 9.28613 22.977 9.28613 18.9361ZM25.0042 37.6574C27.3106 37.6574 29.6192 37.7265 31.9225 37.6414C35.5339 37.5075 37.7552 35.3522 37.8395 31.7443C37.944 27.2487 37.944 22.7469 37.8395 18.2509C37.7552 14.6438 35.5324 12.4381 31.9225 12.3614C27.3407 12.2645 22.7539 12.2653 18.1721 12.3614C14.5897 12.4366 12.3619 14.5976 12.2646 18.1651C12.1411 22.7176 12.1411 27.278 12.2646 31.8305C12.3619 35.3976 14.5897 37.5087 18.1725 37.6414C20.4468 37.7261 22.7268 37.6574 25.0042 37.6574Z" fill="url(#paint7_linear)"/>
<path d="M9.28613 18.9361C9.39027 18.2006 9.46962 17.4609 9.60199 16.7308C10.3523 12.5953 13.2801 9.78155 17.4664 9.63735C22.5067 9.46416 27.5623 9.45501 32.6019 9.63659C37.1582 9.80062 40.4579 13.1743 40.6002 17.7321C40.7517 22.5718 40.7517 27.4234 40.6002 32.2631C40.4579 36.8209 37.1594 40.1942 32.6023 40.3586C27.5627 40.5406 22.506 40.5452 17.4668 40.356C12.9097 40.1847 9.75954 36.8033 9.45474 32.2387C9.42842 31.8438 9.34373 31.4525 9.28613 31.0595C9.28613 27.0183 9.28613 22.977 9.28613 18.9361ZM25.0042 37.6574C27.3106 37.6574 29.6192 37.7265 31.9225 37.6414C35.5339 37.5075 37.7552 35.3522 37.8395 31.7443C37.944 27.2487 37.944 22.7469 37.8395 18.2509C37.7552 14.6438 35.5324 12.4381 31.9225 12.3614C27.3407 12.2645 22.7539 12.2653 18.1721 12.3614C14.5897 12.4366 12.3619 14.5976 12.2646 18.1651C12.1411 22.7176 12.1411 27.278 12.2646 31.8305C12.3619 35.3976 14.5897 37.5087 18.1725 37.6414C20.4468 37.7261 22.7268 37.6574 25.0042 37.6574Z" fill="white"/>
<path d="M25 16.9922C20.5773 16.9922 16.9915 20.5776 16.9915 25.0004C16.9915 29.4235 20.5773 33.009 25 33.009C29.4232 33.009 33.0086 29.4235 33.0086 25.0004C33.0086 20.5776 29.4232 16.9922 25 16.9922ZM25 30.2517C22.0997 30.2517 19.7487 27.9007 19.7487 25.0004C19.7487 22.1001 22.0997 19.7491 25 19.7491C27.9003 19.7491 30.2513 22.1001 30.2513 25.0004C30.2513 27.9007 27.9003 30.2517 25 30.2517Z" fill="white"/>
<path d="M35.3813 16.6261C35.3813 17.6782 34.5283 18.5312 33.4762 18.5312C32.4241 18.5312 31.5708 17.6782 31.5708 16.6261C31.5708 15.5737 32.4241 14.7207 33.4762 14.7207C34.5283 14.7207 35.3813 15.5737 35.3813 16.6261Z" fill="white"/>
</g>
<defs>
<radialGradient id="paint0_radial" cx="0" cy="0" r="1" gradientUnits="userSpaceOnUse" gradientTransform="translate(10.2497 43.696) scale(55.1412)">
<stop stop-color="#FAE100"/>
<stop offset="0.0544" stop-color="#FADC04"/>
<stop offset="0.1167" stop-color="#FBCE0E"/>
<stop offset="0.1829" stop-color="#FCB720"/>
<stop offset="0.2514" stop-color="#FE9838"/>
<stop offset="0.3054" stop-color="#FF7950"/>
<stop offset="0.4922" stop-color="#FF1C74"/>
<stop offset="1" stop-color="#6C1CD1"/>
</radialGradient>
<linearGradient id="paint1_linear" x1="19.1771" y1="21.7252" x2="-65.5288" y2="-25.9219" gradientUnits="userSpaceOnUse">
<stop stop-color="#A1B5D8" stop-opacity="0"/>
<stop offset="0.3094" stop-color="#90A2BD" stop-opacity="0.309804"/>
<stop offset="0.7554" stop-color="#7C8B9C" stop-opacity="0.756863"/>
<stop offset="1" stop-color="#748290"/>
</linearGradient>
<linearGradient id="paint2_linear" x1="25.0001" y1="44.1369" x2="25.0001" y2="51.9306" gradientUnits="userSpaceOnUse">
<stop stop-color="#FAE100" stop-opacity="0"/>
<stop offset="0.3068" stop-color="#FCA800" stop-opacity="0.305882"/>
<stop offset="0.6275" stop-color="#FE7300" stop-opacity="0.627451"/>
<stop offset="0.8685" stop-color="#FF5200" stop-opacity="0.866667"/>
<stop offset="1" stop-color="#FF4500"/>
</linearGradient>
<linearGradient id="paint3_linear" x1="22.1555" y1="22.085" x2="9.78134" y2="9.71084" gradientUnits="userSpaceOnUse">
<stop stop-color="#833AB4" stop-opacity="0"/>
<stop offset="1" stop-color="#833AB4"/>
</linearGradient>
<linearGradient id="paint4_linear" x1="34.2674" y1="45.7306" x2="28.0912" y2="16.6144" gradientUnits="userSpaceOnUse">
<stop stop-color="#833AB4" stop-opacity="0"/>
<stop offset="1" stop-color="#833AB4"/>
</linearGradient>
<linearGradient id="paint5_linear" x1="36.6177" y1="36.6184" x2="11.8107" y2="11.8114" gradientUnits="userSpaceOnUse">
<stop stop-color="#833AB4" stop-opacity="0"/>
<stop offset="1" stop-color="#833AB4"/>
</linearGradient>
<linearGradient id="paint6_linear" x1="38.4577" y1="21.6075" x2="30.2545" y2="13.4043" gradientUnits="userSpaceOnUse">
<stop stop-color="#833AB4" stop-opacity="0"/>
<stop offset="1" stop-color="#833AB4"/>
</linearGradient>
<linearGradient id="paint7_linear" x1="34.9276" y1="15.1418" x2="14.7014" y2="35.368" gradientUnits="userSpaceOnUse">
<stop stop-color="#833AB4"/>
<stop offset="0.0922" stop-color="#9C3495"/>
<stop offset="0.2927" stop-color="#DC2546"/>
<stop offset="0.392" stop-color="#FD1D1D"/>
<stop offset="0.5589" stop-color="#FC6831"/>
<stop offset="0.6887" stop-color="#FC9B40"/>
<stop offset="0.7521" stop-color="#FCAF45"/>
<stop offset="0.7806" stop-color="#FDB750"/>
<stop offset="0.8656" stop-color="#FECB6A"/>
<stop offset="0.9415" stop-color="#FFD87A"/>
<stop offset="1" stop-color="#FFDC80"/>
</linearGradient>
<clipPath id="clip0">
<rect width="50" height="50" fill="white"/>
</clipPath>
</defs>
</svg>
