<svg width="15" height="15" viewBox="0 0 15 15" fill="none" xmlns="http://www.w3.org/2000/svg">
<path d="M3.33339 8.0853L10.0086 14.7604C10.163 14.9149 10.3691 15 10.5888 15C10.8086 15 11.0147 14.9149 11.1691 14.7604L11.6606 14.2689C11.9805 13.9487 11.9805 13.4282 11.6606 13.1084L6.05532 7.50311L11.6669 1.89157C11.8213 1.73706 11.9065 1.53108 11.9065 1.31145C11.9065 1.09158 11.8213 0.885602 11.6669 0.730968L11.1753 0.239632C11.0208 0.0851202 10.8148 0 10.595 0C10.3753 0 10.1692 0.0851202 10.0148 0.239632L3.33339 6.9208C3.17864 7.0758 3.09364 7.28275 3.09413 7.50274C3.09364 7.7236 3.17864 7.93042 3.33339 8.0853Z" fill="white"/>
</svg>
