<?xml version="1.0" encoding="UTF-8"?>
<svg xmlns="http://www.w3.org/2000/svg" xmlns:xlink="http://www.w3.org/1999/xlink" width="47pt" height="40pt" viewBox="0 0 47 40" version="1.1">
<g id="surface1">
<path style=" stroke:none;fill-rule:evenodd;fill:rgb(0%,0%,0%);fill-opacity:1;" d="M 40.261719 0 L 39.804688 0 L 39.804688 34.625 L 40.261719 34.625 Z M 40.261719 0 "/>
<path style=" stroke:none;fill-rule:evenodd;fill:rgb(0%,0%,0%);fill-opacity:1;" d="M 36.765625 1.511719 L 36.765625 34.652344 L 37.210938 34.652344 L 37.210938 1.574219 L 36.765625 1.503906 Z M 36.765625 1.511719 "/>
<path style=" stroke:none;fill-rule:evenodd;fill:rgb(0%,0%,0%);fill-opacity:1;" d="M 34.152344 1.375 L 34.152344 34.625 L 34.613281 34.625 L 34.613281 1.375 Z M 34.152344 1.375 "/>
<path style=" stroke:none;fill-rule:evenodd;fill:rgb(0%,0%,0%);fill-opacity:1;" d="M 32.519531 1.597656 L 32.519531 34.613281 L 32.96875 34.613281 L 32.96875 1.511719 C 32.816406 1.527344 32.667969 1.558594 32.519531 1.601562 Z M 32.519531 1.597656 "/>
<path style=" stroke:none;fill-rule:evenodd;fill:rgb(0%,0%,0%);fill-opacity:1;" d="M 43.632812 34.625 L 44.082031 34.625 L 44.082031 0 L 43.632812 0 Z M 43.632812 34.625 "/>
<path style=" stroke:none;fill-rule:evenodd;fill:rgb(0%,0%,0%);fill-opacity:1;" d="M 16.855469 4.605469 L 16.855469 34.625 L 17.308594 34.625 L 17.308594 4.933594 Z M 16.855469 4.605469 "/>
<path style=" stroke:none;fill-rule:evenodd;fill:rgb(0%,0%,0%);fill-opacity:1;" d="M 10.191406 1.644531 L 10.191406 34.625 L 10.644531 34.625 L 10.644531 1.574219 Z M 10.191406 1.644531 "/>
<path style=" stroke:none;fill-rule:evenodd;fill:rgb(0%,0%,0%);fill-opacity:1;" d="M 6.824219 0 L 6.378906 0 L 6.378906 34.625 L 6.824219 34.625 Z M 6.824219 0 "/>
<path style=" stroke:none;fill-rule:evenodd;fill:rgb(0%,0%,0%);fill-opacity:1;" d="M 4.820312 34.625 L 5.265625 34.625 L 5.265625 0 L 4.820312 0 Z M 4.820312 34.625 "/>
<path style=" stroke:none;fill-rule:evenodd;fill:rgb(0%,0%,0%);fill-opacity:1;" d="M 11.472656 1.472656 L 11.472656 34.625 L 13.367188 34.625 L 13.367188 1.476562 C 12.734375 1.421875 12.101562 1.421875 11.472656 1.476562 Z M 11.472656 1.472656 "/>
<path style=" stroke:none;fill-rule:evenodd;fill:rgb(0%,0%,0%);fill-opacity:1;" d="M 9.570312 0.316406 L 9.570312 0 L 7.675781 0 L 7.675781 1.859375 C 8.257812 1.269531 8.890625 0.757812 9.570312 0.316406 Z M 9.570312 0.316406 "/>
<path style=" stroke:none;fill-rule:evenodd;fill:rgb(0%,0%,0%);fill-opacity:1;" d="M 7.675781 34.625 L 9.570312 34.625 L 9.570312 1.773438 C 8.855469 1.917969 8.207031 2.097656 7.675781 2.257812 Z M 7.675781 34.625 "/>
<path style=" stroke:none;fill-rule:evenodd;fill:rgb(0%,0%,0%);fill-opacity:1;" d="M 38.238281 34.625 L 39.414062 34.625 L 39.414062 0 L 38.238281 0 Z M 38.238281 34.625 "/>
<path style=" stroke:none;fill-rule:evenodd;fill:rgb(0%,0%,0%);fill-opacity:1;" d="M 30.5625 3.945312 L 30.5625 34.625 L 31.71875 34.625 L 31.71875 3.890625 C 31.332031 3.835938 30.941406 3.855469 30.5625 3.945312 Z M 30.5625 3.945312 "/>
<path style=" stroke:none;fill-rule:evenodd;fill:rgb(0%,0%,0%);fill-opacity:1;" d="M 30.5625 2.40625 L 30.5625 2.453125 C 30.953125 2.453125 31.351562 2.519531 31.71875 2.652344 L 31.71875 1.832031 C 31.324219 1.980469 30.929688 2.171875 30.5625 2.40625 Z M 30.5625 2.40625 "/>
<path style=" stroke:none;fill-rule:evenodd;fill:rgb(0%,0%,0%);fill-opacity:1;" d="M 28.96875 5.046875 L 28.96875 34.613281 L 30.128906 34.613281 L 30.128906 4.164062 L 30.09375 4.195312 C 29.730469 4.5 29.355469 4.785156 28.96875 5.054688 Z M 28.96875 5.046875 "/>
<path style=" stroke:none;fill-rule:evenodd;fill:rgb(0%,0%,0%);fill-opacity:1;" d="M 13.957031 3.835938 L 13.957031 40.238281 L 15.125 40.238281 L 15.125 3.628906 C 14.722656 3.601562 14.324219 3.679688 13.957031 3.835938 Z M 13.957031 3.835938 "/>
<path style=" stroke:none;fill-rule:evenodd;fill:rgb(0%,0%,0%);fill-opacity:1;" d="M 13.957031 1.542969 L 13.957031 3.484375 C 14.273438 3.140625 14.683594 2.914062 15.125 2.847656 L 15.125 1.929688 C 14.753906 1.738281 14.359375 1.609375 13.957031 1.542969 Z M 13.957031 1.542969 "/>
<path style=" stroke:none;fill-rule:evenodd;fill:rgb(0%,0%,0%);fill-opacity:1;" d="M 42.925781 0 L 41.757812 0 L 41.757812 34.625 L 42.925781 34.625 Z M 42.925781 0 "/>
<path style=" stroke:none;fill-rule:evenodd;fill:rgb(0%,0%,0%);fill-opacity:1;" d="M 3.054688 34.625 L 4.21875 34.625 L 4.21875 0 L 3.054688 0 Z M 3.054688 34.625 "/>
<path style=" stroke:none;fill-rule:evenodd;fill:rgb(0%,0%,0%);fill-opacity:1;" d="M 45.921875 0 L 45.921875 40.238281 L 46.359375 40.238281 L 46.359375 0 Z M 45.921875 0 "/>
<path style=" stroke:none;fill-rule:evenodd;fill:rgb(0%,0%,0%);fill-opacity:1;" d="M 44.933594 40.238281 L 45.378906 40.238281 L 45.378906 0 L 44.933594 0 Z M 44.933594 40.238281 "/>
<path style=" stroke:none;fill-rule:evenodd;fill:rgb(0%,0%,0%);fill-opacity:1;" d="M 0.984375 40.238281 L 1.421875 40.238281 L 1.421875 0 L 0.984375 0 Z M 0.984375 40.238281 "/>
<path style=" stroke:none;fill-rule:evenodd;fill:rgb(0%,0%,0%);fill-opacity:1;" d="M 0 40.238281 L 0.441406 40.238281 L 0.441406 0 L 0 0 Z M 0 40.238281 "/>
<path style=" stroke:none;fill-rule:evenodd;fill:rgb(0%,0%,0%);fill-opacity:1;" d="M 22.996094 29.722656 L 23.226562 35.238281 L 23.472656 29.695312 L 23.226562 29.605469 Z M 22.820312 26.003906 L 22.933594 28.53125 L 23.226562 28.664062 L 23.519531 28.53125 L 23.640625 25.953125 L 23.226562 25.835938 Z M 22.617188 21.21875 L 22.753906 24.59375 L 23.21875 24.800781 L 23.667969 24.589844 L 23.824219 21.183594 L 23.21875 20.96875 L 22.585938 21.21875 Z M 22.332031 14.910156 L 22.523438 19.230469 L 23.238281 19.59375 C 23.507812 19.480469 23.695312 19.390625 23.925781 19.277344 L 24.121094 14.871094 L 23.21875 14.546875 L 22.304688 14.910156 Z M 21.992188 6.289062 L 22.214844 12.335938 C 22.53125 12.53125 22.875 12.6875 23.234375 12.789062 C 23.574219 12.671875 23.914062 12.519531 24.234375 12.335938 L 24.523438 6.246094 C 24.117188 6.476562 23.671875 6.589844 23.21875 6.589844 C 22.789062 6.589844 22.367188 6.480469 21.992188 6.265625 Z M 23.296875 29.542969 C 24.015625 29.886719 24.464844 30.394531 23.683594 31.820312 C 23.859375 31.714844 24.015625 31.570312 24.136719 31.394531 C 24.257812 31.234375 24.359375 31.035156 24.402344 30.832031 C 24.457031 30.613281 24.464844 30.40625 24.445312 30.183594 C 24.421875 29.96875 24.359375 29.761719 24.257812 29.574219 C 24.195312 29.464844 24.125 29.359375 24.050781 29.257812 C 23.78125 29.339844 23.535156 29.410156 23.296875 29.53125 Z M 22.160156 26.503906 C 22.011719 26.527344 21.871094 26.585938 21.742188 26.679688 C 21.617188 26.773438 21.507812 26.875 21.421875 27.023438 C 21.347656 27.152344 21.285156 27.304688 21.253906 27.460938 C 21.222656 27.621094 21.222656 27.785156 21.25 27.945312 C 21.28125 28.109375 21.34375 28.257812 21.417969 28.386719 C 21.644531 28.730469 21.964844 28.980469 22.332031 29.109375 C 22.519531 28.914062 22.75 28.777344 23 28.691406 C 21.1875 27.914062 21.753906 26.964844 22.15625 26.503906 Z M 23.558594 14.417969 C 25.335938 15.074219 26.921875 15.613281 27.039062 16.886719 C 27.390625 15.035156 26.425781 14.25 25.144531 13.695312 C 24.644531 13.96875 24.140625 14.230469 23.558594 14.4375 Z M 20.96875 7.4375 C 19.457031 7.792969 18.089844 9.820312 19.308594 11.773438 C 19.816406 12.492188 20.484375 13.070312 21.25 13.4375 C 21.699219 13.269531 22.402344 13.035156 22.84375 12.875 C 18.820312 11.058594 20.054688 8.441406 20.96875 7.464844 Z M 25.476562 7.4375 C 26.984375 7.792969 28.347656 9.820312 27.128906 11.773438 C 25.226562 14.6875 19.609375 14.449219 19.390625 16.910156 C 19.007812 14.898438 20.179688 14.152344 21.628906 13.574219 C 27.964844 11.800781 26.488281 8.605469 25.46875 7.4375 Z M 23.472656 20.84375 C 24.894531 21.367188 26.203125 21.792969 26.277344 22.839844 C 26.554688 21.359375 25.792969 20.730469 24.769531 20.285156 Z M 21.414062 15.253906 C 20.207031 15.539062 19.101562 17.167969 20.085938 18.703125 C 20.519531 19.316406 21.085938 19.789062 21.730469 20.097656 L 23.089844 19.664062 C 19.679688 18.183594 20.695312 16.082031 21.429688 15.234375 Z M 25.050781 15.253906 C 26.257812 15.539062 27.355469 17.167969 26.378906 18.703125 C 24.855469 21.042969 20.363281 20.847656 20.183594 22.816406 C 19.886719 21.214844 20.816406 20.605469 21.984375 20.152344 C 27.046875 18.734375 25.875 16.183594 25.050781 15.234375 Z M 23.441406 25.734375 C 24.53125 26.125 25.5 26.460938 25.566406 27.253906 C 25.78125 26.148438 25.222656 25.667969 24.464844 25.3125 Z M 21.851562 21.457031 C 21.429688 21.542969 21.070312 21.808594 20.835938 22.191406 C 20.597656 22.566406 20.503906 23.035156 20.589844 23.484375 C 20.628906 23.707031 20.71875 23.914062 20.835938 24.105469 C 21.160156 24.566406 21.585938 24.925781 22.085938 25.152344 L 23.0625 24.820312 C 20.523438 23.714844 21.289062 22.113281 21.851562 21.476562 Z M 24.644531 21.457031 C 25.058594 21.542969 25.425781 21.808594 25.65625 22.191406 C 25.894531 22.570312 25.972656 23.035156 25.902344 23.484375 C 25.855469 23.707031 25.773438 23.914062 25.65625 24.105469 C 24.492188 25.894531 21.058594 25.742188 20.929688 27.253906 C 20.691406 26.027344 21.40625 25.5625 22.292969 25.210938 C 26.171875 24.121094 25.273438 22.164062 24.636719 21.457031 Z M 24.246094 26.503906 C 24.394531 26.53125 24.53125 26.589844 24.660156 26.6875 C 24.78125 26.777344 24.890625 26.902344 24.976562 27.035156 C 25.058594 27.179688 25.117188 27.332031 25.140625 27.488281 C 25.164062 27.652344 25.164062 27.816406 25.132812 27.980469 C 25.101562 28.136719 25.046875 28.28125 24.964844 28.417969 C 24.246094 29.738281 21.222656 29.078125 22.714844 31.820312 C 21.460938 30.894531 21.90625 29.277344 22.785156 28.949219 C 25.335938 28.125 24.6875 27.03125 24.246094 26.503906 Z M 29.707031 3.679688 C 29.707031 3.679688 27.347656 5.710938 25.636719 5.816406 C 25.433594 5.835938 25.226562 5.816406 25.023438 5.777344 C 25.335938 5.488281 25.589844 5.140625 25.765625 4.738281 C 25.9375 4.34375 26.035156 3.902344 26.035156 3.464844 C 26.035156 3.207031 26.003906 2.945312 25.9375 2.695312 C 26.625 2.574219 27.730469 2.128906 29.167969 0.765625 L 28.648438 2.019531 C 28.648438 2.019531 31.382812 -1.421875 37.421875 1.140625 C 37.421875 1.140625 31.507812 -0.757812 28.417969 3.65625 C 28.417969 3.65625 30.09375 2.566406 31.796875 3.304688 C 31.097656 3.136719 30.363281 3.269531 29.746094 3.679688 Z M 24.109375 1.40625 C 24.050781 1.433594 23.882812 1.492188 23.875 1.5625 C 23.867188 1.640625 24.058594 1.632812 24.113281 1.625 C 24.160156 1.609375 24.214844 1.609375 24.261719 1.625 C 24.316406 1.625 24.289062 1.714844 24.261719 1.734375 C 24.238281 1.765625 24.074219 1.675781 23.980469 1.683594 L 23.980469 1.808594 C 23.980469 1.84375 23.925781 1.808594 23.875 1.84375 C 23.828125 1.882812 23.777344 1.914062 23.722656 1.976562 C 23.667969 2.039062 23.449219 2.078125 23.472656 2.300781 C 23.492188 2.324219 23.519531 2.328125 23.550781 2.328125 C 23.578125 2.328125 23.613281 2.324219 23.640625 2.300781 C 23.691406 2.269531 23.738281 2.230469 23.789062 2.195312 C 23.851562 2.144531 23.914062 2.128906 23.984375 2.128906 C 24.050781 2.128906 24.117188 2.144531 24.175781 2.195312 C 24.175781 2.195312 24.257812 2.304688 24.300781 2.257812 C 24.34375 2.222656 24.261719 2.167969 24.257812 2.128906 C 24.21875 1.96875 24.382812 2.167969 24.402344 2.203125 C 24.425781 2.246094 24.554688 2.355469 24.628906 2.230469 C 24.703125 2.101562 24.667969 2.03125 24.800781 2.066406 C 24.9375 2.101562 25.011719 2.214844 24.863281 2.238281 C 24.800781 2.238281 24.601562 2.1875 24.621094 2.292969 C 24.636719 2.390625 24.769531 2.386719 24.832031 2.4375 C 24.890625 2.488281 24.832031 2.644531 24.746094 2.644531 C 24.667969 2.632812 24.597656 2.605469 24.523438 2.578125 C 24.4375 2.578125 24.398438 2.519531 24.316406 2.488281 C 24.246094 2.457031 24.105469 2.238281 23.9375 2.257812 C 23.839844 2.257812 23.78125 2.359375 23.710938 2.40625 C 23.640625 2.453125 23.558594 2.457031 23.492188 2.496094 C 23.417969 2.523438 23.355469 2.582031 23.300781 2.644531 C 23.25 2.71875 23.21875 2.785156 23.195312 2.867188 C 23.121094 3.207031 23.246094 3.699219 23.648438 3.679688 C 23.804688 3.679688 24.003906 3.617188 24.105469 3.761719 C 24.148438 3.835938 24.179688 3.914062 24.207031 4.007812 C 24.207031 4.078125 24.273438 4.15625 24.289062 4.234375 C 24.285156 4.3125 24.277344 4.398438 24.257812 4.480469 C 24.253906 4.582031 24.261719 4.679688 24.300781 4.785156 C 24.359375 4.988281 24.34375 5.199219 24.578125 4.972656 C 24.636719 4.917969 24.722656 4.910156 24.777344 4.835938 C 24.84375 4.769531 24.777344 4.710938 24.875 4.589844 C 24.972656 4.46875 24.96875 4.230469 24.996094 4.152344 C 25.070312 3.964844 25.359375 3.621094 25.207031 3.429688 C 25.125 3.351562 25.046875 3.242188 25.003906 3.128906 C 25.003906 3.066406 24.960938 3.003906 24.925781 2.941406 C 24.902344 2.867188 24.84375 2.816406 24.875 2.773438 C 25.007812 2.652344 25.039062 3.304688 25.273438 3.269531 C 25.5 3.230469 25.179688 3.066406 25.160156 2.914062 C 25.144531 2.753906 25.230469 2.835938 25.304688 2.914062 C 25.34375 3.089844 25.363281 3.273438 25.363281 3.472656 C 25.363281 3.761719 25.316406 4.058594 25.207031 4.34375 C 25.097656 4.609375 24.949219 4.867188 24.753906 5.078125 C 24.5625 5.285156 24.328125 5.457031 24.082031 5.582031 C 23.828125 5.691406 23.550781 5.753906 23.28125 5.753906 C 22.910156 5.765625 22.53125 5.65625 22.210938 5.453125 L 22.171875 5.355469 C 22.136719 5.28125 22.085938 5.1875 22.144531 5.121094 C 22.207031 5.035156 22.207031 5.082031 22.238281 5.046875 C 22.25 5.007812 22.269531 4.960938 22.273438 4.925781 C 22.273438 4.890625 22.464844 4.925781 22.484375 4.796875 C 22.519531 4.667969 22.484375 4.554688 22.519531 4.449219 C 22.550781 4.398438 22.558594 4.347656 22.558594 4.296875 C 22.558594 4.242188 22.550781 4.183594 22.519531 4.140625 C 22.378906 3.96875 22.144531 3.953125 22.015625 3.773438 C 21.886719 3.59375 21.707031 3.355469 21.550781 3.472656 C 21.5 3.507812 21.507812 3.546875 21.5 3.601562 C 21.484375 3.652344 21.441406 3.65625 21.417969 3.722656 C 21.402344 3.773438 21.402344 3.832031 21.414062 3.890625 C 21.417969 3.9375 21.441406 3.996094 21.472656 4.042969 C 21.503906 4.152344 21.542969 4.269531 21.597656 4.371094 C 21.664062 4.460938 21.722656 4.554688 21.761719 4.667969 C 21.796875 4.8125 21.828125 4.984375 21.871094 5.15625 L 21.832031 5.121094 C 21.628906 4.917969 21.460938 4.65625 21.351562 4.375 C 21.238281 4.089844 21.183594 3.792969 21.183594 3.484375 C 21.183594 3.363281 21.1875 3.238281 21.203125 3.113281 L 21.203125 3.195312 C 21.203125 3.253906 21.289062 3.539062 21.378906 3.515625 C 21.359375 3.453125 21.34375 3.386719 21.308594 3.328125 C 21.289062 3.257812 21.289062 3.183594 21.308594 3.113281 C 21.308594 3.039062 21.351562 3.023438 21.308594 2.941406 L 21.28125 2.867188 C 21.277344 2.851562 21.28125 2.832031 21.285156 2.816406 C 21.289062 2.789062 21.289062 2.773438 21.308594 2.757812 L 21.445312 2.722656 C 21.492188 2.722656 21.542969 2.71875 21.597656 2.6875 C 21.640625 2.671875 21.675781 2.632812 21.707031 2.589844 C 21.738281 2.554688 21.761719 2.503906 21.777344 2.453125 C 21.820312 2.347656 21.824219 2.265625 21.933594 2.234375 C 21.960938 2.238281 21.980469 2.234375 21.996094 2.230469 C 22.019531 2.222656 22.039062 2.214844 22.050781 2.195312 C 22.105469 2.160156 22.050781 2.101562 22.105469 2.046875 C 22.140625 1.984375 22.183594 2.097656 22.238281 2.046875 C 22.28125 2.007812 22.296875 1.996094 22.296875 1.945312 C 22.300781 1.898438 22.28125 1.84375 22.269531 1.796875 C 22.238281 1.75 22.207031 1.707031 22.171875 1.675781 C 22.105469 1.640625 22.039062 1.675781 21.980469 1.722656 C 21.933594 1.773438 21.890625 1.808594 21.828125 1.839844 C 22.0625 1.597656 22.339844 1.410156 22.648438 1.296875 C 22.683594 1.34375 22.582031 1.382812 22.582031 1.421875 C 22.566406 1.453125 22.628906 1.53125 22.648438 1.554688 C 22.667969 1.574219 22.695312 1.582031 22.71875 1.582031 C 22.75 1.582031 22.769531 1.574219 22.785156 1.554688 C 22.824219 1.527344 22.851562 1.476562 22.902344 1.464844 L 23.046875 1.421875 C 23.144531 1.390625 23.234375 1.34375 23.328125 1.285156 C 23.375 1.261719 23.417969 1.222656 23.460938 1.183594 C 23.710938 1.191406 23.957031 1.265625 24.1875 1.375 Z M 23.226562 1.078125 C 23.8125 1.078125 24.367188 1.328125 24.78125 1.78125 C 25.199219 2.222656 25.429688 2.832031 25.433594 3.464844 C 25.433594 3.773438 25.378906 4.085938 25.269531 4.375 C 25.152344 4.671875 24.988281 4.933594 24.78125 5.148438 C 24.578125 5.378906 24.332031 5.554688 24.074219 5.679688 C 23.796875 5.789062 23.507812 5.851562 23.226562 5.851562 C 22.933594 5.859375 22.644531 5.796875 22.371094 5.679688 C 22.109375 5.554688 21.859375 5.378906 21.664062 5.148438 C 21.449219 4.9375 21.289062 4.679688 21.1875 4.390625 C 21.066406 4.109375 21.007812 3.792969 21.003906 3.484375 C 21 3.167969 21.0625 2.855469 21.179688 2.570312 C 21.28125 2.28125 21.441406 2.015625 21.648438 1.800781 C 21.855469 1.574219 22.105469 1.390625 22.371094 1.277344 C 22.644531 1.15625 22.933594 1.097656 23.226562 1.097656 Z M 16.632812 3.679688 C 16.632812 3.679688 18.988281 5.710938 20.695312 5.816406 C 20.90625 5.835938 21.109375 5.816406 21.320312 5.777344 C 21.023438 5.476562 20.78125 5.128906 20.625 4.730469 C 20.46875 4.328125 20.394531 3.894531 20.402344 3.464844 C 20.402344 3.207031 20.433594 2.945312 20.484375 2.695312 C 19.804688 2.574219 18.714844 2.128906 17.277344 0.765625 L 17.792969 2.019531 C 17.792969 2.019531 15.058594 -1.421875 9.019531 1.140625 C 9.019531 1.140625 14.933594 -0.757812 18.015625 3.65625 C 18.015625 3.65625 16.335938 2.566406 14.648438 3.304688 C 15.34375 3.140625 16.074219 3.269531 16.6875 3.679688 Z M 16.632812 3.679688 "/>
<path style=" stroke:none;fill-rule:evenodd;fill:rgb(0%,0%,0%);fill-opacity:1;" d="M 17.960938 34.613281 L 18.890625 34.613281 L 18.890625 12.296875 L 17.960938 12.296875 Z M 17.960938 34.613281 "/>
<path style=" stroke:none;fill-rule:evenodd;fill:rgb(0%,0%,0%);fill-opacity:1;" d="M 19.730469 34.613281 L 20.152344 34.613281 L 20.152344 25.355469 L 19.730469 25.355469 Z M 19.730469 34.613281 "/>
<path style=" stroke:none;fill-rule:evenodd;fill:rgb(0%,0%,0%);fill-opacity:1;" d="M 27.492188 34.613281 L 28.425781 34.613281 L 28.425781 12.296875 L 27.492188 12.296875 Z M 27.492188 34.613281 "/>
<path style=" stroke:none;fill-rule:evenodd;fill:rgb(0%,0%,0%);fill-opacity:1;" d="M 26.335938 34.613281 L 26.75 34.613281 L 26.75 25.355469 L 26.335938 25.355469 Z M 26.335938 34.613281 "/>
<path style=" stroke:none;fill-rule:nonzero;fill:rgb(0%,0%,0%);fill-opacity:1;" d="M 7.234375 39.730469 L 7.234375 37.207031 L 5.976562 39.730469 L 5.167969 39.730469 L 3.910156 37.207031 L 3.910156 39.730469 L 3.054688 39.730469 L 3.054688 36.300781 L 4.320312 36.300781 L 5.554688 38.816406 L 6.851562 36.300781 L 8.066406 36.300781 L 8.066406 39.730469 Z M 7.234375 39.730469 "/>
<path style=" stroke:none;fill-rule:nonzero;fill:rgb(0%,0%,0%);fill-opacity:1;" d="M 10.964844 37.09375 L 10.964844 39.730469 L 10.125 39.730469 L 10.125 37.09375 L 8.816406 37.09375 L 8.816406 36.300781 L 12.308594 36.300781 L 12.308594 37.09375 Z M 10.964844 37.09375 "/>
<path style=" stroke:none;fill-rule:nonzero;fill:rgb(0%,0%,0%);fill-opacity:1;" d="M 20.089844 40.261719 L 20.089844 39.730469 L 17.570312 39.730469 L 17.570312 40.261719 L 16.730469 40.261719 L 16.730469 38.925781 L 16.9375 38.925781 C 17.15625 38.707031 17.394531 38.5 17.394531 37.449219 L 17.394531 36.300781 L 20.640625 36.300781 L 20.640625 38.925781 L 20.941406 38.925781 L 20.941406 40.261719 Z M 19.792969 37.09375 L 18.226562 37.09375 L 18.226562 37.484375 C 18.226562 38.46875 18.035156 38.785156 17.875 38.957031 L 19.792969 38.957031 Z M 19.792969 37.09375 "/>
<path style=" stroke:none;fill-rule:nonzero;fill:rgb(0%,0%,0%);fill-opacity:1;" d="M 23.226562 39.75 L 22.273438 39.75 C 21.359375 39.75 21.167969 39.460938 21.167969 38.421875 C 21.167969 37.390625 21.351562 37.09375 22.273438 37.09375 L 23.226562 37.09375 C 24.136719 37.09375 24.328125 37.320312 24.328125 38.421875 C 24.328125 39.527344 24.136719 39.75 23.226562 39.75 Z M 23.226562 37.742188 L 22.273438 37.742188 C 21.929688 37.742188 21.886719 37.855469 21.886719 38.421875 C 21.886719 38.988281 21.929688 39.085938 22.273438 39.085938 L 23.226562 39.085938 C 23.558594 39.085938 23.597656 38.988281 23.597656 38.421875 C 23.597656 37.859375 23.597656 37.742188 23.234375 37.742188 Z M 23.226562 37.742188 "/>
<path style=" stroke:none;fill-rule:nonzero;fill:rgb(0%,0%,0%);fill-opacity:1;" d="M 27.445312 39.574219 C 27.195312 39.730469 26.902344 39.792969 26.617188 39.75 L 25.710938 39.75 C 24.851562 39.75 24.648438 39.445312 24.648438 38.421875 C 24.648438 37.546875 24.800781 37.09375 25.710938 37.09375 L 26.617188 37.09375 C 27.269531 37.09375 27.695312 37.175781 27.695312 38.078125 L 26.957031 38.078125 C 26.984375 37.984375 26.957031 37.882812 26.90625 37.800781 C 26.820312 37.742188 26.71875 37.714844 26.617188 37.722656 L 25.710938 37.722656 C 25.449219 37.722656 25.378906 37.816406 25.378906 38.40625 C 25.378906 38.996094 25.433594 39.074219 25.710938 39.074219 L 26.617188 39.074219 C 26.953125 39.074219 26.957031 38.984375 26.957031 38.65625 L 27.695312 38.65625 C 27.695312 39.160156 27.617188 39.417969 27.445312 39.574219 Z M 27.445312 39.574219 "/>
<path style=" stroke:none;fill-rule:nonzero;fill:rgb(0%,0%,0%);fill-opacity:1;" d="M 29.761719 37.714844 L 29.761719 39.71875 L 29.035156 39.71875 L 29.035156 37.714844 L 27.964844 37.714844 L 27.964844 37.109375 L 30.828125 37.109375 L 30.828125 37.714844 Z M 29.761719 37.714844 "/>
<path style=" stroke:none;fill-rule:nonzero;fill:rgb(0%,0%,0%);fill-opacity:1;" d="M 33.214844 39.71875 L 33.246094 39.332031 L 33.214844 39.332031 C 33.167969 39.6875 32.847656 39.75 32.566406 39.75 L 31.800781 39.75 C 31.292969 39.75 31.003906 39.601562 31.003906 38.945312 C 31.003906 38.289062 31.277344 38.121094 31.800781 38.121094 L 32.589844 38.121094 C 32.808594 38.121094 33.101562 38.121094 33.191406 38.421875 L 33.214844 38.421875 L 33.214844 38.007812 C 33.214844 37.765625 33.214844 37.613281 32.890625 37.613281 L 32.089844 37.613281 C 31.921875 37.613281 31.796875 37.65625 31.796875 37.898438 L 31.070312 37.898438 C 31.070312 37.089844 31.574219 37.09375 32.089844 37.09375 L 32.878906 37.09375 C 33.617188 37.09375 33.933594 37.199219 33.933594 38.078125 L 33.933594 39.699219 Z M 32.835938 38.640625 L 32.050781 38.640625 C 31.894531 38.640625 31.734375 38.679688 31.734375 38.917969 C 31.734375 39.152344 31.921875 39.203125 32.074219 39.203125 L 32.835938 39.203125 C 33.136719 39.203125 33.226562 39.152344 33.226562 38.882812 C 33.226562 38.613281 33.058594 38.640625 32.835938 38.640625 Z M 32.835938 38.640625 "/>
<path style=" stroke:none;fill-rule:nonzero;fill:rgb(0%,0%,0%);fill-opacity:1;" d="M 36.542969 39.71875 L 34.460938 39.71875 L 34.460938 37.109375 L 36.421875 37.109375 C 36.976562 37.109375 37.375 37.164062 37.375 37.777344 C 37.375 38.058594 37.3125 38.308594 36.980469 38.355469 C 37.324219 38.355469 37.429688 38.617188 37.429688 38.917969 C 37.441406 39.640625 37.09375 39.71875 36.542969 39.71875 Z M 36.359375 37.671875 L 35.183594 37.671875 L 35.183594 38.164062 L 36.359375 38.164062 C 36.601562 38.164062 36.644531 38.101562 36.644531 37.910156 C 36.644531 37.707031 36.574219 37.671875 36.359375 37.671875 Z M 36.40625 38.621094 L 35.183594 38.621094 L 35.183594 39.167969 L 36.402344 39.167969 C 36.578125 39.167969 36.703125 39.136719 36.703125 38.890625 C 36.703125 38.652344 36.613281 38.621094 36.40625 38.621094 Z M 36.40625 38.621094 "/>
<path style=" stroke:none;fill-rule:nonzero;fill:rgb(0%,0%,0%);fill-opacity:1;" d="M 40.675781 39.75 C 40.226562 39.75 39.964844 39.625 39.964844 38.996094 L 39.964844 38.914062 C 39.964844 38.730469 39.929688 38.667969 39.667969 38.667969 L 38.582031 38.667969 L 38.582031 39.71875 L 37.84375 39.71875 L 37.84375 37.109375 L 38.566406 37.109375 L 38.566406 38.070312 L 39.660156 38.070312 C 39.90625 38.070312 39.933594 38.039062 39.933594 37.855469 C 39.933594 37.15625 40.132812 37.09375 40.628906 37.09375 C 40.707031 37.097656 40.789062 37.105469 40.871094 37.128906 L 40.871094 37.625 C 40.722656 37.625 40.667969 37.667969 40.667969 37.792969 C 40.667969 38.15625 40.617188 38.289062 40.277344 38.347656 C 40.628906 38.347656 40.734375 38.539062 40.734375 38.945312 C 40.734375 39.074219 40.769531 39.199219 40.96875 39.199219 L 40.96875 39.71875 C 40.871094 39.75 40.777344 39.761719 40.675781 39.75 Z M 40.675781 39.75 "/>
<path style=" stroke:none;fill-rule:nonzero;fill:rgb(0%,0%,0%);fill-opacity:1;" d="M 43.414062 39.71875 L 43.441406 39.332031 L 43.414062 39.332031 C 43.367188 39.6875 43.050781 39.75 42.765625 39.75 L 41.996094 39.75 C 41.488281 39.75 41.199219 39.601562 41.199219 38.945312 C 41.199219 38.289062 41.476562 38.121094 41.996094 38.121094 L 42.78125 38.121094 C 43.015625 38.121094 43.304688 38.121094 43.382812 38.421875 L 43.414062 38.421875 L 43.414062 38.007812 C 43.414062 37.765625 43.414062 37.613281 43.09375 37.613281 L 42.300781 37.613281 C 42.132812 37.613281 42.003906 37.65625 42.003906 37.898438 L 41.28125 37.898438 C 41.28125 37.089844 41.792969 37.09375 42.300781 37.09375 L 43.09375 37.09375 C 43.828125 37.09375 44.140625 37.199219 44.140625 38.078125 L 44.140625 39.699219 Z M 43.023438 38.640625 L 42.234375 38.640625 C 42.082031 38.640625 41.917969 38.679688 41.917969 38.917969 C 41.917969 39.152344 42.105469 39.203125 42.265625 39.203125 L 43.023438 39.203125 C 43.320312 39.203125 43.414062 39.152344 43.414062 38.882812 C 43.414062 38.613281 43.253906 38.640625 43.015625 38.640625 Z M 43.023438 38.640625 "/>
</g>
</svg>
