<svg width="18" height="18" viewBox="0 0 18 18" fill="none" xmlns="http://www.w3.org/2000/svg">
<g clip-path="url(#clip0)">
<path d="M17.2377 6.55556C16.944 6.26344 16.4691 6.26474 16.177 6.55841L7.16103 15.6231C5.99132 16.7928 4.09154 16.7928 2.91965 15.6216C1.74863 14.4499 1.74863 12.5502 2.91979 11.379L12.2026 2.04741C12.9329 1.31716 14.1202 1.31716 14.8526 2.04899C15.5848 2.78117 15.5848 3.96832 14.8524 4.70071L7.16244 12.3906C7.16194 12.3911 7.16152 12.3917 7.16103 12.3922C6.86807 12.6835 6.39461 12.6831 6.10224 12.3908C5.80938 12.0979 5.80938 11.6232 6.10224 11.3304L9.81412 7.61773C10.107 7.3248 10.1069 6.8499 9.81402 6.55704C9.52109 6.26418 9.04619 6.26422 8.75333 6.55714L5.04148 10.2697C4.16287 11.1483 4.16287 12.5728 5.04155 13.4514C5.9202 14.3301 7.34462 14.3301 8.2233 13.4514C8.22432 13.4504 8.22513 13.4493 8.22611 13.4483L15.9131 5.76133C17.2312 4.44315 17.2312 2.30623 15.9131 0.988054C14.5947 -0.329351 12.4579 -0.329351 11.1405 0.988054L1.85769 10.3197C0.102157 12.0753 0.102157 14.9246 1.85896 16.6822C3.61692 18.4393 6.46626 18.4393 8.22316 16.6824L17.2406 7.61625C17.5326 7.32255 17.5313 6.84768 17.2377 6.55556Z" fill="#515151"/>
</g>
<defs>
<clipPath id="clip0">
<rect width="18" height="18" fill="white"/>
</clipPath>
</defs>
</svg>
