<svg width="15" height="15" viewBox="0 0 15 15" fill="none" xmlns="http://www.w3.org/2000/svg">
<path d="M14.7434 5.47348L14.0098 4.73985C13.6671 4.39714 13.1095 4.3972 12.7668 4.73985L11.2214 6.28512V1.31836C11.2214 0.591416 10.63 0 9.90305 0H1.31882C0.59186 0 0.000427246 0.591416 0.000427246 1.31836V13.6816C0.000427246 14.4086 0.59186 15 1.31882 15H9.90305C10.63 15 11.2214 14.4086 11.2214 13.6816V10.1943L14.7434 6.71646C15.0861 6.37377 15.0861 5.81616 14.7434 5.47348ZM9.48743 10.6714L8.16546 11.2883L8.78179 9.9677L12.0624 6.68719L12.7877 7.41246L9.48743 10.6714ZM10.3425 13.6816C10.3425 13.924 10.1454 14.1211 9.90305 14.1211H1.31882C1.0765 14.1211 0.879358 13.924 0.879358 13.6816V1.31836C0.879358 1.07604 1.0765 0.878906 1.31882 0.878906H9.90305C10.1454 0.878906 10.3425 1.07604 10.3425 1.31836V7.16402C7.90556 9.60091 8.0647 9.42583 8.01803 9.52582L6.8579 12.0118C6.77977 12.1793 6.81472 12.3777 6.94539 12.5084C7.07605 12.6391 7.27458 12.674 7.44198 12.5958L9.92801 11.4357C10.0192 11.3932 10.0342 11.3667 10.3425 11.0622V13.6816ZM13.4131 6.79491L12.6839 6.06571L13.3883 5.36133L14.1217 6.09519L13.4131 6.79491Z" fill="#515151"/>
<path d="M2.34407 3.7207H8.90674C9.14944 3.7207 9.34621 3.52395 9.34621 3.28125C9.34621 3.03855 9.14944 2.8418 8.90674 2.8418H2.34407C2.10137 2.8418 1.9046 3.03855 1.9046 3.28125C1.9046 3.52395 2.10137 3.7207 2.34407 3.7207Z" fill="#515151"/>
<path d="M2.34407 6.06445H7.50045C7.74316 6.06445 7.93992 5.8677 7.93992 5.625C7.93992 5.3823 7.74316 5.18555 7.50045 5.18555H2.34407C2.10137 5.18555 1.9046 5.3823 1.9046 5.625C1.9046 5.8677 2.10137 6.06445 2.34407 6.06445Z" fill="#515151"/>
<path d="M6.09417 7.5293H2.34407C2.10137 7.5293 1.9046 7.72605 1.9046 7.96875C1.9046 8.21145 2.10137 8.4082 2.34407 8.4082H6.09417C6.33687 8.4082 6.53364 8.21145 6.53364 7.96875C6.53364 7.72605 6.33687 7.5293 6.09417 7.5293Z" fill="#515151"/>
</svg>
