<svg width="25" height="25" viewBox="0 0 25 25" fill="none" xmlns="http://www.w3.org/2000/svg">
<path d="M23.0263 16.4605C21.4842 16.4605 19.9737 16.2197 18.5421 15.7474C17.8434 15.5066 17.05 15.6921 16.5908 16.1605L13.7526 18.304C10.4961 16.5658 8.41185 14.4829 6.69739 11.25L8.7829 8.47895C9.3079 7.95395 9.49608 7.18551 9.27108 6.46579C8.79474 5.025 8.55266 3.51316 8.55266 1.97369C8.55266 0.885506 7.66715 0 6.57897 0H1.97369C0.885506 0 0 0.885506 0 1.97369C0 14.6697 10.3303 25 23.0263 25C24.1145 25 25 24.1145 25 23.0263V18.4342C25 17.346 24.1145 16.4605 23.0263 16.4605Z" fill="white"/>
</svg>
