<svg width="15" height="15" viewBox="0 0 15 15" fill="none" xmlns="http://www.w3.org/2000/svg">
<g clip-path="url(#clip0)">
<path d="M11.8547 9.29189C11.5477 8.97214 11.1772 8.80118 10.7847 8.80118C10.3953 8.80118 10.0217 8.96897 9.70196 9.28872L8.70155 10.286C8.61924 10.2416 8.53693 10.2005 8.45778 10.1593C8.34381 10.1023 8.23617 10.0485 8.14436 9.99154C7.20727 9.39636 6.35566 8.62073 5.53887 7.61715C5.14314 7.11695 4.8772 6.69589 4.68409 6.2685C4.94369 6.03106 5.18429 5.78412 5.41856 5.54668C5.50721 5.45804 5.59585 5.36623 5.6845 5.27759C6.34933 4.61276 6.34933 3.75165 5.6845 3.08682L4.82022 2.22254C4.72208 2.1244 4.62077 2.02309 4.52579 1.92178C4.33584 1.7255 4.13639 1.52289 3.93061 1.33293C3.62353 1.02901 3.25629 0.867554 2.87005 0.867554C2.48382 0.867554 2.11025 1.02901 1.79366 1.33293C1.7905 1.3361 1.7905 1.3361 1.78733 1.33927L0.710942 2.42515C0.305713 2.83038 0.0746059 3.32426 0.0239523 3.89728C-0.0520281 4.8217 0.220235 5.68282 0.429181 6.24634C0.94205 7.62982 1.70819 8.91199 2.85106 10.286C4.2377 11.9417 5.90611 13.2492 7.81195 14.1705C8.5401 14.5155 9.51201 14.9239 10.5979 14.9936C10.6644 14.9968 10.734 14.9999 10.7973 14.9999C11.5287 14.9999 12.1428 14.7372 12.624 14.2148C12.6272 14.2085 12.6335 14.2053 12.6367 14.199C12.8013 13.9995 12.9913 13.8191 13.1907 13.6259C13.3269 13.4961 13.4662 13.36 13.6023 13.2175C13.9157 12.8915 14.0803 12.5116 14.0803 12.1222C14.0803 11.7296 13.9125 11.3529 13.5928 11.0363L11.8547 9.29189ZM12.9881 12.6255C12.985 12.6255 12.985 12.6287 12.9881 12.6255C12.8646 12.7585 12.738 12.8788 12.6019 13.0118C12.3961 13.208 12.1872 13.4138 11.9909 13.6449C11.6711 13.9868 11.2944 14.1483 10.8005 14.1483C10.753 14.1483 10.7024 14.1483 10.6549 14.1451C9.71463 14.085 8.84085 13.7178 8.18552 13.4043C6.39365 12.5369 4.82022 11.3054 3.51272 9.74461C2.43317 8.44344 1.71135 7.24042 1.23331 5.94875C0.938884 5.16045 0.831245 4.54627 0.878732 3.96692C0.910391 3.59652 1.05285 3.28943 1.31562 3.02667L2.39518 1.94711C2.5503 1.80148 2.71493 1.72233 2.87639 1.72233C3.07583 1.72233 3.23729 1.84264 3.3386 1.94394C3.34177 1.94711 3.34493 1.95028 3.3481 1.95344C3.54121 2.1339 3.72483 2.32068 3.91795 2.52013C4.01609 2.62144 4.1174 2.72274 4.21871 2.82722L5.08298 3.69149C5.41856 4.02708 5.41856 4.33733 5.08298 4.67291C4.99117 4.76472 4.90253 4.85653 4.81072 4.94517C4.54479 5.21744 4.29152 5.4707 4.01609 5.71764C4.00976 5.72397 4.00343 5.72714 4.00026 5.73347C3.728 6.00573 3.77865 6.27166 3.83564 6.45212C3.8388 6.46162 3.84197 6.47111 3.84514 6.48061C4.06991 7.02514 4.3865 7.53801 4.86771 8.14902L4.87087 8.15218C5.74465 9.22857 6.66591 10.0675 7.68215 10.7102C7.81195 10.7925 7.94491 10.859 8.07155 10.9223C8.18552 10.9793 8.29316 11.0331 8.38497 11.0901C8.39763 11.0964 8.4103 11.1059 8.42296 11.1123C8.5306 11.1661 8.6319 11.1914 8.73638 11.1914C8.99914 11.1914 9.16377 11.0268 9.21759 10.973L10.3003 9.89023C10.4079 9.7826 10.5789 9.6528 10.7784 9.6528C10.9746 9.6528 11.1361 9.77626 11.2342 9.8839C11.2374 9.88707 11.2374 9.88707 11.2406 9.89023L12.985 11.6346C13.311 11.9575 13.311 12.29 12.9881 12.6255Z" fill="#323232"/>
<path d="M8.10637 3.56805C8.93583 3.70735 9.6893 4.09992 10.2908 4.70143C10.8923 5.30294 11.2817 6.05641 11.4242 6.88587C11.459 7.09481 11.6395 7.24044 11.8453 7.24044C11.8706 7.24044 11.8927 7.23728 11.9181 7.23411C12.1523 7.19612 12.3075 6.97451 12.2695 6.74024C12.0985 5.73666 11.6236 4.82173 10.8987 4.09675C10.1737 3.37177 9.25875 2.89689 8.25517 2.72594C8.0209 2.68795 7.80245 2.84307 7.7613 3.07418C7.72014 3.30529 7.8721 3.53006 8.10637 3.56805Z" fill="#323232"/>
<path d="M14.9826 6.61694C14.7008 4.96436 13.922 3.46058 12.7253 2.26389C11.5286 1.0672 10.0249 0.288399 8.37228 0.00663786C8.14117 -0.0345182 7.92273 0.123774 7.88157 0.354882C7.84358 0.589155 7.99871 0.807598 8.23298 0.848755C9.70827 1.09886 11.0538 1.79851 12.1238 2.8654C13.1939 3.93546 13.8904 5.28095 14.1405 6.75624C14.1753 6.96518 14.3557 7.11081 14.5615 7.11081C14.5869 7.11081 14.609 7.10764 14.6343 7.10448C14.8654 7.06965 15.0237 6.84804 14.9826 6.61694Z" fill="#323232"/>
</g>
<defs>
<clipPath id="clip0">
<rect width="15" height="15" fill="white"/>
</clipPath>
</defs>
</svg>
