<svg width="25" height="25" viewBox="0 0 25 25" fill="none" xmlns="http://www.w3.org/2000/svg">
<g clip-path="url(#clip0)">
<path d="M22.8027 5.9082H18.5692L18.0234 3.17954C17.887 2.49722 17.2829 2.00195 16.5871 2.00195H8.41294C7.71714 2.00195 7.11299 2.49722 6.97656 3.17954L6.43081 5.9082H2.19727C0.985693 5.9082 0 6.8939 0 8.10547V20.8008C0 22.0124 0.985693 22.998 2.19727 22.998H22.8027C24.0143 22.998 25 22.0124 25 20.8008V8.10547C25 6.8939 24.0143 5.9082 22.8027 5.9082ZM8.41294 3.4668H16.5871L17.0753 5.9082H7.92466L8.41294 3.4668ZM23.5352 20.8008C23.5352 21.2046 23.2066 21.5332 22.8027 21.5332H2.19727C1.79341 21.5332 1.46484 21.2046 1.46484 20.8008V8.10547C1.46484 7.70161 1.79341 7.37305 2.19727 7.37305H22.8027C23.2066 7.37305 23.5352 7.70161 23.5352 8.10547V20.8008Z" fill="white"/>
<path d="M12.5 9.0332C9.51143 9.0332 7.08008 11.4646 7.08008 14.4531C7.08008 17.4417 9.51143 19.873 12.5 19.873C15.4886 19.873 17.9199 17.4417 17.9199 14.4531C17.9199 11.4646 15.4886 9.0332 12.5 9.0332ZM12.5 18.4082C10.3191 18.4082 8.54492 16.6339 8.54492 14.4531C8.54492 12.2723 10.3191 10.498 12.5 10.498C14.6809 10.498 16.4551 12.2723 16.4551 14.4531C16.4551 16.6339 14.6809 18.4082 12.5 18.4082Z" fill="white"/>
<path d="M6.25 9.0332H3.90625C3.50176 9.0332 3.17383 9.36113 3.17383 9.76562C3.17383 10.1701 3.50176 10.498 3.90625 10.498H6.25C6.65449 10.498 6.98242 10.1701 6.98242 9.76562C6.98242 9.36113 6.65449 9.0332 6.25 9.0332Z" fill="white"/>
</g>
<defs>
<clipPath id="clip0">
<rect width="25" height="25" fill="white"/>
</clipPath>
</defs>
</svg>
