<svg width="15" height="15" viewBox="0 0 15 15" fill="none" xmlns="http://www.w3.org/2000/svg">
<path d="M11.6666 6.9147L4.99142 0.239632C4.83703 0.0851213 4.63093 0 4.41118 0C4.19142 0 3.98533 0.0851213 3.83094 0.239632L3.33936 0.731092C3.01948 1.05133 3.01948 1.57182 3.33936 1.89157L8.94468 7.49689L3.33314 13.1084C3.17875 13.2629 3.09351 13.4689 3.09351 13.6885C3.09351 13.9084 3.17875 14.1144 3.33314 14.269L3.82472 14.7604C3.97923 14.9149 4.1852 15 4.40496 15C4.62471 15 4.83081 14.9149 4.9852 14.7604L11.6666 8.0792C11.8214 7.9242 11.9064 7.71725 11.9059 7.49726C11.9064 7.2764 11.8214 7.06958 11.6666 6.9147Z" fill="white"/>
</svg>
