<svg width="10" height="10" viewBox="0 0 10 10" fill="none" xmlns="http://www.w3.org/2000/svg">
<path d="M9.88533 9.33279L7.064 6.51146C8.34943 4.9475 8.26197 2.62584 6.80128 1.16517C5.2474 -0.388716 2.71906 -0.388716 1.16517 1.16517C-0.388716 2.71906 -0.388716 5.2474 1.16517 6.80128C2.62544 8.26156 4.94681 8.34998 6.51146 7.064L9.33279 9.88533C9.48537 10.0379 9.73273 10.0379 9.88531 9.88533C10.0379 9.73273 10.0379 9.48537 9.88533 9.33279ZM6.24876 6.24875C4.99955 7.49796 2.96693 7.49794 1.71771 6.24875C0.468491 4.99953 0.468491 2.96691 1.71771 1.71769C2.96689 0.46853 4.99951 0.468433 6.24876 1.71769C7.49798 2.96691 7.49798 4.99953 6.24876 6.24875Z" fill="#525252"/>
</svg>
