<svg width="15" height="15" viewBox="0 0 15 15" fill="none" xmlns="http://www.w3.org/2000/svg">
<g clip-path="url(#clip0)">
<path d="M14.8284 13.9995L10.5964 9.76756C12.5245 7.42161 12.3933 3.93912 10.2023 1.74812C7.87146 -0.582707 4.07895 -0.582707 1.74812 1.74812C-0.582707 4.07895 -0.582707 7.87146 1.74812 10.2023C3.93853 12.3927 7.42058 12.5253 9.76756 10.5964L13.9995 14.8284C14.2284 15.0572 14.5995 15.0572 14.8283 14.8284C15.0572 14.5995 15.0572 14.2284 14.8284 13.9995ZM9.37351 9.37348C7.49969 11.2473 4.45076 11.2473 2.57693 9.37348C0.703103 7.49966 0.703103 4.45073 2.57693 2.5769C4.4507 0.703162 7.49963 0.703015 9.37351 2.5769C11.2473 4.45073 11.2473 7.49966 9.37351 9.37348Z" fill="white"/>
</g>
<defs>
<clipPath id="clip0">
<rect width="15" height="15" fill="white"/>
</clipPath>
</defs>
</svg>
