<svg width="15" height="15" viewBox="0 0 15 15" fill="none" xmlns="http://www.w3.org/2000/svg">
<g clip-path="url(#clip0)">
<path d="M15 5.25C15 4.75 14 4.5 13.75 5.25L3.7205 4.04004L3.05566 1.76897C2.98257 1.51925 2.75355 1.34766 2.49334 1.34766H0.585938C0.262324 1.34766 0 1.60998 0 1.93359C0 2.25721 0.262324 2.51953 0.585938 2.51953H2.05433C2.1399 2.81188 4.30424 10.2054 4.39166 10.5041C4.46476 10.7538 4.6938 10.9254 4.95398 10.9254H12.3985C12.6587 10.9254 12.8878 10.7538 12.9608 10.5041C12.9608 10.5041 15 5.75 15 5.25ZM11.9595 9.75354H5.393L3.7205 4.04004L13.75 5.25L11.9595 9.75354Z" fill="#323232"/>
<path d="M7.09845 13.6523C7.53532 13.6523 7.88947 13.2982 7.88947 12.8613C7.88947 12.4245 7.53532 12.0703 7.09845 12.0703C6.66159 12.0703 6.30743 12.4245 6.30743 12.8613C6.30743 13.2982 6.66159 13.6523 7.09845 13.6523Z" fill="#323232"/>
<path d="M10.2544 13.6523C10.6913 13.6523 11.0454 13.2982 11.0454 12.8613C11.0454 12.4245 10.6913 12.0703 10.2544 12.0703C9.81753 12.0703 9.46338 12.4245 9.46338 12.8613C9.46338 13.2982 9.81753 13.6523 10.2544 13.6523Z" fill="#323232"/>
</g>
<defs>
<clipPath id="clip0">
<rect width="15" height="15" fill="white"/>
</clipPath>
</defs>
</svg>
