<svg width="10" height="10" viewBox="0 0 10 10" fill="none" xmlns="http://www.w3.org/2000/svg">
<path d="M9.97361 3.83574C9.90776 3.63325 9.72817 3.48989 9.51652 3.47074L6.62982 3.20867L5.48897 0.537725C5.40474 0.341494 5.21309 0.214844 4.99977 0.214844C4.78645 0.214844 4.59472 0.341494 4.51102 0.537725L3.37018 3.20867L0.483016 3.47074C0.271373 3.49027 0.0921554 3.63363 0.0259312 3.83574C-0.0399116 4.03823 0.0208957 4.26032 0.180963 4.4007L2.36308 6.31411L1.71969 9.14787C1.67261 9.35623 1.75348 9.57169 1.92637 9.69666C2.0193 9.76418 2.12847 9.7979 2.23803 9.7979C2.33218 9.7979 2.42641 9.77288 2.51056 9.72252L4.99977 8.23416L7.48852 9.72252C7.67109 9.83162 7.90067 9.82163 8.07317 9.69666C8.24605 9.57169 8.32693 9.35623 8.27985 9.14787L7.63646 6.31411L9.81857 4.4007C9.97857 4.26032 10.0394 4.03868 9.97361 3.83574Z" fill="black"/>
</svg>
