<svg width="25" height="25" viewBox="0 0 25 25" fill="none" xmlns="http://www.w3.org/2000/svg">
<path d="M12.4991 0C8.54287 0 5.32422 3.2186 5.32422 7.17485C5.32422 11.1311 8.54287 14.3497 12.4991 14.3497C16.4553 14.3497 19.6739 11.1311 19.6739 7.17485C19.6739 3.2186 16.4553 0 12.4991 0ZM12.4991 12.3966C9.61978 12.3966 7.27734 10.0541 7.27734 7.17485C7.27734 4.29556 9.61978 1.95312 12.4991 1.95312C15.3784 1.95312 17.7208 4.29561 17.7208 7.17485C17.7208 10.0541 15.3784 12.3966 12.4991 12.3966Z" fill="#393939"/>
<path d="M12.8595 15.3008H12.1406C7.33091 15.3008 3.41797 19.2137 3.41797 24.0234C3.41797 24.2824 3.52085 24.5307 3.70396 24.7139C3.88711 24.897 4.1355 24.9999 4.39453 24.9999H20.6055C21.1448 24.9999 21.582 24.5627 21.582 24.0234C21.582 19.2137 17.6691 15.3008 12.8595 15.3008ZM5.44131 23.0468C5.91597 19.775 8.73931 17.2539 12.1405 17.2539H12.8594C16.2606 17.2539 19.084 19.775 19.5586 23.0468H5.44131Z" fill="#393939"/>
</svg>
