<svg width="38" height="47" viewBox="0 0 38 47" fill="none" xmlns="http://www.w3.org/2000/svg">
<g clip-path="url(#clip0)">
<path d="M2.0341 46.7011C2.0341 46.59 1.94733 46.59 1.86057 46.5591C1.47217 46.4478 1.11788 46.2415 0.829956 45.9589C0.542028 45.6763 0.329605 45.3265 0.212017 44.9413C0.136718 44.6969 0.0950132 44.4435 0.0880583 44.1879C0.0880583 40.483 0.0880583 36.7781 0.0880583 33.0732C0.0853799 32.9502 0.114823 32.8286 0.17349 32.7204C0.232158 32.6121 0.318043 32.5209 0.422731 32.4557C1.83512 31.3701 3.31745 30.3779 4.86018 29.4856C6.47247 28.4889 8.22501 27.7376 10.0599 27.2564C10.4963 27.1367 10.9461 27.0724 11.3986 27.065C11.4959 27.0664 11.5914 27.0907 11.6776 27.1357C11.7637 27.1808 11.838 27.2454 11.8944 27.3244C12.4935 28.0448 13.0967 28.7652 13.7041 29.4856C14.456 30.3871 15.2101 31.2845 15.9662 32.1778C16.5549 32.8756 17.1623 33.5672 17.7573 34.2649C18.0981 34.6663 18.439 35.0677 18.7613 35.4999C18.9224 35.716 19.0588 35.7222 19.2261 35.4999L21.011 33.4066L22.8269 31.2516L25.0642 28.584C25.4608 28.1086 25.8389 27.6084 26.3037 27.17C26.5206 26.9539 26.8801 27.0527 27.1589 27.1021C29.3765 27.5477 31.491 28.4022 33.3937 29.6214C34.8439 30.4797 36.226 31.4307 37.5832 32.4248C37.6991 32.4978 37.793 32.6006 37.8552 32.7223C37.9174 32.844 37.9454 32.9801 37.9365 33.1164C37.9365 36.8213 37.9365 40.5262 37.9365 44.2312C37.935 44.7377 37.7772 45.2316 37.4846 45.6458C37.1919 46.06 36.7785 46.3745 36.3003 46.5467C36.2074 46.5467 36.0586 46.5467 36.0586 46.7196L2.0341 46.7011Z" fill="white"/>
<path d="M28.839 12.8939C28.9267 14.6509 28.6546 16.4073 28.0395 18.0561C27.38 19.9319 26.4009 21.6803 25.1452 23.2245C24.1183 24.5543 22.8025 25.6351 21.2965 26.386C20.5705 26.7528 19.7679 26.9439 18.9539 26.9439C18.1398 26.9439 17.3373 26.7528 16.6112 26.386C14.8647 25.5081 13.3716 24.2011 12.2729 22.5885C10.9316 20.7398 9.98074 18.6391 9.47781 16.4136C9.1683 14.926 9.06199 13.4035 9.16175 11.8874C9.19893 10.9859 9.2733 10.0844 9.38485 9.18903C9.53488 7.88508 9.86871 6.60872 10.3765 5.39765C10.9086 4.14512 11.7933 3.07282 12.9237 2.31022C13.9582 1.64226 15.1329 1.21976 16.3571 1.07524C16.7971 1.01349 17.231 0.939393 17.6648 0.908519C18.3755 0.815876 19.0932 0.786944 19.8091 0.822071C21.6374 1.01349 23.4905 1.22961 25.0833 2.27934C26.5021 3.22549 27.5437 4.63682 28.0271 6.26831C28.3798 7.40579 28.6104 8.57734 28.715 9.76329C28.8166 10.8036 28.858 11.8489 28.839 12.8939Z" fill="white"/>
</g>
<defs>
<clipPath id="clip0">
<rect width="37.8236" height="45.9287" fill="white" transform="translate(0.0883789 0.772461)"/>
</clipPath>
</defs>
</svg>
