<svg width="30" height="29" viewBox="0 0 30 29" fill="none" xmlns="http://www.w3.org/2000/svg">
<g clip-path="url(#clip0)">
<path d="M24.2582 17.1973C22.355 17.1973 20.8066 18.6941 20.8066 20.5339C20.8066 22.3733 22.355 23.8701 24.2582 23.8701C26.1618 23.8701 27.7099 22.3733 27.7099 20.5339C27.7099 18.6941 26.1615 17.1973 24.2582 17.1973ZM24.2582 21.9988C23.4221 21.9988 22.7421 21.3415 22.7421 20.5335C22.7421 19.7252 23.4221 19.0679 24.2582 19.0679C25.0944 19.0679 25.7743 19.7256 25.7743 20.5335C25.7744 21.3414 25.0944 21.9988 24.2582 21.9988Z" fill="white"/>
<path d="M19.2903 5.13086H0.967734C0.433242 5.13086 0 5.54966 0 6.06639V20.4728C0 20.9895 0.433242 21.4083 0.967734 21.4083H4.00002V19.5373H1.93547V7.00187H18.3226V20.4728H20.258V6.06639C20.2581 5.54966 19.8248 5.13086 19.2903 5.13086Z" fill="white"/>
<path d="M21.7742 19.5352H8.74194V21.4061H21.7742V19.5352Z" fill="white"/>
<path d="M6.35472 17.1973C4.45147 17.1973 2.90308 18.6941 2.90308 20.5339C2.90308 22.3733 4.45147 23.8701 6.35472 23.8701C8.25796 23.8701 9.80636 22.3733 9.80636 20.5339C9.8063 18.6941 8.25796 17.1973 6.35472 17.1973ZM6.35472 21.9988C5.51858 21.9988 4.8386 21.3415 4.8386 20.5335C4.8386 19.7252 5.51858 19.0679 6.35472 19.0679C7.19085 19.0679 7.87083 19.7256 7.87083 20.5335C7.87083 21.3414 7.1905 21.9988 6.35472 21.9988Z" fill="white"/>
<path d="M29.0325 12.8945H19.2905V14.7655H28.0647V19.5364H26.6776V21.4074H29.0324C29.5669 21.4074 30.0002 20.9889 30.0002 20.4719V13.83C30.0002 13.3133 29.567 12.8945 29.0325 12.8945Z" fill="white"/>
<path d="M26.1064 9.0119C25.9364 8.71318 25.6112 8.52734 25.2583 8.52734H19.2905V10.3983H24.686L26.8941 14.2793L28.5902 13.3775L26.1064 9.0119Z" fill="white"/>
</g>
<defs>
<clipPath id="clip0">
<rect width="30" height="29" fill="white"/>
</clipPath>
</defs>
</svg>
