<svg width="30" height="30" viewBox="0 0 30 30" fill="none" xmlns="http://www.w3.org/2000/svg">
<path d="M15 30C23.2843 30 30 23.2843 30 15C30 6.71573 23.2843 0 15 0C6.71573 0 0 6.71573 0 15C0 23.2843 6.71573 30 15 30Z" fill="#4D76A1"/>
<path fill-rule="evenodd" clip-rule="evenodd" d="M14.4333 21.5788H15.6106C15.6106 21.5788 15.9663 21.5398 16.1478 21.3441C16.3149 21.1644 16.3096 20.8269 16.3096 20.8269C16.3096 20.8269 16.2866 19.2472 17.0198 19.0146C17.7425 18.7854 18.6706 20.5414 19.6544 21.2165C20.3982 21.7275 20.9635 21.6155 20.9635 21.6155L23.5938 21.5788C23.5938 21.5788 24.9698 21.4941 24.3174 20.4122C24.2639 20.3237 23.9374 19.6119 22.3617 18.1493C20.7124 16.6185 20.9333 16.8661 22.92 14.2181C24.1299 12.6055 24.6136 11.621 24.4626 11.1993C24.3184 10.7977 23.4286 10.9038 23.4286 10.9038L20.467 10.9223C20.467 10.9223 20.2474 10.8923 20.0846 10.9897C19.9255 11.0851 19.8231 11.3076 19.8231 11.3076C19.8231 11.3076 19.3543 12.5555 18.7292 13.6168C17.4104 15.8562 16.8831 15.9743 16.6676 15.8353C16.1663 15.5112 16.2914 14.5334 16.2914 13.8387C16.2914 11.6686 16.6206 10.7637 15.6505 10.5295C15.3285 10.4517 15.0916 10.4004 14.2683 10.3921C13.2116 10.3811 12.3172 10.3953 11.8108 10.6434C11.4739 10.8084 11.214 11.176 11.3722 11.1972C11.568 11.2234 12.0113 11.3167 12.2463 11.6368C12.5498 12.0496 12.5391 12.9769 12.5391 12.9769C12.5391 12.9769 12.7135 15.5315 12.1319 15.8489C11.7327 16.0666 11.1851 15.6222 10.0094 13.5906C9.40693 12.5499 8.95211 11.3996 8.95211 11.3996C8.95211 11.3996 8.8644 11.1846 8.70798 11.0696C8.51813 10.9303 8.25288 10.8859 8.25288 10.8859L5.43861 10.9044C5.43861 10.9044 5.01614 10.9161 4.86105 11.0998C4.72308 11.2632 4.85009 11.6012 4.85009 11.6012C4.85009 11.6012 7.05338 16.7559 9.54812 19.3536C11.8356 21.7352 14.4333 21.5788 14.4333 21.5788Z" fill="white"/>
</svg>
