<svg width="50" height="50" viewBox="0 0 50 50" fill="none" xmlns="http://www.w3.org/2000/svg">
<path d="M25 50C38.8071 50 50 38.8071 50 25C50 11.1929 38.8071 0 25 0C11.1929 0 0 11.1929 0 25C0 38.8071 11.1929 50 25 50Z" fill="#4D76A1"/>
<path fill-rule="evenodd" clip-rule="evenodd" d="M24.0556 35.9633H26.0178C26.0178 35.9633 26.6105 35.8982 26.9131 35.572C27.1916 35.2725 27.1827 34.7101 27.1827 34.7101C27.1827 34.7101 27.1444 32.0772 28.3663 31.6895C29.5709 31.3076 31.1178 34.2342 32.7573 35.3594C33.9971 36.2111 34.9392 36.0244 34.9392 36.0244L39.323 35.9633C39.323 35.9633 41.6164 35.822 40.529 34.0189C40.4398 33.8714 39.8957 32.6851 37.2695 30.2474C34.5207 27.6961 34.8888 28.1087 38.2 23.6955C40.2166 21.0078 41.0228 19.3669 40.771 18.6641C40.5308 17.9948 39.0476 18.1717 39.0476 18.1717L34.1116 18.2024C34.1116 18.2024 33.7458 18.1525 33.4744 18.3147C33.2092 18.4738 33.0385 18.8446 33.0385 18.8446C33.0385 18.8446 32.2573 20.9244 31.2154 22.6932C29.0174 26.4255 28.1386 26.6225 27.7794 26.3908C26.9438 25.8506 27.1524 24.2209 27.1524 23.0631C27.1524 19.4462 27.701 17.9382 26.0842 17.5478C25.5476 17.4181 25.1528 17.3325 23.7806 17.3187C22.0194 17.3004 20.5287 17.3241 19.6846 17.7376C19.1231 18.0126 18.69 18.6253 18.9538 18.6606C19.28 18.7042 20.0189 18.8598 20.4106 19.3932C20.9164 20.0813 20.8986 21.6268 20.8986 21.6268C20.8986 21.6268 21.1892 25.8845 20.2199 26.4135C19.5545 26.7763 18.6418 26.0356 16.6823 22.6496C15.6783 20.9151 14.9202 18.9979 14.9202 18.9979C14.9202 18.9979 14.774 18.6396 14.5133 18.448C14.1969 18.2158 13.7548 18.1418 13.7548 18.1418L9.06439 18.1726C9.06439 18.1726 8.36027 18.1922 8.10179 18.4983C7.87184 18.7706 8.08352 19.3339 8.08352 19.3339C8.08352 19.3339 11.7557 27.9251 15.9136 32.2546C19.7261 36.224 24.0556 35.9633 24.0556 35.9633Z" fill="white"/>
</svg>
