<svg width="157" height="13" viewBox="0 0 157 13" fill="none" xmlns="http://www.w3.org/2000/svg">
<path fill-rule="evenodd" clip-rule="evenodd" d="M14.2704 0H14.1104V11.54H14.2704V0Z" fill="black"/>
<path fill-rule="evenodd" clip-rule="evenodd" d="M13.0303 0.490234V11.4902H13.1903V0.490234H13.0303Z" fill="black"/>
<path fill-rule="evenodd" clip-rule="evenodd" d="M12.0996 0.449463V11.5395H12.2596V0.439453L12.0996 0.449463Z" fill="black"/>
<path fill-rule="evenodd" clip-rule="evenodd" d="M11.5205 0.519531V11.5195H11.6905V0.519531H11.5205Z" fill="black"/>
<path fill-rule="evenodd" clip-rule="evenodd" d="M15.46 11.54H15.62V0H15.46V11.54Z" fill="black"/>
<path fill-rule="evenodd" clip-rule="evenodd" d="M5.96973 1.50946V11.5095H6.12976V1.58948L5.96973 1.47949V1.50946Z" fill="black"/>
<path fill-rule="evenodd" clip-rule="evenodd" d="M3.61035 0.540039V11.54H3.77039V0.540039H3.61035Z" fill="black"/>
<path fill-rule="evenodd" clip-rule="evenodd" d="M2.41977 0H2.25977V11.54H2.41977V0Z" fill="black"/>
<path fill-rule="evenodd" clip-rule="evenodd" d="M1.70996 11.54H1.86996V0H1.70996V11.54Z" fill="black"/>
<path fill-rule="evenodd" clip-rule="evenodd" d="M4.07031 0.479492V11.5395H4.7403V0.53949C4.51766 0.514473 4.29295 0.514473 4.07031 0.53949V0.479492Z" fill="black"/>
<path fill-rule="evenodd" clip-rule="evenodd" d="M3.38977 0.109985V0H2.71973V0.609985C2.9257 0.421244 3.15021 0.253731 3.38977 0.109985Z" fill="black"/>
<path fill-rule="evenodd" clip-rule="evenodd" d="M2.71973 11.54H3.38977V0.540039L2.71973 0.700012V11.5V11.54Z" fill="black"/>
<path fill-rule="evenodd" clip-rule="evenodd" d="M13.5498 11.54H13.9698V0H13.5498V11.54Z" fill="black"/>
<path fill-rule="evenodd" clip-rule="evenodd" d="M10.8701 1.29015V11.5401H11.2801V1.28014C11.1445 1.25558 11.0057 1.25558 10.8701 1.28014V1.29015Z" fill="black"/>
<path fill-rule="evenodd" clip-rule="evenodd" d="M10.8701 0.789856C11.0093 0.794417 11.1472 0.817915 11.2801 0.859802V0.589844C11.1372 0.638736 10.9998 0.702417 10.8701 0.779846V0.789856Z" fill="black"/>
<path fill-rule="evenodd" clip-rule="evenodd" d="M10.2705 1.64966V11.5397H10.6805V1.38965C10.6805 1.38965 10.5005 1.52968 10.2805 1.66968L10.2705 1.64966Z" fill="black"/>
<path fill-rule="evenodd" clip-rule="evenodd" d="M4.9502 1.25009V11.5401H5.36017V1.1901C5.22068 1.17756 5.08024 1.19812 4.9502 1.25009Z" fill="black"/>
<path fill-rule="evenodd" clip-rule="evenodd" d="M4.9502 0.509766V1.13977C5.05875 1.02308 5.20292 0.945735 5.36017 0.9198V0.619751C5.22974 0.562891 5.09157 0.52583 4.9502 0.509766Z" fill="black"/>
<path fill-rule="evenodd" clip-rule="evenodd" d="M15.2098 0H14.7998V11.54H15.2098V0Z" fill="black"/>
<path fill-rule="evenodd" clip-rule="evenodd" d="M1.08008 11.54H1.50008V0H1.08008V11.54Z" fill="black"/>
<path fill-rule="evenodd" clip-rule="evenodd" d="M16.2695 0V11.54H16.4295V0H16.2695Z" fill="black"/>
<path fill-rule="evenodd" clip-rule="evenodd" d="M15.9199 11.54H16.0799V0H15.9199V11.54Z" fill="black"/>
<path fill-rule="evenodd" clip-rule="evenodd" d="M0.349609 11.54H0.499609V0H0.349609V11.54Z" fill="black"/>
<path fill-rule="evenodd" clip-rule="evenodd" d="M0 11.54H0.16V0H0V11.54Z" fill="black"/>
<path fill-rule="evenodd" clip-rule="evenodd" d="M8.15045 9.73036L8.24042 11.5304L8.33044 9.72035H8.24042H8.15045V9.73036ZM8.15045 8.51033V9.33034H8.26044H8.36041V8.49031H8.2204L8.08044 8.55031L8.15045 8.51033ZM8.07043 6.94032L8.12042 8.04036L8.29041 8.11031L8.46045 8.04036L8.51044 6.93031L8.29041 6.86031L8.07043 6.94032ZM7.9704 4.88033L8.04041 6.29036L8.29041 6.41036L8.54041 6.30031L8.61041 4.86031L8.29041 4.76033L7.9704 4.88033ZM7.8504 2.05031L7.93042 4.05031C8.04306 4.1164 8.16416 4.16689 8.29041 4.20033C8.41422 4.16002 8.53465 4.10983 8.65045 4.05031L8.75043 2.05031C8.6081 2.12323 8.45033 2.161 8.29041 2.16036C8.13771 2.16406 7.98649 2.12966 7.8504 2.06032V2.05031ZM8.32043 9.67037C8.57043 9.78036 8.73044 9.94036 8.45044 10.4104C8.5204 10.369 8.58029 10.3126 8.62585 10.2453C8.67142 10.1779 8.7015 10.1014 8.71393 10.0211C8.72636 9.94075 8.72084 9.85865 8.69775 9.78072C8.67466 9.70278 8.63462 9.63092 8.58044 9.57033L8.32043 9.67037ZM7.9104 8.67037C7.84541 8.68342 7.78471 8.71237 7.7337 8.75472C7.6827 8.79706 7.64302 8.85144 7.61823 8.91292C7.59343 8.9744 7.58431 9.04107 7.59167 9.10695C7.59904 9.17283 7.62264 9.23587 7.6604 9.29036C7.73384 9.40075 7.84346 9.48206 7.9704 9.52034C8.03975 9.45972 8.12179 9.4153 8.21045 9.39034C7.57045 9.13034 7.7704 8.82036 7.9104 8.67037ZM8.4104 4.72035C9.0304 4.93035 9.60044 5.11035 9.64044 5.53035C9.76044 4.93035 9.4204 4.67035 8.9704 4.53035L8.4104 4.76033V4.72035ZM7.49042 2.43031C7.3406 2.45875 7.2002 2.52398 7.08185 2.62013C6.9635 2.71629 6.87095 2.8404 6.81244 2.98122C6.75393 3.12203 6.73134 3.27518 6.7467 3.4269C6.76207 3.57861 6.8149 3.72413 6.90045 3.85036C7.08383 4.08557 7.32022 4.27402 7.59039 4.40035L8.15045 4.21034C6.73045 3.62034 7.15042 2.77031 7.49042 2.43031ZM9.09039 2.43031C9.23935 2.4601 9.37865 2.52635 9.49579 2.62306C9.61292 2.71978 9.70428 2.84395 9.76172 2.98457C9.81916 3.1252 9.84088 3.27791 9.82495 3.42897C9.80902 3.58004 9.75592 3.72481 9.67041 3.85036C9.00041 4.85036 7.01042 4.73035 6.93042 5.53035C6.80042 4.88035 7.21041 4.63032 7.73041 4.44032C9.97041 3.86032 9.45039 2.82032 9.09039 2.44032V2.43031ZM8.37042 6.82033C8.88042 6.99033 9.37042 7.13035 9.37042 7.47035C9.47042 6.99035 9.20039 6.78034 8.84039 6.64034L8.37042 6.82033ZM7.65045 4.99031C7.53069 5.01396 7.41858 5.06691 7.32422 5.14436C7.22986 5.22182 7.15615 5.32142 7.10962 5.43428C7.06309 5.54714 7.0452 5.66976 7.05756 5.79121C7.06991 5.91266 7.11212 6.02914 7.18042 6.13033C7.33029 6.32925 7.53052 6.4846 7.76044 6.58034L8.23041 6.44032C7.03041 5.96032 7.39045 5.27031 7.65045 4.99031ZM8.94043 4.99031C9.06019 5.01396 9.17224 5.06691 9.2666 5.14436C9.36096 5.22182 9.43467 5.32142 9.4812 5.43428C9.52773 5.54714 9.54562 5.66976 9.53326 5.79121C9.52091 5.91266 9.4787 6.02914 9.4104 6.13033C8.8704 6.89033 7.2804 6.83035 7.2204 7.47035C7.1104 6.95035 7.4404 6.75036 7.8504 6.60036C9.6504 6.13036 9.23043 5.30031 8.94043 4.99031ZM8.37042 8.42037C8.75042 8.55037 9.10042 8.66037 9.12042 8.92037C9.20042 8.56037 9.00041 8.40036 8.73041 8.29036L8.37042 8.42037ZM7.80042 7.02034C7.7091 7.03847 7.62373 7.07909 7.55206 7.1385C7.48039 7.19792 7.4247 7.27425 7.38995 7.36061C7.35521 7.44698 7.34253 7.54064 7.35309 7.63313C7.36365 7.72563 7.39712 7.81402 7.45044 7.89034C7.56201 8.04299 7.71458 8.16091 7.89044 8.23036L8.24042 8.12032C7.34042 7.75032 7.61041 7.23034 7.80042 7.02034ZM8.80042 7.02034C8.89122 7.03938 8.97602 7.0803 9.04742 7.13954C9.11883 7.19878 9.17467 7.27452 9.21014 7.36025C9.24562 7.44598 9.25965 7.53911 9.25098 7.63149C9.24231 7.72386 9.21121 7.8127 9.1604 7.89034C8.7404 8.47034 7.52041 8.42034 7.48041 8.89034C7.40041 8.48034 7.65045 8.33035 7.96045 8.22035C9.34045 7.86035 9.02041 7.22031 8.80042 6.99031V7.02034ZM8.65045 8.67037C8.7163 8.68206 8.77816 8.71007 8.83038 8.75185C8.88261 8.79363 8.92354 8.84782 8.9494 8.9095C8.97527 8.97118 8.9852 9.03834 8.97839 9.10487C8.97159 9.17141 8.94821 9.2352 8.9104 9.29036C8.6504 9.72036 7.58041 9.51035 8.11041 10.4003C8.02447 10.3556 7.95248 10.288 7.90222 10.2052C7.85196 10.1223 7.82538 10.0272 7.82538 9.93031C7.82538 9.8334 7.85196 9.73834 7.90222 9.65547C7.95248 9.57261 8.02447 9.50513 8.11041 9.46034C9.01041 9.20034 8.78042 8.84037 8.62042 8.67037H8.65045ZM10.5904 1.20033C10.1736 1.54596 9.67972 1.78608 9.15045 1.90035C9.08085 1.91091 9.01003 1.91091 8.94043 1.90035C9.04837 1.80553 9.13463 1.68854 9.1933 1.55739C9.25197 1.42624 9.28165 1.284 9.2804 1.14034C9.29085 1.05733 9.29085 0.973341 9.2804 0.890336C9.71178 0.790926 10.1067 0.572678 10.4204 0.260331L10.2304 0.670365C10.2304 0.670365 11.2304 -0.469674 13.3404 0.380326C13.3404 0.380326 11.2405 -0.239657 10.1505 1.21034C10.3311 1.10781 10.5311 1.04418 10.7377 1.02351C10.9444 1.00285 11.1531 1.02561 11.3504 1.09035C11.1007 1.03556 10.8395 1.0785 10.6204 1.21034L10.5904 1.20033ZM8.59039 0.460343H8.51044C8.51044 0.460343 8.57039 0.460343 8.59039 0.460343H8.65045C8.65045 0.460343 8.58042 0.460343 8.55042 0.460343C8.52041 0.460343 8.55042 0.460343 8.55042 0.460343C8.55042 0.460343 8.55043 0.460343 8.50043 0.460343C8.45043 0.460343 8.4104 0.460318 8.4104 0.560318C8.4104 0.660318 8.4104 0.560318 8.4704 0.560318H8.5304C8.54925 0.546506 8.57202 0.539078 8.5954 0.539078C8.61877 0.539078 8.64154 0.546506 8.6604 0.560318C8.6604 0.560318 8.72042 0.560318 8.74042 0.560318C8.76042 0.560318 8.74042 0.500331 8.80042 0.510331C8.86041 0.520331 8.88041 0.510318 8.80042 0.560318C8.72042 0.610318 8.71045 0.560318 8.71045 0.560318C8.71045 0.560318 8.7104 0.560318 8.7804 0.560318C8.8504 0.560318 8.7804 0.630326 8.7804 0.630326H8.69043H8.62042C8.62042 0.630326 8.55041 0.550318 8.48041 0.560318C8.41041 0.570318 8.4304 0.560318 8.4104 0.560318C8.3904 0.560318 8.35044 0.560318 8.33044 0.560318C8.27978 0.584782 8.24037 0.62772 8.2204 0.680314C8.2204 0.790314 8.22043 0.950323 8.38043 0.940323C8.54043 0.930323 8.50041 0.940323 8.54041 0.940323C8.54579 0.966718 8.54579 0.993946 8.54041 1.02034V1.09035C8.54041 1.09035 8.54041 1.15031 8.54041 1.18031C8.536 1.2135 8.536 1.24716 8.54041 1.28035C8.54041 1.34035 8.54044 1.41035 8.64044 1.34035C8.74044 1.27035 8.64045 1.34035 8.71045 1.34035C8.78045 1.34035 8.71045 1.34033 8.71045 1.26033C8.71045 1.18033 8.71045 1.14032 8.71045 1.12032C8.71045 1.10032 8.8404 0.950326 8.7804 0.880326C8.74946 0.85302 8.72552 0.818766 8.71045 0.78035C8.71045 0.78035 8.71045 0.780353 8.71045 0.720353C8.71045 0.660353 8.71045 0.720365 8.71045 0.670365C8.71045 0.620365 8.7704 0.840338 8.8504 0.830338C8.9304 0.820338 8.8504 0.760343 8.8504 0.710343C8.8504 0.660343 8.85045 0.710343 8.90045 0.710343C8.90537 0.770242 8.90537 0.830436 8.90045 0.890336C8.90149 0.988958 8.88248 1.08678 8.84467 1.17787C8.80685 1.26896 8.75099 1.35147 8.68042 1.42036C8.54236 1.55863 8.35577 1.63754 8.1604 1.64034C8.02579 1.64097 7.89385 1.60279 7.7804 1.53035C7.7804 1.53035 7.7804 1.48033 7.7804 1.45033C7.7804 1.45033 7.85041 1.45033 7.86041 1.45033C7.87041 1.45033 7.86041 1.37035 7.86041 1.34035C7.86041 1.31035 7.86041 1.27031 7.86041 1.24031C7.86041 1.21031 7.73042 1.17031 7.68042 1.11031C7.63042 1.05031 7.57044 0.98034 7.51044 1.02034C7.45044 1.06034 7.51044 1.02034 7.51044 1.02034C7.51044 1.02034 7.51044 1.09032 7.51044 1.12032C7.50871 1.15696 7.50871 1.19372 7.51044 1.23036C7.53303 1.26039 7.54996 1.29425 7.56042 1.33034V1.48036C7.42154 1.33864 7.3427 1.14875 7.34039 0.950333C7.34039 0.950333 7.34039 0.870338 7.34039 0.830338C7.34039 0.830338 7.34045 0.940314 7.40045 0.930314C7.46045 0.920314 7.40045 0.930316 7.40045 0.870316C7.40045 0.810316 7.40045 0.820309 7.40045 0.800309C7.40045 0.780309 7.40045 0.800311 7.40045 0.740311V0.680314H7.50043C7.5179 0.67398 7.53347 0.663359 7.54572 0.649369C7.55796 0.635379 7.56648 0.618521 7.57043 0.600358C7.57043 0.600358 7.57043 0.54035 7.57043 0.53035H7.62042C7.62042 0.53035 7.62042 0.530362 7.62042 0.480362C7.62042 0.430362 7.62042 0.480362 7.62042 0.480362C7.62746 0.466404 7.6311 0.450948 7.6311 0.435318C7.6311 0.419689 7.62746 0.404293 7.62042 0.390336C7.62042 0.390336 7.57042 0.390336 7.55042 0.390336C7.63079 0.309589 7.73067 0.25104 7.84039 0.220353C7.84039 0.220353 7.84044 0.220353 7.89044 0.220353C7.94044 0.220353 7.89044 0.220353 7.89044 0.220353H7.99042H8.04041C8.12729 0.228345 8.212 0.252071 8.29041 0.29036L8.59039 0.460343ZM8.2804 0.350358C8.48673 0.352253 8.68418 0.434785 8.83044 0.580338C8.976 0.726598 9.05853 0.92399 9.06042 1.13033C9.05902 1.3397 8.97661 1.5404 8.83044 1.69032C8.68317 1.83313 8.48553 1.9122 8.2804 1.91036C8.07221 1.91268 7.87133 1.83373 7.7204 1.69032C7.57699 1.53939 7.4981 1.33851 7.50043 1.13033C7.49858 0.925196 7.57759 0.727609 7.7204 0.580338C7.87032 0.434174 8.07102 0.351763 8.2804 0.350358ZM5.94043 1.20033C6.35869 1.54368 6.85206 1.78352 7.38043 1.90035C7.45339 1.91088 7.52745 1.91088 7.6004 1.90035C7.49246 1.80553 7.40627 1.68854 7.3476 1.55739C7.28892 1.42624 7.25919 1.284 7.26044 1.14034C7.24998 1.05733 7.24998 0.973341 7.26044 0.890336C6.82906 0.790926 6.43413 0.572678 6.12042 0.260331L6.30042 0.670365C6.30042 0.670365 5.30043 -0.469674 3.19043 0.380326C3.19043 0.380326 5.29043 -0.239657 6.38043 1.21034C6.20179 1.10746 6.00339 1.04359 5.79828 1.0229C5.59317 1.00222 5.38601 1.0252 5.19043 1.09035C5.43698 1.0382 5.69409 1.08105 5.9104 1.21034L5.94043 1.20033Z" fill="black"/>
<path fill-rule="evenodd" clip-rule="evenodd" d="M6.37012 11.5402H6.69012V4.03027H6.37012V11.5402Z" fill="black"/>
<path fill-rule="evenodd" clip-rule="evenodd" d="M6.99023 11.5398H7.14023V8.2998H6.99023V11.5398Z" fill="black"/>
<path fill-rule="evenodd" clip-rule="evenodd" d="M9.74023 11.5402H10.0702V4.03027H9.74023V11.5402Z" fill="black"/>
<path fill-rule="evenodd" clip-rule="evenodd" d="M9.33008 11.5398H9.48008V8.2998H9.33008V11.5398Z" fill="black"/>
<path d="M33.0705 11.54V3.06L28.4505 11.54H25.4505L20.8505 3.06V11.54H17.7705V0H22.3605L26.9505 8.5L31.7105 0H36.1505V11.54H33.0705Z" fill="black"/>
<path d="M45.2097 2.67999V11.54H42.1396V2.67999H37.3496V0H50.1296V2.67999H45.2097Z" fill="black"/>
<path d="M72.7196 12.96V11.54H59.9196V12.96H58.5996V10.39H59.4996C60.2996 9.65001 61.1296 8.96002 61.1296 5.46002V0H72.4896V10.39H74.0296V12.96H72.7196ZM71.1696 1.15002H62.4296V5.46002C62.4296 8.85002 61.7097 9.83001 61.1497 10.39H71.1497L71.1696 1.15002Z" fill="black"/>
<path d="M82.2 11.6399H78.33C75.33 11.6399 74.75 10.9099 74.75 7.5199C74.75 4.1299 75.33 3.37988 78.33 3.37988H82.2C85.2 3.37988 85.78 4.0899 85.78 7.5199C85.78 10.9499 85.19 11.6399 82.2 11.6399ZM82.2 4.35986H78.33C76.16 4.35986 76.01 4.6899 76.01 7.5199C76.01 10.3499 76.16 10.6399 78.33 10.6399H82.2C84.36 10.6399 84.51 10.3099 84.51 7.5199C84.51 4.7299 84.36 4.38989 82.2 4.38989V4.35986Z" fill="black"/>
<path d="M94.1901 11.6398H90.6201C87.2701 11.6398 87.04 10.3398 87.04 7.33984C87.04 4.70984 87.51 3.33984 90.42 3.33984H93.9901C95.9901 3.33984 97.48 3.54985 97.48 5.84985V6.05981H96.2701V5.81982C96.2701 4.34982 95.4701 4.31982 94.0801 4.31982H90.5001C88.3401 4.31982 88.3101 5.04983 88.3101 7.63983C88.3101 9.91983 88.3901 10.6398 90.7701 10.6398H94.3201C95.8501 10.6398 96.4001 10.4798 96.4001 9.00983V8.61981H97.6201V9.05981C97.6201 11.3898 96.1201 11.6398 94.1901 11.6398Z" fill="black"/>
<path d="M104.19 4.45996V11.54H102.97V4.45996H98.2803V3.45996H108.87V4.45996H104.19Z" fill="black"/>
<path d="M118.87 11.5402V10.7102C118.4 11.6402 117.22 11.7102 116.21 11.7102H112.67C110.85 11.7102 109.59 11.3602 109.59 9.25018C109.59 7.14018 110.75 6.72021 112.75 6.72021H116.29C117.09 6.72021 118.65 6.79022 118.82 7.54022H118.9V6.04022C118.9 4.56022 118.12 4.43018 116.74 4.43018H113.22C112.22 4.43018 111.1 4.43022 111.1 5.54022V5.81018H109.84V5.6402C109.84 3.5602 111.27 3.4502 113.07 3.4502H116.61C118.61 3.4502 120.12 3.65017 120.12 6.11017V11.6102L118.87 11.5402ZM116.39 7.63019H112.87C111.43 7.63019 110.87 7.73021 110.87 9.03021C110.87 10.5802 111.51 10.6402 112.87 10.6402H116.41C117.63 10.6402 118.86 10.6402 118.86 9.15021C118.86 7.66021 117.92 7.63019 116.39 7.63019Z" fill="black"/>
<path d="M129.17 11.5401H121.87V3.46007H128.87C130.74 3.46007 132.07 3.41007 132.07 5.46007C132.07 6.46007 131.89 7.24004 130.79 7.31004C131.96 7.39004 132.22 7.94006 132.22 9.14006C132.24 11.5401 130.87 11.5401 129.17 11.5401ZM128.75 4.46007H123.03V6.85008H129.2C130.35 6.85008 130.83 6.85004 130.83 5.62004C130.83 4.39004 130.65 4.46007 128.75 4.46007ZM129.18 7.85008H123.03V10.5401H129.28C130.42 10.5401 130.98 10.5901 130.98 9.15007C130.98 7.71007 130.33 7.85008 129.18 7.85008Z" fill="black"/>
<path d="M144.22 11.5398C142.9 11.5398 142.71 10.8297 142.71 10.0097C142.71 8.54972 142.42 7.84975 140.84 7.84975H135.11V11.5398H133.87V3.45973H135.09V6.84975H140.57C142.14 6.84975 142.44 6.21971 142.44 4.68971C142.425 4.51914 142.449 4.34739 142.509 4.18715C142.569 4.02692 142.665 3.88235 142.789 3.76418C142.913 3.64601 143.062 3.55724 143.225 3.50453C143.388 3.45183 143.56 3.43654 143.73 3.45973H144.46V4.45973H144.22C143.8 4.45973 143.65 4.55975 143.65 5.03975V5.15975C143.65 6.23975 143.3 7.15975 142.44 7.22975C143.44 7.31975 143.9 7.87975 143.9 9.34975V9.90975C143.9 10.3597 143.98 10.4897 144.51 10.4897H144.76V11.4897L144.22 11.5398Z" fill="black"/>
<path d="M154.87 11.5402V10.7102C154.41 11.6402 153.23 11.7102 152.21 11.7102H148.67C146.86 11.7102 145.59 11.3602 145.59 9.25018C145.59 7.14018 146.76 6.72021 148.75 6.72021H152.29C153.09 6.72021 154.66 6.79022 154.82 7.54022H154.91V6.04022C154.91 4.56022 154.12 4.43018 152.74 4.43018H149.22C148.22 4.43018 147.11 4.43022 147.11 5.54022V5.81018H145.87V5.6402C145.87 3.5602 147.3 3.4502 149.1 3.4502H152.64C154.64 3.4502 156.15 3.65017 156.15 6.11017V11.6102L154.87 11.5402ZM152.39 7.63019H148.87C147.42 7.63019 146.87 7.73021 146.87 9.03021C146.87 10.5802 147.5 10.6402 148.87 10.6402H152.41C153.62 10.6402 154.85 10.6402 154.85 9.15021C154.85 7.66021 153.95 7.63019 152.42 7.63019H152.39Z" fill="black"/>
</svg>
