<svg width="30" height="30" viewBox="0 0 30 30" fill="none" xmlns="http://www.w3.org/2000/svg">
<path d="M20.2713 17.668C19.4604 18.7534 18.1677 19.4258 16.7579 19.4258H13.2423C11.8325 19.4258 10.5398 18.7534 9.72889 17.668H3.19287L4.94541 20.7266C5.40244 21.5527 6.28135 22.0625 7.23057 22.0625H22.7696C23.7188 22.0625 24.5978 21.5527 25.0548 20.7266L26.8073 17.668H20.2713Z" fill="white"/>
<path d="M29.1211 14.1523H27.8145L25.0547 9.33594C24.5977 8.50976 23.7188 8 22.7695 8H7.23047C6.28125 8 5.40234 8.50976 4.94531 9.33594L2.18555 14.1523H0.878906C0.386719 14.1523 0 14.5391 0 15.0312C0 15.5234 0.386719 15.9102 0.878906 15.9102H10.7637C11.1152 16.9297 12.0996 17.668 13.2422 17.668H16.7578C17.9004 17.668 18.8848 16.9297 19.2363 15.9102H29.1211C29.6133 15.9102 30 15.5234 30 15.0312C30 14.5391 29.6133 14.1523 29.1211 14.1523Z" fill="white"/>
</svg>
