<svg width="19" height="19" viewBox="0 0 19 19" fill="none" xmlns="http://www.w3.org/2000/svg">
<g clip-path="url(#clip0)">
<path d="M11.2407 9.51557L18.6389 2.11713C19.1204 1.63589 19.1204 0.857792 18.6389 0.376554C18.1577 -0.104685 17.3796 -0.104685 16.8984 0.376554L9.4999 7.775L2.10167 0.376554C1.62021 -0.104685 0.842337 -0.104685 0.361098 0.376554C-0.120366 0.857792 -0.120366 1.63589 0.361098 2.11713L7.75933 9.51557L0.361098 16.914C-0.120366 17.3953 -0.120366 18.1734 0.361098 18.6546C0.600929 18.8947 0.91627 19.0152 1.23139 19.0152C1.5465 19.0152 1.86162 18.8947 2.10167 18.6546L9.4999 11.2561L16.8984 18.6546C17.1384 18.8947 17.4535 19.0152 17.7686 19.0152C18.0838 19.0152 18.3989 18.8947 18.6389 18.6546C19.1204 18.1734 19.1204 17.3953 18.6389 16.914L11.2407 9.51557Z" fill="white"/>
</g>
<defs>
<clipPath id="clip0">
<rect width="19" height="19" fill="white"/>
</clipPath>
</defs>
</svg>
