<svg width="30" height="30" viewBox="0 0 30 30" fill="none" xmlns="http://www.w3.org/2000/svg">
<g clip-path="url(#clip0)">
<path d="M18.1043 23.9575C17.7611 23.6144 17.205 23.6144 16.8619 23.9575C16.3641 24.4553 15.7023 24.7294 14.9984 24.7294C14.2945 24.7294 13.6326 24.4553 13.1349 23.9575C12.7919 23.6144 12.2356 23.6144 11.8925 23.9575C11.5495 24.3006 11.5495 24.8568 11.8925 25.1999C12.7221 26.0295 13.8252 26.4863 14.9984 26.4863C16.1716 26.4863 17.2746 26.0295 18.1043 25.1999C18.4473 24.8568 18.4474 24.3006 18.1043 23.9575Z" fill="black"/>
<path d="M27.0369 16.4178C28.5783 14.5501 28.5791 11.8345 27.0369 9.96568C27.4348 7.57986 26.0762 5.2272 23.8112 4.37882C22.9627 2.11376 20.6101 0.755325 18.224 1.15318C16.3569 -0.384207 13.6401 -0.384499 11.7729 1.15294C9.3847 0.751868 7.0324 2.10884 6.18501 4.379C3.91996 5.22743 2.56181 7.58021 2.95972 9.96603C1.42228 11.8333 1.42228 14.5503 2.95972 16.4175C2.93845 16.5448 2.92228 16.6728 2.9108 16.801C2.24025 17.4414 1.82119 18.3429 1.82119 19.3411C1.82119 21.2787 3.39753 22.855 5.33511 22.855V23.8506C5.33505 27.2413 8.09365 29.9999 11.4844 29.9999H18.5122C21.903 29.9999 24.6616 27.2413 24.6616 23.8506V22.855C26.5991 22.855 28.1755 21.2786 28.1755 19.341C28.1754 18.3428 27.7564 17.4413 27.0858 16.801C27.0743 16.6729 27.0582 16.5451 27.0369 16.4178ZM5.335 21.098C4.36621 21.098 3.57806 20.3099 3.57806 19.3411C3.57806 18.3723 4.36621 17.5842 5.335 17.5842V21.098ZM22.9046 21.9765V23.8505H22.9045C22.9045 26.2725 20.9341 28.2429 18.5121 28.2429H11.4844C9.06238 28.2429 7.09199 26.2724 7.09199 23.8505V21.9765V21.9741C7.82664 22.5268 8.73935 22.855 9.72742 22.855C11.8486 22.855 13.6233 21.3435 14.0314 19.341H15.9652C16.3733 21.3435 18.148 22.855 20.2692 22.855C21.2573 22.855 22.17 22.5268 22.9046 21.9741V21.9765H22.9046ZM9.7273 14.0702C8.84025 14.0702 8.01443 14.3353 7.32314 14.7893C7.85582 12.6242 9.27953 10.7828 11.2824 9.72292C12.3399 12.3905 14.5353 14.4267 17.2003 15.3241C16.5841 15.9267 16.1436 16.7081 15.965 17.5841H14.0313V17.584C13.6233 15.5817 11.8486 14.0702 9.7273 14.0702ZM9.72736 15.8272C11.1805 15.8272 12.3628 17.0094 12.3628 18.4626C12.3628 19.9158 11.1805 21.098 9.72736 21.098C8.27417 21.098 7.09193 19.9158 7.09193 18.4626C7.09193 17.0094 8.27417 15.8272 9.72736 15.8272ZM17.6336 18.4626C17.6336 17.0094 18.8158 15.8272 20.2691 15.8272C21.7223 15.8272 22.9045 17.0094 22.9045 18.4626C22.9045 19.9158 21.7223 21.098 20.2691 21.098C18.816 21.098 17.6336 19.9158 17.6336 18.4626ZM24.6615 21.098V17.5841C25.6303 17.5841 26.4184 18.3722 26.4184 19.341C26.4184 20.3098 25.6303 21.098 24.6615 21.098ZM25.4622 15.5408C25.3658 15.6373 25.2949 15.7529 25.2523 15.8777C24.885 15.8153 24.74 15.827 23.7832 15.827C23.7831 15.827 23.7831 15.827 23.7829 15.827C23.7822 15.827 23.7814 15.8272 23.7806 15.8272C22.9785 14.761 21.703 14.0701 20.269 14.0701C16.7291 14.0701 13.5961 11.691 12.6502 8.28456C12.5109 7.78306 11.9683 7.5123 11.4842 7.70132C9.6925 8.40105 8.16273 9.60855 7.06035 11.1934C6.09935 12.5749 5.52437 14.1619 5.3746 15.827H5.33494C5.13349 15.827 4.93626 15.845 4.74402 15.8777C4.70136 15.753 4.63052 15.6373 4.53408 15.5408C3.2388 14.2455 3.2388 12.1379 4.53408 10.8425C4.75603 10.6206 4.84269 10.2971 4.76142 9.99398C4.28728 8.22456 5.34109 6.39925 7.11044 5.92511C7.41355 5.8439 7.65039 5.60712 7.7316 5.30396C8.20685 3.53033 10.0268 2.47956 11.8005 2.95488C12.1037 3.03614 12.4271 2.94943 12.649 2.72753C13.9444 1.4322 16.052 1.43226 17.3474 2.72753C17.5692 2.94943 17.8927 3.03609 18.1959 2.95488C19.9652 2.48079 21.7906 3.53449 22.2647 5.30396C22.346 5.60706 22.5828 5.84384 22.8859 5.92511C24.6553 6.39925 25.7091 8.22456 25.2349 9.99398C25.1537 10.2971 25.2403 10.6206 25.4623 10.8425C26.7607 12.141 26.7607 14.2424 25.4622 15.5408Z" fill="black"/>
</g>
<defs>
<clipPath id="clip0">
<rect width="30" height="30" fill="white"/>
</clipPath>
</defs>
</svg>
