<svg width="25" height="25" viewBox="0 0 25 25" fill="none" xmlns="http://www.w3.org/2000/svg">
<path d="M23.6413 8.42383H1.35869C0.609521 8.42383 0 9.03335 0 9.78252V22.0108C0 22.76 0.609521 23.3695 1.35869 23.3695H23.6413C24.3905 23.3695 25 22.76 25 22.0108V9.78252C25 9.03335 24.3905 8.42383 23.6413 8.42383ZM23.3696 21.739H1.63042V10.0542H23.3695V21.739H23.3696Z" fill="white"/>
<path d="M3.80435 8.42383C3.35405 8.42383 2.98911 8.78877 2.98911 9.23906V10.0543C2.98911 10.6638 2.51167 11.1413 1.90215 11.1413H0.815234C0.364941 11.1412 0 11.5062 0 11.9564C0 12.4067 0.364941 12.7717 0.815234 12.7717H1.9022C3.40059 12.7717 4.61958 11.5526 4.61958 10.0543V9.23906C4.61958 8.78877 4.25464 8.42383 3.80435 8.42383Z" fill="white"/>
<path d="M24.1848 11.1413H23.3695C22.76 11.1413 22.2826 10.6638 22.2826 10.0543V9.23906C22.2826 8.78877 21.9176 8.42383 21.4673 8.42383C21.017 8.42383 20.6521 8.78877 20.6521 9.23906V10.0543C20.6521 11.5527 21.8711 12.7717 23.3695 12.7717H24.1847C24.635 12.7717 25 12.4067 25 11.9564C25 11.5062 24.6351 11.1413 24.1848 11.1413Z" fill="white"/>
<path d="M1.9022 19.0215H0.815234C0.364941 19.0215 0 19.3864 0 19.8367C0 20.287 0.364941 20.652 0.815234 20.652H1.9022C2.51172 20.652 2.98916 21.1294 2.98916 21.7389V22.5542C2.98916 23.0044 3.3541 23.3694 3.80439 23.3694C4.25469 23.3694 4.61963 23.0044 4.61963 22.5542V21.7389C4.61958 20.2405 3.40054 19.0215 1.9022 19.0215Z" fill="white"/>
<path d="M24.1847 19.0215H23.0978C21.5994 19.0215 20.3804 20.2405 20.3804 21.7389V22.5541C20.3804 23.0044 20.7453 23.3693 21.1956 23.3693C21.6459 23.3693 22.0108 23.0044 22.0108 22.5541V21.7389C22.0108 21.1293 22.4883 20.6519 23.0978 20.6519H24.1848C24.6351 20.6519 25 20.287 25 19.8367C25 19.3864 24.635 19.0215 24.1847 19.0215Z" fill="white"/>
<path d="M22.0108 4.8916H2.98906C2.53877 4.8916 2.17383 5.25654 2.17383 5.70683C2.17383 6.15712 2.53877 6.52206 2.98906 6.52206H22.0108C22.4611 6.52206 22.826 6.15712 22.826 5.70683C22.826 5.25654 22.4611 4.8916 22.0108 4.8916Z" fill="white"/>
<path d="M19.5653 1.63086H5.43486C4.98457 1.63086 4.61963 1.9958 4.61963 2.44609C4.61963 2.89639 4.98457 3.26133 5.43486 3.26133H19.5653C20.0156 3.26133 20.3805 2.89639 20.3805 2.44609C20.3805 1.9958 20.0156 1.63086 19.5653 1.63086Z" fill="white"/>
<path d="M12.5001 11.3857C10.0278 11.3857 8.01636 13.3969 8.01636 15.8694C8.01636 18.3417 10.0278 20.3531 12.5001 20.3531C14.9723 20.3531 16.9838 18.3417 16.9838 15.8694C16.9838 13.3971 14.9723 11.3857 12.5001 11.3857ZM12.5001 18.7227C10.9267 18.7227 9.64678 17.4428 9.64678 15.8694C9.64678 14.296 10.9267 13.0159 12.5001 13.0159C14.0734 13.0159 15.3533 14.296 15.3533 15.8694C15.3533 17.4428 14.0734 18.7227 12.5001 18.7227Z" fill="white"/>
</svg>
