<svg width="25" height="25" viewBox="0 0 25 25" fill="none" xmlns="http://www.w3.org/2000/svg">
<g clip-path="url(#clip0)">
<path d="M22.3991 20.6156L21.2828 6.54775C21.2135 5.64136 20.4467 4.93164 19.5378 4.93164H17.3326V8.19907C17.3326 8.60371 17.005 8.93125 16.6004 8.93125C16.1962 8.93125 15.8682 8.60371 15.8682 8.19907V4.93164H9.13231V8.19907C9.13231 8.60371 8.80428 8.93125 8.40013 8.93125C7.99549 8.93125 7.66795 8.60371 7.66795 8.19907V4.93164H5.46268C4.55384 4.93164 3.78699 5.64136 3.71771 6.5458L2.60091 20.6175C2.51453 21.7446 2.9055 22.8663 3.67327 23.6951C4.44109 24.5238 5.52957 24.9998 6.65955 24.9998H18.341C19.471 24.9998 20.5595 24.5238 21.3273 23.695C22.095 22.8662 22.486 21.7445 22.3991 20.6156Z" fill="white"/>
<path d="M12.5002 0C9.83564 0 7.66797 2.16816 7.66797 4.83276V4.93184H9.13232V4.83276C9.13232 2.97549 10.643 1.46431 12.5003 1.46431C14.3576 1.46431 15.8683 2.97549 15.8683 4.83276V4.93184H17.3326V4.83276C17.3325 2.16816 15.1648 0 12.5002 0Z" fill="white"/>
</g>
<defs>
<clipPath id="clip0">
<rect width="25" height="25" fill="white"/>
</clipPath>
</defs>
</svg>
