<svg width="29" height="29" viewBox="0 0 29 29" fill="none" xmlns="http://www.w3.org/2000/svg">
<g clip-path="url(#clip0)">
<path d="M24.7502 4.24649C22.0118 1.50806 18.371 0 14.4984 0C6.48566 0 0 6.48441 0 14.4984C0 18.371 1.50806 22.0119 4.24649 24.7503C9.91229 30.4162 19.0835 30.417 24.7502 24.7503C30.4162 19.0845 30.4171 9.9132 24.7502 4.24649ZM24.3621 22.6358C23.485 21.8199 22.5185 21.1215 21.4729 20.5479C21.8487 18.9574 22.0786 17.206 22.1328 15.3512H27.262C27.0796 18.1076 26.0212 20.6284 24.3621 22.6358ZM1.7348 15.3512H6.86399C6.91817 17.206 7.14804 18.9574 7.52386 20.5478C6.47822 21.1215 5.51171 21.8198 4.63465 22.6358C2.97552 20.6284 1.91714 18.1076 1.7348 15.3512ZM13.6455 27.1452C12.4824 26.7508 11.3542 25.5682 10.4574 23.7671C10.1058 23.0609 9.79971 22.286 9.54164 21.4574C10.8321 20.9157 12.2138 20.5896 13.6455 20.4968V27.1452ZM15.3512 20.4968C16.783 20.5896 18.1646 20.9156 19.4551 21.4574C19.197 22.286 18.891 23.0609 18.5394 23.7671C17.6425 25.5681 16.5143 26.7508 15.3512 27.1452V20.4968ZM19.8915 19.8C18.44 19.2172 16.918 18.8781 15.3512 18.788V15.3512H20.4262C20.3774 16.907 20.1957 18.4081 19.8915 19.8ZM15.3512 13.6455V9.35566C16.8578 9.26839 18.3234 8.95062 19.7056 8.41924C20.1218 10.023 20.3681 11.7954 20.4262 13.6455H15.3512ZM15.3512 7.64696V1.85159C16.5143 2.24594 17.6425 3.42861 18.5393 5.22965C18.7819 5.71685 19.0025 6.23703 19.201 6.78456C17.9805 7.26664 16.6846 7.55934 15.3512 7.64696ZM18.8107 2.45438C20.245 2.9695 21.5613 3.73382 22.7074 4.69514C22.094 5.20952 21.439 5.66096 20.751 6.04736C20.2251 4.6363 19.568 3.41923 18.8107 2.45438ZM10.4574 5.22971C11.3542 3.42861 12.4824 2.24594 13.6455 1.85159V7.64696C12.3122 7.55934 11.0163 7.26664 9.79573 6.78456C9.99416 6.23703 10.2148 5.71685 10.4574 5.22971ZM8.24571 6.04736C7.55775 5.66102 6.90271 5.20952 6.2894 4.69514C7.43545 3.73382 8.75179 2.96944 10.1861 2.45438C9.42878 3.41923 8.77163 4.6363 8.24571 6.04736ZM13.6455 9.35566V13.6455H8.57053C8.62853 11.7954 8.875 10.023 9.29113 8.41924C10.6734 8.95062 12.139 9.26839 13.6455 9.35566ZM13.6455 15.3512V18.788C12.0788 18.8781 10.5568 19.2172 9.10527 19.8C8.80108 18.4081 8.61937 16.907 8.57059 15.3512H13.6455ZM7.99651 22.2343C8.55791 23.951 9.30375 25.4182 10.1862 26.5424C8.54569 25.9534 7.05974 25.0381 5.80623 23.8752C6.48396 23.2451 7.21741 22.696 7.99651 22.2343ZM21.0002 22.2343C21.7793 22.696 22.5127 23.2451 23.1905 23.8752C21.937 25.0381 20.451 25.9533 18.8106 26.5424C19.693 25.4182 20.4389 23.951 21.0002 22.2343ZM27.262 13.6455H22.1328C22.0699 11.4952 21.7705 9.48416 21.2819 7.70126C22.2271 7.19984 23.1199 6.59079 23.9447 5.88088C25.8426 7.95955 27.0648 10.6647 27.262 13.6455ZM5.05197 5.88088C5.87679 6.59079 6.76961 7.19984 7.71484 7.70126C7.22616 9.48416 6.92681 11.4952 6.86393 13.6455H1.7348C1.93198 10.6647 3.15411 7.95955 5.05197 5.88088Z" fill="white"/>
</g>
<defs>
<clipPath id="clip0">
<rect width="29" height="29" fill="white"/>
</clipPath>
</defs>
</svg>
