<?xml version="1.0" encoding="UTF-8" standalone="no"?>
<!DOCTYPE svg PUBLIC "-//W3C//DTD SVG 1.1//EN" "http://www.w3.org/Graphics/SVG/1.1/DTD/svg11.dtd">
<svg version="1.1" xmlns="http://www.w3.org/2000/svg" xmlns:xlink="http://www.w3.org/1999/xlink" preserveAspectRatio="xMidYMid meet" viewBox="256.285044674196 155.45257849313447 152.07827693672766 152.07299077647804" width="148.08" height="148.07"><defs><path d="M402.88 302.04C399.56 305.35 394.18 305.35 390.87 302.04C363.45 274.62 287.2 198.37 259.78 170.95C256.46 167.63 256.46 162.26 259.78 158.94C260.98 157.74 258.58 160.14 259.78 158.94C263.09 155.62 268.47 155.62 271.79 158.94C299.2 186.36 375.46 262.61 402.88 290.03C406.19 293.35 406.19 298.72 402.88 302.04C401.68 303.24 404.08 300.84 402.88 302.04Z" id="c2yNuJjih3"></path><path d="M402.87 158.94C406.19 162.26 406.19 167.63 402.87 170.95C375.45 198.37 299.2 274.62 271.78 302.04C268.46 305.35 263.09 305.35 259.77 302.04C258.57 300.84 260.97 303.24 259.77 302.04C256.46 298.72 256.46 293.35 259.77 290.03C287.19 262.61 363.44 186.36 390.86 158.94C394.18 155.62 399.56 155.62 402.87 158.94C404.07 160.14 401.67 157.74 402.87 158.94Z" id="f1cUiXFZa"></path></defs><g><g><use xlink:href="#c2yNuJjih3" opacity="1" fill="#7A7A81" fill-opacity="1"></use></g><g><use xlink:href="#f1cUiXFZa" opacity="1" fill="#7A7A81" fill-opacity="1"></use></g></g></svg>