<svg width="30" height="26" viewBox="0 0 30 26" fill="none" xmlns="http://www.w3.org/2000/svg">
<g clip-path="url(#clip0)">
<path d="M8.7561 14.0536C10.623 14.0422 12.4094 13.2966 13.7242 11.98C15.0391 10.6634 15.7753 8.88297 15.7717 7.02846C15.7761 5.17337 15.0403 3.39213 13.7254 2.0748C12.4105 0.757463 10.6236 0.011408 8.7561 0C6.88829 0.0105342 5.10091 0.756311 3.7858 2.07383C2.47069 3.39136 1.73517 5.17311 1.74051 7.02846C1.73606 8.88324 2.47196 10.6641 3.78698 11.9809C5.10199 13.2977 6.88887 14.0431 8.7561 14.0536Z" fill="#403C3B"/>
<path d="M14.7494 12.9718C13.9669 13.7612 13.0338 14.3878 12.0048 14.8151C10.9758 15.2424 9.87143 15.4619 8.75612 15.4606C7.65097 15.4604 6.55676 15.2434 5.53628 14.822C4.5158 14.4006 3.58917 13.7831 2.80958 13.005C0.928732 13.9076 0 15.2449 0 17.0999V23.5775C0.942093 24.0952 3.23386 25.9901 8.86971 25.9901C14.549 25.9901 16.931 24.1384 17.6359 23.6373V17.1199C17.6359 15.2184 16.6804 13.8678 14.7494 12.9718Z" fill="#403C3B"/>
<path d="M28.8842 4.3704H18.9488C18.6529 4.3704 18.3691 4.25364 18.1598 4.04578C17.9506 3.83792 17.833 3.556 17.833 3.26205C17.8339 2.96836 17.9517 2.68695 18.1608 2.47928C18.3699 2.27161 18.6532 2.15456 18.9488 2.15369H28.8842C29.1799 2.15456 29.4632 2.27161 29.6723 2.47928C29.8813 2.68695 29.9992 2.96836 30 3.26205C30 3.556 29.8825 3.83792 29.6732 4.04578C29.464 4.25364 29.1802 4.3704 28.8842 4.3704Z" fill="#403C3B"/>
<path d="M28.8842 10.6456H18.9488C18.6532 10.6447 18.3699 10.5276 18.1608 10.32C17.9517 10.1123 17.8339 9.83088 17.833 9.53719C17.833 9.39164 17.8619 9.24751 17.9179 9.11304C17.974 8.97857 18.0562 8.85639 18.1598 8.75347C18.2634 8.65055 18.3864 8.5689 18.5218 8.5132C18.6572 8.4575 18.8023 8.42883 18.9488 8.42883H28.8842C29.0308 8.42883 29.1759 8.4575 29.3112 8.5132C29.4466 8.5689 29.5696 8.65055 29.6732 8.75347C29.7768 8.85639 29.859 8.97857 29.9151 9.11304C29.9712 9.24751 30 9.39164 30 9.53719C29.9992 9.83088 29.8813 10.1123 29.6723 10.32C29.4632 10.5276 29.1799 10.6447 28.8842 10.6456Z" fill="#403C3B"/>
<path d="M28.884 16.9174H20.609C20.313 16.9174 20.0292 16.8006 19.82 16.5928C19.6107 16.3849 19.4932 16.103 19.4932 15.809C19.4927 15.6634 19.5213 15.519 19.5772 15.3844C19.6331 15.2497 19.7153 15.1273 19.819 15.0243C19.9227 14.9213 20.0459 14.8397 20.1815 14.7842C20.317 14.7286 20.4623 14.7003 20.609 14.7007H28.884C29.0307 14.7003 29.176 14.7286 29.3116 14.7842C29.4471 14.8397 29.5703 14.9213 29.674 15.0243C29.7777 15.1273 29.8599 15.2497 29.9158 15.3844C29.9717 15.519 30.0003 15.6634 29.9998 15.809C29.9998 16.103 29.8823 16.3849 29.673 16.5928C29.4638 16.8006 29.18 16.9174 28.884 16.9174Z" fill="#403C3B"/>
<path d="M28.884 23.1893H20.609C20.313 23.1893 20.0292 23.0725 19.82 22.8646C19.6107 22.6568 19.4932 22.3749 19.4932 22.0809C19.4927 21.9352 19.5213 21.7909 19.5772 21.6562C19.6331 21.5216 19.7153 21.3992 19.819 21.2962C19.9227 21.1932 20.0459 21.1116 20.1815 21.056C20.317 21.0005 20.4623 20.9721 20.609 20.9725H28.884C29.0307 20.9721 29.176 21.0005 29.3116 21.056C29.4471 21.1116 29.5703 21.1932 29.674 21.2962C29.7777 21.3992 29.8599 21.5216 29.9158 21.6562C29.9717 21.7909 30.0003 21.9352 29.9998 22.0809C29.9998 22.3749 29.8823 22.6568 29.673 22.8646C29.4638 23.0725 29.18 23.1893 28.884 23.1893Z" fill="#403C3B"/>
</g>
<defs>
<clipPath id="clip0">
<rect width="30" height="26" fill="white"/>
</clipPath>
</defs>
</svg>
