<svg width="20" height="20" viewBox="0 0 20 20" fill="none" xmlns="http://www.w3.org/2000/svg">
<path d="M15.8063 12.3893C15.3969 11.9629 14.903 11.735 14.3796 11.735C13.8604 11.735 13.3623 11.9587 12.936 12.385L11.6021 13.7147C11.4923 13.6556 11.3826 13.6007 11.2771 13.5459C11.1251 13.4699 10.9816 13.3981 10.8592 13.3221C9.60972 12.5286 8.47423 11.4944 7.38518 10.1563C6.85753 9.48934 6.50296 8.92793 6.24547 8.35807C6.5916 8.04149 6.91241 7.71224 7.22477 7.39565C7.34297 7.27746 7.46116 7.15505 7.57935 7.03686C8.46579 6.15042 8.46579 5.00227 7.57935 4.11583L6.42698 2.96346C6.29612 2.83261 6.16105 2.69753 6.03441 2.56245C5.78114 2.30074 5.51521 2.03059 5.24084 1.77732C4.83139 1.37209 4.34174 1.15681 3.82676 1.15681C3.31178 1.15681 2.81369 1.37209 2.39157 1.77732C2.38735 1.78154 2.38735 1.78154 2.38313 1.78576L0.947943 3.23361C0.407638 3.77392 0.0994949 4.43242 0.0319568 5.19644C-0.0693505 6.42902 0.293667 7.57716 0.572262 8.32853C1.25609 10.1732 2.2776 11.8827 3.80143 13.7147C5.65029 15.9224 7.87483 17.6657 10.416 18.894C11.3868 19.3541 12.6827 19.8987 14.1306 19.9915C14.2192 19.9957 14.3121 20 14.3965 20C15.3716 20 16.1905 19.6496 16.8321 18.9531C16.8363 18.9447 16.8447 18.9405 16.849 18.932C17.0685 18.6661 17.3217 18.4255 17.5877 18.168C17.7692 17.9949 17.9549 17.8134 18.1364 17.6235C18.5543 17.1887 18.7738 16.6822 18.7738 16.163C18.7738 15.6395 18.5501 15.1372 18.1237 14.7151L15.8063 12.3893ZM17.3175 16.8341C17.3133 16.8341 17.3133 16.8383 17.3175 16.8341C17.1529 17.0114 16.984 17.1718 16.8025 17.3491C16.5282 17.6108 16.2496 17.8852 15.9879 18.1933C15.5615 18.6492 15.0592 18.8645 14.4007 18.8645C14.3374 18.8645 14.2698 18.8645 14.2065 18.8603C12.9529 18.7801 11.7878 18.2904 10.914 17.8725C8.52488 16.7159 6.42698 15.0739 4.68365 12.9929C3.24424 11.258 2.28182 9.65396 1.64443 7.93174C1.25187 6.88068 1.10835 6.06178 1.17166 5.28931C1.21387 4.79543 1.40383 4.38598 1.75418 4.03563L3.19359 2.59622C3.40042 2.40205 3.61992 2.29652 3.8352 2.29652C4.10113 2.29652 4.31641 2.45692 4.45149 2.592C4.45571 2.59622 4.45993 2.60044 4.46415 2.60466C4.72164 2.84527 4.96647 3.09432 5.22395 3.36025C5.35481 3.49532 5.48989 3.6304 5.62496 3.7697L6.77733 4.92207C7.22477 5.36951 7.22477 5.78318 6.77733 6.23062C6.65492 6.35303 6.53673 6.47545 6.41431 6.59364C6.05974 6.95666 5.72205 7.29435 5.35481 7.6236C5.34637 7.63204 5.33793 7.63626 5.3337 7.6447C4.97069 8.00772 5.03822 8.3623 5.1142 8.6029C5.11843 8.61556 5.12265 8.62823 5.12687 8.64089C5.42657 9.36693 5.84868 10.0508 6.4903 10.8654L6.49452 10.8697C7.65955 12.3048 8.8879 13.4234 10.2429 14.2803C10.416 14.3901 10.5932 14.4787 10.7621 14.5631C10.914 14.6391 11.0576 14.7109 11.18 14.7869C11.1969 14.7953 11.2137 14.808 11.2306 14.8164C11.3742 14.8882 11.5092 14.9219 11.6485 14.9219C11.9989 14.9219 12.2184 14.7024 12.2901 14.6307L13.7338 13.1871C13.8773 13.0435 14.1052 12.8705 14.3712 12.8705C14.6329 12.8705 14.8481 13.0351 14.979 13.1786C14.9832 13.1828 14.9832 13.1828 14.9874 13.1871L17.3133 15.5129C17.7481 15.9435 17.7481 16.3867 17.3175 16.8341Z" fill="white"/>
<path d="M10.8085 4.7574C11.9145 4.94313 12.9191 5.46656 13.7211 6.26857C14.5231 7.07059 15.0423 8.07522 15.2323 9.18116C15.2787 9.45975 15.5193 9.65392 15.7937 9.65392C15.8275 9.65392 15.857 9.6497 15.8908 9.64548C16.2032 9.59483 16.41 9.29935 16.3593 8.98698C16.1314 7.64888 15.4982 6.42897 14.5316 5.46233C13.5649 4.49569 12.345 3.86252 11.0069 3.63458C10.6946 3.58393 10.4033 3.79076 10.3484 4.09891C10.2936 4.40705 10.4962 4.70675 10.8085 4.7574Z" fill="white"/>
<path d="M19.9768 8.8226C19.6011 6.61917 18.5627 4.61413 16.9671 3.01854C15.3715 1.42295 13.3665 0.384552 11.1631 0.00887083C10.8549 -0.0460039 10.5637 0.165053 10.5088 0.473196C10.4581 0.78556 10.665 1.07682 10.9773 1.13169C12.9444 1.46516 14.7384 2.39803 16.1651 3.82056C17.5919 5.2473 18.5205 7.04128 18.854 9.00833C18.9004 9.28693 19.141 9.4811 19.4154 9.4811C19.4492 9.4811 19.4787 9.47688 19.5125 9.47266C19.8206 9.42623 20.0317 9.13075 19.9768 8.8226Z" fill="white"/>
</svg>
