<svg width="15" height="15" viewBox="0 0 15 15" fill="none" xmlns="http://www.w3.org/2000/svg">
<path d="M14.8281 13.9993L10.5961 9.76731C12.5243 7.42136 12.3931 3.93887 10.202 1.74788C7.87122 -0.582952 4.07871 -0.582952 1.74788 1.74788C-0.582952 4.07871 -0.582952 7.87122 1.74788 10.202C3.93829 12.3925 7.42034 12.5251 9.76731 10.5961L13.9993 14.8281C14.2282 15.057 14.5992 15.057 14.8281 14.8281C15.057 14.5992 15.057 14.2282 14.8281 13.9993ZM9.37327 9.37324C7.49944 11.2471 4.45052 11.247 2.57669 9.37324C0.702859 7.49941 0.702859 4.45049 2.57669 2.57666C4.45046 0.702918 7.49938 0.702771 9.37327 2.57666C11.2471 4.45049 11.2471 7.49941 9.37327 9.37324Z" fill="white"/>
</svg>
