<svg width="25" height="25" viewBox="0 0 25 25" fill="none" xmlns="http://www.w3.org/2000/svg">
<g clip-path="url(#clip0)">
<path d="M25 8.75C25 7.91667 23.3333 7.5 22.9167 8.75L6.20083 6.7334L5.09277 2.94829C4.97095 2.53208 4.58926 2.24609 4.15557 2.24609H0.976562C0.437207 2.24609 0 2.6833 0 3.22266C0 3.76201 0.437207 4.19922 0.976562 4.19922H3.42388C3.5665 4.68647 7.17373 17.0091 7.31943 17.5068C7.44126 17.923 7.823 18.209 8.25664 18.209H20.6642C21.0979 18.209 21.4796 17.923 21.6014 17.5068C21.6014 17.5068 25 9.58333 25 8.75ZM19.9326 16.2559H8.98833L6.20083 6.7334L22.9167 8.75L19.9326 16.2559Z" fill="#323232"/>
<path d="M11.8308 22.7539C12.5589 22.7539 13.1492 22.1637 13.1492 21.4355C13.1492 20.7074 12.5589 20.1172 11.8308 20.1172C11.1027 20.1172 10.5125 20.7074 10.5125 21.4355C10.5125 22.1637 11.1027 22.7539 11.8308 22.7539Z" fill="#323232"/>
<path d="M17.0907 22.7539C17.8188 22.7539 18.4091 22.1637 18.4091 21.4355C18.4091 20.7074 17.8188 20.1172 17.0907 20.1172C16.3626 20.1172 15.7723 20.7074 15.7723 21.4355C15.7723 22.1637 16.3626 22.7539 17.0907 22.7539Z" fill="#323232"/>
</g>
<defs>
<clipPath id="clip0">
<rect width="25" height="25" fill="white"/>
</clipPath>
</defs>
</svg>
