<svg width="20" height="20" viewBox="0 0 20 20" fill="none" xmlns="http://www.w3.org/2000/svg">
<path d="M10.0005 0C6.83554 0 4.26062 2.57488 4.26062 5.73988C4.26062 8.90488 6.83554 11.4798 10.0005 11.4798C13.1655 11.4798 15.7404 8.90488 15.7404 5.73988C15.7404 2.57488 13.1655 0 10.0005 0ZM10.0005 9.91727C7.69707 9.91727 5.82312 8.04332 5.82312 5.73988C5.82312 3.43645 7.69707 1.5625 10.0005 1.5625C12.3039 1.5625 14.1779 3.43648 14.1779 5.73988C14.1779 8.04328 12.3039 9.91727 10.0005 9.91727Z" fill="#323232"/>
<path d="M10.2876 12.2404H9.71246C5.86473 12.2404 2.73438 15.3707 2.73438 19.2184C2.73438 19.4256 2.81668 19.6243 2.96316 19.7708C3.10969 19.9174 3.3084 19.9997 3.51562 19.9997H16.4844C16.9159 19.9997 17.2656 19.6499 17.2656 19.2184C17.2656 15.3707 14.1353 12.2404 10.2876 12.2404ZM4.35305 18.4372C4.73277 15.8198 6.99145 13.8029 9.71242 13.8029H10.2875C13.0085 13.8029 15.2672 15.8198 15.6469 18.4372H4.35305Z" fill="#323232"/>
</svg>
