<svg width="30" height="30" viewBox="0 0 30 30" fill="none" xmlns="http://www.w3.org/2000/svg">
<g clip-path="url(#clip0)">
<path d="M15 0C8.7975 0 3.75 5.0825 3.75 11.3312C3.75 20.21 13.9425 29.3775 14.3763 29.7625C14.555 29.9212 14.7775 30 15 30C15.2225 30 15.445 29.9213 15.6237 29.7638C16.0575 29.3775 26.25 20.21 26.25 11.3312C26.25 5.0825 21.2025 0 15 0ZM15 17.5C11.5538 17.5 8.75 14.6962 8.75 11.25C8.75 7.80375 11.5538 5 15 5C18.4462 5 21.25 7.80375 21.25 11.25C21.25 14.6962 18.4462 17.5 15 17.5Z" fill="white"/>
</g>
<defs>
<clipPath id="clip0">
<rect width="30" height="30" fill="white"/>
</clipPath>
</defs>
</svg>
